<?xml version="1.0" standalone="no"?>
<!DOCTYPE svg PUBLIC "-//W3C//DTD SVG 1.1//EN" "http://www.w3.org/Graphics/SVG/1.1/DTD/svg11.dtd" >
<svg xmlns="http://www.w3.org/2000/svg" xmlns:xlink="http://www.w3.org/1999/xlink" version="1.1">
<metadata>
Created by FontForge 20201107 at Sun Mar 23 14:31:01 2025
 By 
Anita Ju:rgeleit | 2019
</metadata>
<defs>
<font id="CrossfitDemo-Bold" horiz-adv-x="1793" vert-adv-y="2048" >
  <font-face 
    font-family="Crossfit Demo Bold"
    font-weight="700"
    font-stretch="normal"
    units-per-em="2048"
    panose-1="0 0 0 0 0 0 0 0 0 0"
    ascent="1638"
    descent="-410"
    x-height="1085"
    cap-height="1497"
    bbox="-18.8286 -387 1793 1610"
    underline-thickness="51"
    underline-position="-101"
    unicode-range="U+0020-2122"
  />
<missing-glyph horiz-adv-x="2359" vert-adv-y="2063" 
 />
    <glyph glyph-name=".notdef" horiz-adv-x="2359" vert-adv-y="2063" 
 />
    <glyph glyph-name=".null" horiz-adv-x="0" vert-adv-y="0" 
 />
    <glyph glyph-name="nonmarkingreturn" horiz-adv-x="682" 
 />
    <glyph glyph-name="space" unicode=" " horiz-adv-x="297" vert-adv-y="2063" 
 />
    <glyph glyph-name="space" unicode="&#xa0;" horiz-adv-x="297" vert-adv-y="2063" 
 />
    <glyph glyph-name="exclam" unicode="!" horiz-adv-x="449" vert-adv-y="1438" 
d="M387 612q0 -55 -18 -78t-69 -23h-161q-44 0 -61 25.5t-17 84.5v788q0 56 26 72t99 16h77q73 0 98.5 -19t25.5 -71v-795zM58 242q0 39 27.5 66t68.5 27h141q41 0 68 -27t27 -66v-149q0 -39 -27 -66t-68 -27h-141q-41 0 -68.5 27t-27.5 66v149z" />
    <glyph glyph-name="quotedbl" unicode="&#x22;" vert-adv-y="2063" 
d="M0 631q0 14 15 17q123 7 131 7q110 0 176 -60t66 -164q0 -103 -64 -166.5t-170 -63.5q-7 0 -139 6q-15 4 -15 18v406zM1338 427q0 102 63.5 165t165.5 63q101 0 163.5 -63t62.5 -165q0 -101 -62.5 -163.5t-163.5 -62.5q-102 0 -165.5 63.5t-63.5 162.5zM755 598
q0 -17 -16 -17h-211v-117h159q18 0 18 -18v-30q0 -16 -18 -16h-159v-127h223q15 0 15 -15v-33q0 -18 -15 -18h-273q-17 0 -17 18v406q0 15 17 15h261q16 0 16 -15v-33zM1181 635q5 11 19 11h19q14 0 17 -15q7 -71 44 -382q0 -3 1 -13t1 -11q0 -15 -15 -15h-16q-9 -3 -22 -3
t-16 15q0 5 -1 14t-1 13q-17 140 -30 266l-104 -172q-10 -10 -19 -10h-16q-12 0 -19 10l-103 174q-21 -185 -35 -295q0 -15 -16 -15h-22l-16 3q-15 0 -15 15q0 1 1 5t1 8q41 364 44 393q3 15 18 15h20q13 0 20 -11l129 -219zM66 271q42 -5 90 -5q74 0 117 44.5t43 120.5
q0 72 -44 115t-118 43q-7 0 -88 -6v-312zM1411 427q0 -73 42 -117t112 -44q72 0 115 44t43 117q0 74 -42.5 118t-113.5 44q-72 0 -114 -44t-42 -118zM741 -93q3 -5 3 -9q0 -9 -11 -9q-17 0 -26 -3q-11 0 -18 10l-26 57q-13 -5 -35 -5h-31v-46q0 -16 -13 -16h-25
q-12 0 -12 16v218q0 12 12 15q40 4 67 4q49 0 83.5 -24t34.5 -72q0 -45 -35 -71zM806 -54q3 9 10 9q5 0 7 -2q42 -23 81 -23q46 0 46 29q0 16 -15 23t-46 12q-90 16 -90 71q0 36 27.5 55t73.5 19q38 0 90 -21q6 -7 6 -12q0 -7 -2 -9l-9 -17q-3 -6 -10 -6q-5 0 -7 2
q-40 17 -70 17q-42 0 -42 -26q0 -22 50 -31q22 -4 35.5 -7.5t31 -12t26.5 -22.5t9 -33q0 -36 -28 -56.5t-74 -20.5q-55 0 -103 25q-6 3 -6 11v6zM1192 12q0 56 37 91.5t92 35.5q58 0 95 -35.5t37 -91.5t-37 -92t-95 -36q-55 0 -92 35.5t-37 92.5zM0 120v6q0 9 11 9
q5 0 14.5 1t13.5 1q13 3 18 -9l70 -169l71 169q3 12 17 9q4 0 13.5 -1t15.5 -1q11 0 11 -9q0 -4 -3 -6l-102 -222q-6 -12 -16 -12h-13q-12 0 -16 12zM480 104q0 -15 -13 -15h-114v-55h77q13 0 13 -16v-11q0 -13 -13 -13h-77v-62h114q13 0 13 -12v-18q0 -16 -13 -16h-154
q-12 0 -12 16v222q0 13 12 13h154q13 0 13 -13v-20zM1126 -98q0 -6 -4.5 -11t-11.5 -5h-24q-15 0 -15 16v222q0 13 15 13h24q6 0 11 -4t5 -9v-222zM1690 -26v150q0 13 13 13h27q13 0 13 -13v-222q0 -16 -13 -16h-16q-10 0 -17 10l-123 151v-145q0 -6 -4 -11t-9 -5h-27
q-6 0 -10.5 5t-4.5 11v222q0 5 4.5 9t10.5 4h15q13 0 18 -9zM597 -3q22 -5 35 -5q53 0 53 51q0 22 -15 34t-38 12q-22 0 -35 -5v-87zM1321 -62q35 0 55 19t20 55q0 34 -20 54.5t-55 20.5q-33 0 -54 -21t-21 -54q0 -34 21 -54t54 -20z" />
    <glyph glyph-name="numbersign" unicode="#" vert-adv-y="2063" 
d="M0 631q0 14 15 17q123 7 131 7q110 0 176 -60t66 -164q0 -103 -64 -166.5t-170 -63.5q-7 0 -139 6q-15 4 -15 18v406zM1338 427q0 102 63.5 165t165.5 63q101 0 163.5 -63t62.5 -165q0 -101 -62.5 -163.5t-163.5 -62.5q-102 0 -165.5 63.5t-63.5 162.5zM755 598
q0 -17 -16 -17h-211v-117h159q18 0 18 -18v-30q0 -16 -18 -16h-159v-127h223q15 0 15 -15v-33q0 -18 -15 -18h-273q-17 0 -17 18v406q0 15 17 15h261q16 0 16 -15v-33zM1181 635q5 11 19 11h19q14 0 17 -15q7 -71 44 -382q0 -3 1 -13t1 -11q0 -15 -15 -15h-16q-9 -3 -22 -3
t-16 15q0 5 -1 14t-1 13q-17 140 -30 266l-104 -172q-10 -10 -19 -10h-16q-12 0 -19 10l-103 174q-21 -185 -35 -295q0 -15 -16 -15h-22l-16 3q-15 0 -15 15q0 1 1 5t1 8q41 364 44 393q3 15 18 15h20q13 0 20 -11l129 -219zM66 271q42 -5 90 -5q74 0 117 44.5t43 120.5
q0 72 -44 115t-118 43q-7 0 -88 -6v-312zM1411 427q0 -73 42 -117t112 -44q72 0 115 44t43 117q0 74 -42.5 118t-113.5 44q-72 0 -114 -44t-42 -118zM741 -93q3 -5 3 -9q0 -9 -11 -9q-17 0 -26 -3q-11 0 -18 10l-26 57q-13 -5 -35 -5h-31v-46q0 -16 -13 -16h-25
q-12 0 -12 16v218q0 12 12 15q40 4 67 4q49 0 83.5 -24t34.5 -72q0 -45 -35 -71zM806 -54q3 9 10 9q5 0 7 -2q42 -23 81 -23q46 0 46 29q0 16 -15 23t-46 12q-90 16 -90 71q0 36 27.5 55t73.5 19q38 0 90 -21q6 -7 6 -12q0 -7 -2 -9l-9 -17q-3 -6 -10 -6q-5 0 -7 2
q-40 17 -70 17q-42 0 -42 -26q0 -22 50 -31q22 -4 35.5 -7.5t31 -12t26.5 -22.5t9 -33q0 -36 -28 -56.5t-74 -20.5q-55 0 -103 25q-6 3 -6 11v6zM1192 12q0 56 37 91.5t92 35.5q58 0 95 -35.5t37 -91.5t-37 -92t-95 -36q-55 0 -92 35.5t-37 92.5zM0 120v6q0 9 11 9
q5 0 14.5 1t13.5 1q13 3 18 -9l70 -169l71 169q3 12 17 9q4 0 13.5 -1t15.5 -1q11 0 11 -9q0 -4 -3 -6l-102 -222q-6 -12 -16 -12h-13q-12 0 -16 12zM480 104q0 -15 -13 -15h-114v-55h77q13 0 13 -16v-11q0 -13 -13 -13h-77v-62h114q13 0 13 -12v-18q0 -16 -13 -16h-154
q-12 0 -12 16v222q0 13 12 13h154q13 0 13 -13v-20zM1126 -98q0 -6 -4.5 -11t-11.5 -5h-24q-15 0 -15 16v222q0 13 15 13h24q6 0 11 -4t5 -9v-222zM1690 -26v150q0 13 13 13h27q13 0 13 -13v-222q0 -16 -13 -16h-16q-10 0 -17 10l-123 151v-145q0 -6 -4 -11t-9 -5h-27
q-6 0 -10.5 5t-4.5 11v222q0 5 4.5 9t10.5 4h15q13 0 18 -9zM597 -3q22 -5 35 -5q53 0 53 51q0 22 -15 34t-38 12q-22 0 -35 -5v-87zM1321 -62q35 0 55 19t20 55q0 34 -20 54.5t-55 20.5q-33 0 -54 -21t-21 -54q0 -34 21 -54t54 -20z" />
    <glyph glyph-name="dollar" unicode="$" vert-adv-y="2063" 
d="M0 631q0 14 15 17q123 7 131 7q110 0 176 -60t66 -164q0 -103 -64 -166.5t-170 -63.5q-7 0 -139 6q-15 4 -15 18v406zM1338 427q0 102 63.5 165t165.5 63q101 0 163.5 -63t62.5 -165q0 -101 -62.5 -163.5t-163.5 -62.5q-102 0 -165.5 63.5t-63.5 162.5zM755 598
q0 -17 -16 -17h-211v-117h159q18 0 18 -18v-30q0 -16 -18 -16h-159v-127h223q15 0 15 -15v-33q0 -18 -15 -18h-273q-17 0 -17 18v406q0 15 17 15h261q16 0 16 -15v-33zM1181 635q5 11 19 11h19q14 0 17 -15q7 -71 44 -382q0 -3 1 -13t1 -11q0 -15 -15 -15h-16q-9 -3 -22 -3
t-16 15q0 5 -1 14t-1 13q-17 140 -30 266l-104 -172q-10 -10 -19 -10h-16q-12 0 -19 10l-103 174q-21 -185 -35 -295q0 -15 -16 -15h-22l-16 3q-15 0 -15 15q0 1 1 5t1 8q41 364 44 393q3 15 18 15h20q13 0 20 -11l129 -219zM66 271q42 -5 90 -5q74 0 117 44.5t43 120.5
q0 72 -44 115t-118 43q-7 0 -88 -6v-312zM1411 427q0 -73 42 -117t112 -44q72 0 115 44t43 117q0 74 -42.5 118t-113.5 44q-72 0 -114 -44t-42 -118zM741 -93q3 -5 3 -9q0 -9 -11 -9q-17 0 -26 -3q-11 0 -18 10l-26 57q-13 -5 -35 -5h-31v-46q0 -16 -13 -16h-25
q-12 0 -12 16v218q0 12 12 15q40 4 67 4q49 0 83.5 -24t34.5 -72q0 -45 -35 -71zM806 -54q3 9 10 9q5 0 7 -2q42 -23 81 -23q46 0 46 29q0 16 -15 23t-46 12q-90 16 -90 71q0 36 27.5 55t73.5 19q38 0 90 -21q6 -7 6 -12q0 -7 -2 -9l-9 -17q-3 -6 -10 -6q-5 0 -7 2
q-40 17 -70 17q-42 0 -42 -26q0 -22 50 -31q22 -4 35.5 -7.5t31 -12t26.5 -22.5t9 -33q0 -36 -28 -56.5t-74 -20.5q-55 0 -103 25q-6 3 -6 11v6zM1192 12q0 56 37 91.5t92 35.5q58 0 95 -35.5t37 -91.5t-37 -92t-95 -36q-55 0 -92 35.5t-37 92.5zM0 120v6q0 9 11 9
q5 0 14.5 1t13.5 1q13 3 18 -9l70 -169l71 169q3 12 17 9q4 0 13.5 -1t15.5 -1q11 0 11 -9q0 -4 -3 -6l-102 -222q-6 -12 -16 -12h-13q-12 0 -16 12zM480 104q0 -15 -13 -15h-114v-55h77q13 0 13 -16v-11q0 -13 -13 -13h-77v-62h114q13 0 13 -12v-18q0 -16 -13 -16h-154
q-12 0 -12 16v222q0 13 12 13h154q13 0 13 -13v-20zM1126 -98q0 -6 -4.5 -11t-11.5 -5h-24q-15 0 -15 16v222q0 13 15 13h24q6 0 11 -4t5 -9v-222zM1690 -26v150q0 13 13 13h27q13 0 13 -13v-222q0 -16 -13 -16h-16q-10 0 -17 10l-123 151v-145q0 -6 -4 -11t-9 -5h-27
q-6 0 -10.5 5t-4.5 11v222q0 5 4.5 9t10.5 4h15q13 0 18 -9zM597 -3q22 -5 35 -5q53 0 53 51q0 22 -15 34t-38 12q-22 0 -35 -5v-87zM1321 -62q35 0 55 19t20 55q0 34 -20 54.5t-55 20.5q-33 0 -54 -21t-21 -54q0 -34 21 -54t54 -20z" />
    <glyph glyph-name="percent" unicode="%" vert-adv-y="2063" 
d="M0 631q0 14 15 17q123 7 131 7q110 0 176 -60t66 -164q0 -103 -64 -166.5t-170 -63.5q-7 0 -139 6q-15 4 -15 18v406zM1338 427q0 102 63.5 165t165.5 63q101 0 163.5 -63t62.5 -165q0 -101 -62.5 -163.5t-163.5 -62.5q-102 0 -165.5 63.5t-63.5 162.5zM755 598
q0 -17 -16 -17h-211v-117h159q18 0 18 -18v-30q0 -16 -18 -16h-159v-127h223q15 0 15 -15v-33q0 -18 -15 -18h-273q-17 0 -17 18v406q0 15 17 15h261q16 0 16 -15v-33zM1181 635q5 11 19 11h19q14 0 17 -15q7 -71 44 -382q0 -3 1 -13t1 -11q0 -15 -15 -15h-16q-9 -3 -22 -3
t-16 15q0 5 -1 14t-1 13q-17 140 -30 266l-104 -172q-10 -10 -19 -10h-16q-12 0 -19 10l-103 174q-21 -185 -35 -295q0 -15 -16 -15h-22l-16 3q-15 0 -15 15q0 1 1 5t1 8q41 364 44 393q3 15 18 15h20q13 0 20 -11l129 -219zM66 271q42 -5 90 -5q74 0 117 44.5t43 120.5
q0 72 -44 115t-118 43q-7 0 -88 -6v-312zM1411 427q0 -73 42 -117t112 -44q72 0 115 44t43 117q0 74 -42.5 118t-113.5 44q-72 0 -114 -44t-42 -118zM741 -93q3 -5 3 -9q0 -9 -11 -9q-17 0 -26 -3q-11 0 -18 10l-26 57q-13 -5 -35 -5h-31v-46q0 -16 -13 -16h-25
q-12 0 -12 16v218q0 12 12 15q40 4 67 4q49 0 83.5 -24t34.5 -72q0 -45 -35 -71zM806 -54q3 9 10 9q5 0 7 -2q42 -23 81 -23q46 0 46 29q0 16 -15 23t-46 12q-90 16 -90 71q0 36 27.5 55t73.5 19q38 0 90 -21q6 -7 6 -12q0 -7 -2 -9l-9 -17q-3 -6 -10 -6q-5 0 -7 2
q-40 17 -70 17q-42 0 -42 -26q0 -22 50 -31q22 -4 35.5 -7.5t31 -12t26.5 -22.5t9 -33q0 -36 -28 -56.5t-74 -20.5q-55 0 -103 25q-6 3 -6 11v6zM1192 12q0 56 37 91.5t92 35.5q58 0 95 -35.5t37 -91.5t-37 -92t-95 -36q-55 0 -92 35.5t-37 92.5zM0 120v6q0 9 11 9
q5 0 14.5 1t13.5 1q13 3 18 -9l70 -169l71 169q3 12 17 9q4 0 13.5 -1t15.5 -1q11 0 11 -9q0 -4 -3 -6l-102 -222q-6 -12 -16 -12h-13q-12 0 -16 12zM480 104q0 -15 -13 -15h-114v-55h77q13 0 13 -16v-11q0 -13 -13 -13h-77v-62h114q13 0 13 -12v-18q0 -16 -13 -16h-154
q-12 0 -12 16v222q0 13 12 13h154q13 0 13 -13v-20zM1126 -98q0 -6 -4.5 -11t-11.5 -5h-24q-15 0 -15 16v222q0 13 15 13h24q6 0 11 -4t5 -9v-222zM1690 -26v150q0 13 13 13h27q13 0 13 -13v-222q0 -16 -13 -16h-16q-10 0 -17 10l-123 151v-145q0 -6 -4 -11t-9 -5h-27
q-6 0 -10.5 5t-4.5 11v222q0 5 4.5 9t10.5 4h15q13 0 18 -9zM597 -3q22 -5 35 -5q53 0 53 51q0 22 -15 34t-38 12q-22 0 -35 -5v-87zM1321 -62q35 0 55 19t20 55q0 34 -20 54.5t-55 20.5q-33 0 -54 -21t-21 -54q0 -34 21 -54t54 -20z" />
    <glyph glyph-name="ampersand" unicode="&#x26;" vert-adv-y="2063" 
d="M0 631q0 14 15 17q123 7 131 7q110 0 176 -60t66 -164q0 -103 -64 -166.5t-170 -63.5q-7 0 -139 6q-15 4 -15 18v406zM1338 427q0 102 63.5 165t165.5 63q101 0 163.5 -63t62.5 -165q0 -101 -62.5 -163.5t-163.5 -62.5q-102 0 -165.5 63.5t-63.5 162.5zM755 598
q0 -17 -16 -17h-211v-117h159q18 0 18 -18v-30q0 -16 -18 -16h-159v-127h223q15 0 15 -15v-33q0 -18 -15 -18h-273q-17 0 -17 18v406q0 15 17 15h261q16 0 16 -15v-33zM1181 635q5 11 19 11h19q14 0 17 -15q7 -71 44 -382q0 -3 1 -13t1 -11q0 -15 -15 -15h-16q-9 -3 -22 -3
t-16 15q0 5 -1 14t-1 13q-17 140 -30 266l-104 -172q-10 -10 -19 -10h-16q-12 0 -19 10l-103 174q-21 -185 -35 -295q0 -15 -16 -15h-22l-16 3q-15 0 -15 15q0 1 1 5t1 8q41 364 44 393q3 15 18 15h20q13 0 20 -11l129 -219zM66 271q42 -5 90 -5q74 0 117 44.5t43 120.5
q0 72 -44 115t-118 43q-7 0 -88 -6v-312zM1411 427q0 -73 42 -117t112 -44q72 0 115 44t43 117q0 74 -42.5 118t-113.5 44q-72 0 -114 -44t-42 -118zM741 -93q3 -5 3 -9q0 -9 -11 -9q-17 0 -26 -3q-11 0 -18 10l-26 57q-13 -5 -35 -5h-31v-46q0 -16 -13 -16h-25
q-12 0 -12 16v218q0 12 12 15q40 4 67 4q49 0 83.5 -24t34.5 -72q0 -45 -35 -71zM806 -54q3 9 10 9q5 0 7 -2q42 -23 81 -23q46 0 46 29q0 16 -15 23t-46 12q-90 16 -90 71q0 36 27.5 55t73.5 19q38 0 90 -21q6 -7 6 -12q0 -7 -2 -9l-9 -17q-3 -6 -10 -6q-5 0 -7 2
q-40 17 -70 17q-42 0 -42 -26q0 -22 50 -31q22 -4 35.5 -7.5t31 -12t26.5 -22.5t9 -33q0 -36 -28 -56.5t-74 -20.5q-55 0 -103 25q-6 3 -6 11v6zM1192 12q0 56 37 91.5t92 35.5q58 0 95 -35.5t37 -91.5t-37 -92t-95 -36q-55 0 -92 35.5t-37 92.5zM0 120v6q0 9 11 9
q5 0 14.5 1t13.5 1q13 3 18 -9l70 -169l71 169q3 12 17 9q4 0 13.5 -1t15.5 -1q11 0 11 -9q0 -4 -3 -6l-102 -222q-6 -12 -16 -12h-13q-12 0 -16 12zM480 104q0 -15 -13 -15h-114v-55h77q13 0 13 -16v-11q0 -13 -13 -13h-77v-62h114q13 0 13 -12v-18q0 -16 -13 -16h-154
q-12 0 -12 16v222q0 13 12 13h154q13 0 13 -13v-20zM1126 -98q0 -6 -4.5 -11t-11.5 -5h-24q-15 0 -15 16v222q0 13 15 13h24q6 0 11 -4t5 -9v-222zM1690 -26v150q0 13 13 13h27q13 0 13 -13v-222q0 -16 -13 -16h-16q-10 0 -17 10l-123 151v-145q0 -6 -4 -11t-9 -5h-27
q-6 0 -10.5 5t-4.5 11v222q0 5 4.5 9t10.5 4h15q13 0 18 -9zM597 -3q22 -5 35 -5q53 0 53 51q0 22 -15 34t-38 12q-22 0 -35 -5v-87zM1321 -62q35 0 55 19t20 55q0 34 -20 54.5t-55 20.5q-33 0 -54 -21t-21 -54q0 -34 21 -54t54 -20z" />
    <glyph glyph-name="parenleft" unicode="(" horiz-adv-x="550" vert-adv-y="2063" 
d="M47 325v877q0 133 32.5 209.5t96.5 107.5t174 31h112q24 0 39.5 -14.5t15.5 -38.5v-87q0 -49 -49 -49h-28q-36 0 -51 -15.5t-15 -51.5v-1061q0 -38 14.5 -53t51.5 -15h28q49 0 49 -49v-87q0 -24 -15.5 -39t-39.5 -15h-112q-163 0 -233 76t-70 274z" />
    <glyph glyph-name="parenright" unicode=")" horiz-adv-x="575" vert-adv-y="2063" 
d="M529 325q0 -198 -70 -274t-233 -76h-111q-24 0 -40 15t-16 39v87q0 49 50 49h28q36 0 51 15.5t15 52.5v1061q0 36 -15 51.5t-51 15.5h-28q-50 0 -50 49v87q0 24 16 38.5t40 14.5h111q110 0 174 -31t96.5 -107.5t32.5 -209.5v-877z" />
    <glyph glyph-name="asterisk" unicode="*" horiz-adv-x="983" vert-adv-y="1228" 
d="M-14 1199l34 116q13 39 47.5 49t76.5 -16l259 -129l-43 284q-11 46 9.5 76.5t60.5 30.5h122q40 0 60.5 -30.5t7.5 -76.5l-42 -284l258 129q44 26 77.5 16t45.5 -49l37 -116q12 -38 -10.5 -67t-69.5 -31l-285 -49l207 -214q39 -31 40 -68t-32 -59l-101 -72
q-31 -24 -65 -11.5t-52 55.5l-138 265l-136 -265q-19 -44 -54 -56t-66 12l-98 72q-35 23 -34 59.5t40 67.5l207 214l-283 49q-49 2 -71 31t-9 67z" />
    <glyph glyph-name="plus" unicode="+" vert-adv-y="2063" 
d="M0 631q0 14 15 17q123 7 131 7q110 0 176 -60t66 -164q0 -103 -64 -166.5t-170 -63.5q-7 0 -139 6q-15 4 -15 18v406zM1338 427q0 102 63.5 165t165.5 63q101 0 163.5 -63t62.5 -165q0 -101 -62.5 -163.5t-163.5 -62.5q-102 0 -165.5 63.5t-63.5 162.5zM755 598
q0 -17 -16 -17h-211v-117h159q18 0 18 -18v-30q0 -16 -18 -16h-159v-127h223q15 0 15 -15v-33q0 -18 -15 -18h-273q-17 0 -17 18v406q0 15 17 15h261q16 0 16 -15v-33zM1181 635q5 11 19 11h19q14 0 17 -15q7 -71 44 -382q0 -3 1 -13t1 -11q0 -15 -15 -15h-16q-9 -3 -22 -3
t-16 15q0 5 -1 14t-1 13q-17 140 -30 266l-104 -172q-10 -10 -19 -10h-16q-12 0 -19 10l-103 174q-21 -185 -35 -295q0 -15 -16 -15h-22l-16 3q-15 0 -15 15q0 1 1 5t1 8q41 364 44 393q3 15 18 15h20q13 0 20 -11l129 -219zM66 271q42 -5 90 -5q74 0 117 44.5t43 120.5
q0 72 -44 115t-118 43q-7 0 -88 -6v-312zM1411 427q0 -73 42 -117t112 -44q72 0 115 44t43 117q0 74 -42.5 118t-113.5 44q-72 0 -114 -44t-42 -118zM741 -93q3 -5 3 -9q0 -9 -11 -9q-17 0 -26 -3q-11 0 -18 10l-26 57q-13 -5 -35 -5h-31v-46q0 -16 -13 -16h-25
q-12 0 -12 16v218q0 12 12 15q40 4 67 4q49 0 83.5 -24t34.5 -72q0 -45 -35 -71zM806 -54q3 9 10 9q5 0 7 -2q42 -23 81 -23q46 0 46 29q0 16 -15 23t-46 12q-90 16 -90 71q0 36 27.5 55t73.5 19q38 0 90 -21q6 -7 6 -12q0 -7 -2 -9l-9 -17q-3 -6 -10 -6q-5 0 -7 2
q-40 17 -70 17q-42 0 -42 -26q0 -22 50 -31q22 -4 35.5 -7.5t31 -12t26.5 -22.5t9 -33q0 -36 -28 -56.5t-74 -20.5q-55 0 -103 25q-6 3 -6 11v6zM1192 12q0 56 37 91.5t92 35.5q58 0 95 -35.5t37 -91.5t-37 -92t-95 -36q-55 0 -92 35.5t-37 92.5zM0 120v6q0 9 11 9
q5 0 14.5 1t13.5 1q13 3 18 -9l70 -169l71 169q3 12 17 9q4 0 13.5 -1t15.5 -1q11 0 11 -9q0 -4 -3 -6l-102 -222q-6 -12 -16 -12h-13q-12 0 -16 12zM480 104q0 -15 -13 -15h-114v-55h77q13 0 13 -16v-11q0 -13 -13 -13h-77v-62h114q13 0 13 -12v-18q0 -16 -13 -16h-154
q-12 0 -12 16v222q0 13 12 13h154q13 0 13 -13v-20zM1126 -98q0 -6 -4.5 -11t-11.5 -5h-24q-15 0 -15 16v222q0 13 15 13h24q6 0 11 -4t5 -9v-222zM1690 -26v150q0 13 13 13h27q13 0 13 -13v-222q0 -16 -13 -16h-16q-10 0 -17 10l-123 151v-145q0 -6 -4 -11t-9 -5h-27
q-6 0 -10.5 5t-4.5 11v222q0 5 4.5 9t10.5 4h15q13 0 18 -9zM597 -3q22 -5 35 -5q53 0 53 51q0 22 -15 34t-38 12q-22 0 -35 -5v-87zM1321 -62q35 0 55 19t20 55q0 34 -20 54.5t-55 20.5q-33 0 -54 -21t-21 -54q0 -34 21 -54t54 -20z" />
    <glyph glyph-name="comma" unicode="," horiz-adv-x="438" vert-adv-y="2063" 
d="M69 259q0 39 25.5 65.5t64.5 26.5h127q39 0 66 -26.5t27 -65.5v-153q0 -43 -22 -122l-64 -215q-15 -37 -51 -37h-131q-24 0 -41 17.5t-16 41.5l13 203q2 32 2 51v214z" />
    <glyph glyph-name="hyphen" unicode="-" vert-adv-y="2063" 
d="M0 631q0 14 15 17q123 7 131 7q110 0 176 -60t66 -164q0 -103 -64 -166.5t-170 -63.5q-7 0 -139 6q-15 4 -15 18v406zM1338 427q0 102 63.5 165t165.5 63q101 0 163.5 -63t62.5 -165q0 -101 -62.5 -163.5t-163.5 -62.5q-102 0 -165.5 63.5t-63.5 162.5zM755 598
q0 -17 -16 -17h-211v-117h159q18 0 18 -18v-30q0 -16 -18 -16h-159v-127h223q15 0 15 -15v-33q0 -18 -15 -18h-273q-17 0 -17 18v406q0 15 17 15h261q16 0 16 -15v-33zM1181 635q5 11 19 11h19q14 0 17 -15q7 -71 44 -382q0 -3 1 -13t1 -11q0 -15 -15 -15h-16q-9 -3 -22 -3
t-16 15q0 5 -1 14t-1 13q-17 140 -30 266l-104 -172q-10 -10 -19 -10h-16q-12 0 -19 10l-103 174q-21 -185 -35 -295q0 -15 -16 -15h-22l-16 3q-15 0 -15 15q0 1 1 5t1 8q41 364 44 393q3 15 18 15h20q13 0 20 -11l129 -219zM66 271q42 -5 90 -5q74 0 117 44.5t43 120.5
q0 72 -44 115t-118 43q-7 0 -88 -6v-312zM1411 427q0 -73 42 -117t112 -44q72 0 115 44t43 117q0 74 -42.5 118t-113.5 44q-72 0 -114 -44t-42 -118zM741 -93q3 -5 3 -9q0 -9 -11 -9q-17 0 -26 -3q-11 0 -18 10l-26 57q-13 -5 -35 -5h-31v-46q0 -16 -13 -16h-25
q-12 0 -12 16v218q0 12 12 15q40 4 67 4q49 0 83.5 -24t34.5 -72q0 -45 -35 -71zM806 -54q3 9 10 9q5 0 7 -2q42 -23 81 -23q46 0 46 29q0 16 -15 23t-46 12q-90 16 -90 71q0 36 27.5 55t73.5 19q38 0 90 -21q6 -7 6 -12q0 -7 -2 -9l-9 -17q-3 -6 -10 -6q-5 0 -7 2
q-40 17 -70 17q-42 0 -42 -26q0 -22 50 -31q22 -4 35.5 -7.5t31 -12t26.5 -22.5t9 -33q0 -36 -28 -56.5t-74 -20.5q-55 0 -103 25q-6 3 -6 11v6zM1192 12q0 56 37 91.5t92 35.5q58 0 95 -35.5t37 -91.5t-37 -92t-95 -36q-55 0 -92 35.5t-37 92.5zM0 120v6q0 9 11 9
q5 0 14.5 1t13.5 1q13 3 18 -9l70 -169l71 169q3 12 17 9q4 0 13.5 -1t15.5 -1q11 0 11 -9q0 -4 -3 -6l-102 -222q-6 -12 -16 -12h-13q-12 0 -16 12zM480 104q0 -15 -13 -15h-114v-55h77q13 0 13 -16v-11q0 -13 -13 -13h-77v-62h114q13 0 13 -12v-18q0 -16 -13 -16h-154
q-12 0 -12 16v222q0 13 12 13h154q13 0 13 -13v-20zM1126 -98q0 -6 -4.5 -11t-11.5 -5h-24q-15 0 -15 16v222q0 13 15 13h24q6 0 11 -4t5 -9v-222zM1690 -26v150q0 13 13 13h27q13 0 13 -13v-222q0 -16 -13 -16h-16q-10 0 -17 10l-123 151v-145q0 -6 -4 -11t-9 -5h-27
q-6 0 -10.5 5t-4.5 11v222q0 5 4.5 9t10.5 4h15q13 0 18 -9zM597 -3q22 -5 35 -5q53 0 53 51q0 22 -15 34t-38 12q-22 0 -35 -5v-87zM1321 -62q35 0 55 19t20 55q0 34 -20 54.5t-55 20.5q-33 0 -54 -21t-21 -54q0 -34 21 -54t54 -20z" />
    <glyph glyph-name="period" unicode="." horiz-adv-x="447" vert-adv-y="1228" 
d="M58 259q0 39 27 65.5t67 26.5h143q41 0 67 -26.5t26 -65.5v-166q0 -40 -26 -66.5t-67 -26.5h-143q-40 0 -67 27t-27 66v166z" />
    <glyph glyph-name="slash" unicode="/" vert-adv-y="2063" 
d="M0 631q0 14 15 17q123 7 131 7q110 0 176 -60t66 -164q0 -103 -64 -166.5t-170 -63.5q-7 0 -139 6q-15 4 -15 18v406zM1338 427q0 102 63.5 165t165.5 63q101 0 163.5 -63t62.5 -165q0 -101 -62.5 -163.5t-163.5 -62.5q-102 0 -165.5 63.5t-63.5 162.5zM755 598
q0 -17 -16 -17h-211v-117h159q18 0 18 -18v-30q0 -16 -18 -16h-159v-127h223q15 0 15 -15v-33q0 -18 -15 -18h-273q-17 0 -17 18v406q0 15 17 15h261q16 0 16 -15v-33zM1181 635q5 11 19 11h19q14 0 17 -15q7 -71 44 -382q0 -3 1 -13t1 -11q0 -15 -15 -15h-16q-9 -3 -22 -3
t-16 15q0 5 -1 14t-1 13q-17 140 -30 266l-104 -172q-10 -10 -19 -10h-16q-12 0 -19 10l-103 174q-21 -185 -35 -295q0 -15 -16 -15h-22l-16 3q-15 0 -15 15q0 1 1 5t1 8q41 364 44 393q3 15 18 15h20q13 0 20 -11l129 -219zM66 271q42 -5 90 -5q74 0 117 44.5t43 120.5
q0 72 -44 115t-118 43q-7 0 -88 -6v-312zM1411 427q0 -73 42 -117t112 -44q72 0 115 44t43 117q0 74 -42.5 118t-113.5 44q-72 0 -114 -44t-42 -118zM741 -93q3 -5 3 -9q0 -9 -11 -9q-17 0 -26 -3q-11 0 -18 10l-26 57q-13 -5 -35 -5h-31v-46q0 -16 -13 -16h-25
q-12 0 -12 16v218q0 12 12 15q40 4 67 4q49 0 83.5 -24t34.5 -72q0 -45 -35 -71zM806 -54q3 9 10 9q5 0 7 -2q42 -23 81 -23q46 0 46 29q0 16 -15 23t-46 12q-90 16 -90 71q0 36 27.5 55t73.5 19q38 0 90 -21q6 -7 6 -12q0 -7 -2 -9l-9 -17q-3 -6 -10 -6q-5 0 -7 2
q-40 17 -70 17q-42 0 -42 -26q0 -22 50 -31q22 -4 35.5 -7.5t31 -12t26.5 -22.5t9 -33q0 -36 -28 -56.5t-74 -20.5q-55 0 -103 25q-6 3 -6 11v6zM1192 12q0 56 37 91.5t92 35.5q58 0 95 -35.5t37 -91.5t-37 -92t-95 -36q-55 0 -92 35.5t-37 92.5zM0 120v6q0 9 11 9
q5 0 14.5 1t13.5 1q13 3 18 -9l70 -169l71 169q3 12 17 9q4 0 13.5 -1t15.5 -1q11 0 11 -9q0 -4 -3 -6l-102 -222q-6 -12 -16 -12h-13q-12 0 -16 12zM480 104q0 -15 -13 -15h-114v-55h77q13 0 13 -16v-11q0 -13 -13 -13h-77v-62h114q13 0 13 -12v-18q0 -16 -13 -16h-154
q-12 0 -12 16v222q0 13 12 13h154q13 0 13 -13v-20zM1126 -98q0 -6 -4.5 -11t-11.5 -5h-24q-15 0 -15 16v222q0 13 15 13h24q6 0 11 -4t5 -9v-222zM1690 -26v150q0 13 13 13h27q13 0 13 -13v-222q0 -16 -13 -16h-16q-10 0 -17 10l-123 151v-145q0 -6 -4 -11t-9 -5h-27
q-6 0 -10.5 5t-4.5 11v222q0 5 4.5 9t10.5 4h15q13 0 18 -9zM597 -3q22 -5 35 -5q53 0 53 51q0 22 -15 34t-38 12q-22 0 -35 -5v-87zM1321 -62q35 0 55 19t20 55q0 34 -20 54.5t-55 20.5q-33 0 -54 -21t-21 -54q0 -34 21 -54t54 -20z" />
    <glyph glyph-name="zero" unicode="0" horiz-adv-x="1030" vert-adv-y="1228" 
d="M59 750q0 118 2 191.5t8.5 159t19.5 135.5t35.5 104t55.5 82.5t80.5 53.5t110 34.5t144.5 9.5q80 0 141.5 -9t109 -33t80.5 -52t56 -80.5t36 -103t20.5 -135.5t9.5 -161t3 -196q1 -121 -0.5 -196t-8 -161t-19 -135t-35 -102.5t-55.5 -80.5t-81.5 -51.5t-111 -33
t-145.5 -8.5q-81 0 -142.5 9t-109 32.5t-80.5 51t-56 80t-36 102.5t-20 135t-9.5 161.5t-2.5 196.5zM398 1026v-558q0 -121 22.5 -174t94.5 -53q38 0 62 14t35.5 46t15.5 69t4 98v560q0 53 -2 86t-8.5 64t-19 47.5t-33.5 26t-52 9.5q-76 0 -97.5 -52t-21.5 -183zM443 857
h137v-202h-137v202z" />
    <glyph glyph-name="one" unicode="1" horiz-adv-x="642" vert-adv-y="1228" 
d="M16 1187q-1 33 9.5 49t37.5 35l230 170q6 4 22.5 14.5t20 12.5t16 9t16.5 8t14.5 5t18.5 4.5t19.5 1.5t24.5 1q74 0 99.5 -19.5t25.5 -73.5v-1302q0 -55 -18.5 -78.5t-68.5 -23.5h-159q-45 0 -62.5 25.5t-17.5 84.5v1027l-167 -8q-58 -3 -61 58z" />
    <glyph glyph-name="two" unicode="2" horiz-adv-x="909" vert-adv-y="1838" 
d="M41 1181q0 176 108 257.5t315 81.5q204 0 303 -89t99 -253q0 -103 -13 -183t-43.5 -147t-65.5 -118t-93 -118l-256 -325h413q23 0 39.5 -17.5t16.5 -40.5v-173q0 -24 -16.5 -40t-39.5 -16h-621q-65 0 -100.5 37t-35.5 98v80q0 69 39.5 137.5t133.5 191.5l202 265
q39 50 53 69.5t40 64.5t36.5 88.5t10.5 94.5v15q0 63 -22.5 91.5t-82.5 28.5t-85.5 -27.5t-26.5 -81.5v-22q-1 -38 -16.5 -50.5t-48.5 -12.5h-183q-37 0 -48.5 21t-11.5 76v17z" />
    <glyph glyph-name="three" unicode="3" horiz-adv-x="966" vert-adv-y="1228" 
d="M41 366q0 53 10.5 71t48.5 18h185q25 0 39 -3.5t25.5 -21.5t11.5 -52v-36q0 -48 25.5 -74.5t88.5 -26.5q62 0 87.5 26t25.5 76v108q0 108 -41.5 157.5t-111.5 49.5h-108q-24 0 -41.5 16.5t-17.5 40.5v102q0 24 17.5 40t41.5 16h110q72 0 111.5 44.5t39.5 149.5v66
q0 65 -25.5 96t-87.5 32q-63 1 -88 -29.5t-26 -94.5v-15q-1 -26 -6.5 -41.5t-17.5 -22.5t-22.5 -9t-29.5 -2h-185q-36 0 -47.5 12t-11.5 35q0 104 21 180t57 123t92.5 75t119 38t146.5 10q103 0 181 -20t127.5 -54t80.5 -85.5t43.5 -109t12.5 -129.5q0 -157 -53.5 -240.5
t-166.5 -107.5q112 -26 166.5 -117.5t55.5 -259.5q1 -102 -18.5 -174.5t-68 -129t-137 -84t-219.5 -27.5q-84 0 -147.5 9.5t-120.5 35t-93.5 68.5t-57.5 111t-21 160z" />
    <glyph glyph-name="four" unicode="4" vert-adv-y="2063" 
d="M0 631q0 14 15 17q123 7 131 7q110 0 176 -60t66 -164q0 -103 -64 -166.5t-170 -63.5q-7 0 -139 6q-15 4 -15 18v406zM1338 427q0 102 63.5 165t165.5 63q101 0 163.5 -63t62.5 -165q0 -101 -62.5 -163.5t-163.5 -62.5q-102 0 -165.5 63.5t-63.5 162.5zM755 598
q0 -17 -16 -17h-211v-117h159q18 0 18 -18v-30q0 -16 -18 -16h-159v-127h223q15 0 15 -15v-33q0 -18 -15 -18h-273q-17 0 -17 18v406q0 15 17 15h261q16 0 16 -15v-33zM1181 635q5 11 19 11h19q14 0 17 -15q7 -71 44 -382q0 -3 1 -13t1 -11q0 -15 -15 -15h-16q-9 -3 -22 -3
t-16 15q0 5 -1 14t-1 13q-17 140 -30 266l-104 -172q-10 -10 -19 -10h-16q-12 0 -19 10l-103 174q-21 -185 -35 -295q0 -15 -16 -15h-22l-16 3q-15 0 -15 15q0 1 1 5t1 8q41 364 44 393q3 15 18 15h20q13 0 20 -11l129 -219zM66 271q42 -5 90 -5q74 0 117 44.5t43 120.5
q0 72 -44 115t-118 43q-7 0 -88 -6v-312zM1411 427q0 -73 42 -117t112 -44q72 0 115 44t43 117q0 74 -42.5 118t-113.5 44q-72 0 -114 -44t-42 -118zM741 -93q3 -5 3 -9q0 -9 -11 -9q-17 0 -26 -3q-11 0 -18 10l-26 57q-13 -5 -35 -5h-31v-46q0 -16 -13 -16h-25
q-12 0 -12 16v218q0 12 12 15q40 4 67 4q49 0 83.5 -24t34.5 -72q0 -45 -35 -71zM806 -54q3 9 10 9q5 0 7 -2q42 -23 81 -23q46 0 46 29q0 16 -15 23t-46 12q-90 16 -90 71q0 36 27.5 55t73.5 19q38 0 90 -21q6 -7 6 -12q0 -7 -2 -9l-9 -17q-3 -6 -10 -6q-5 0 -7 2
q-40 17 -70 17q-42 0 -42 -26q0 -22 50 -31q22 -4 35.5 -7.5t31 -12t26.5 -22.5t9 -33q0 -36 -28 -56.5t-74 -20.5q-55 0 -103 25q-6 3 -6 11v6zM1192 12q0 56 37 91.5t92 35.5q58 0 95 -35.5t37 -91.5t-37 -92t-95 -36q-55 0 -92 35.5t-37 92.5zM0 120v6q0 9 11 9
q5 0 14.5 1t13.5 1q13 3 18 -9l70 -169l71 169q3 12 17 9q4 0 13.5 -1t15.5 -1q11 0 11 -9q0 -4 -3 -6l-102 -222q-6 -12 -16 -12h-13q-12 0 -16 12zM480 104q0 -15 -13 -15h-114v-55h77q13 0 13 -16v-11q0 -13 -13 -13h-77v-62h114q13 0 13 -12v-18q0 -16 -13 -16h-154
q-12 0 -12 16v222q0 13 12 13h154q13 0 13 -13v-20zM1126 -98q0 -6 -4.5 -11t-11.5 -5h-24q-15 0 -15 16v222q0 13 15 13h24q6 0 11 -4t5 -9v-222zM1690 -26v150q0 13 13 13h27q13 0 13 -13v-222q0 -16 -13 -16h-16q-10 0 -17 10l-123 151v-145q0 -6 -4 -11t-9 -5h-27
q-6 0 -10.5 5t-4.5 11v222q0 5 4.5 9t10.5 4h15q13 0 18 -9zM597 -3q22 -5 35 -5q53 0 53 51q0 22 -15 34t-38 12q-22 0 -35 -5v-87zM1321 -62q35 0 55 19t20 55q0 34 -20 54.5t-55 20.5q-33 0 -54 -21t-21 -54q0 -34 21 -54t54 -20z" />
    <glyph glyph-name="five" unicode="5" horiz-adv-x="986" vert-adv-y="1228" 
d="M67 403q0 25 12.5 37.5t48.5 12.5h184q18 0 29.5 -2t23.5 -9t18 -23.5t6 -42.5v-14q0 -63 24 -92t87 -29q66 0 91.5 30.5t25.5 101.5v230q0 87 -27.5 123.5t-90.5 36.5q-53 0 -79.5 -26t-26.5 -61v-1q0 -51 -43 -51h-217q-47 0 -47 48v717q0 62 24.5 85t84.5 23h648
q24 0 41 -17t17 -41v-171q0 -23 -17 -40.5t-41 -17.5h-475v-238q70 47 197 47q58 0 104.5 -8.5t92 -30t78.5 -59.5t59 -94t40 -138.5t14 -187.5q1 -146 -18.5 -240t-70.5 -158.5t-137 -92t-220 -27.5q-108 0 -184.5 18.5t-136.5 64t-89.5 129.5t-29.5 208z" />
    <glyph glyph-name="six" unicode="6" horiz-adv-x="989" vert-adv-y="1228" 
d="M57 406v737q0 377 421 377q100 0 175.5 -17t134.5 -55.5t89.5 -107t30.5 -165.5q0 -62 -11.5 -84.5t-49.5 -22.5h-180q-34 0 -50.5 13t-16.5 52v31q0 43 -26 70t-84 27t-84 -29.5t-26 -74.5v-239q61 57 204 57q65 0 114 -11t97 -43t79 -87t50 -147.5t19 -218.5
q0 -129 -19 -215t-68.5 -149.5t-136.5 -92.5t-220 -29q-84 0 -147 10t-121 37.5t-94.5 74t-58 122.5t-21.5 180zM380 378q0 -68 26 -102.5t92 -34.5q63 0 86 33t23 113v196q0 70 -23 98t-86 28q-118 0 -118 -109v-222z" />
    <glyph glyph-name="seven" unicode="7" horiz-adv-x="904" vert-adv-y="1228" 
d="M18 1268v171q0 24 16.5 41t40.5 17h728q83 0 83 -76q0 -24 -9 -55l-393 -1306q-18 -60 -92 -60h-179q-45 0 -59.5 25t-0.5 66l337 1119h-409q-28 0 -45.5 17t-17.5 41z" />
    <glyph glyph-name="eight" unicode="8" horiz-adv-x="979" vert-adv-y="1228" 
d="M36 408q1 159 46.5 249t162.5 117q-208 43 -208 338q0 228 104 318t348 90q132 0 220 -25t138.5 -78t71 -125t20.5 -176q0 -142 -48 -230.5t-163 -111.5q120 -24 165.5 -114.5t47.5 -260.5q2 -122 -22.5 -202.5t-82 -128t-140 -67t-207.5 -19.5q-136 0 -225.5 25
t-140 80.5t-69.5 131.5t-18 189zM370 1031q0 -132 102 -132h27q60 0 83.5 33.5t23.5 99.5v85q0 78 -26 111t-92 33q-69 0 -93.5 -32.5t-24.5 -112.5v-85zM370 381q0 -77 25.5 -108.5t93.5 -31.5q69 0 93.5 30.5t24.5 107.5v110q0 75 -24.5 108.5t-83.5 33.5h-24
q-105 0 -105 -139v-111z" />
    <glyph glyph-name="nine" unicode="9" horiz-adv-x="989" vert-adv-y="1228" 
d="M46 1033q0 129 19 215t68.5 150t136.5 93t220 29q84 0 147 -10t121 -37.5t94.5 -74t58 -122.5t21.5 -180v-738q0 -376 -421 -376q-100 0 -175.5 17t-134.5 55.5t-89.5 107t-30.5 165.5q0 62 11.5 84t49.5 22h181q34 0 50 -12.5t16 -51.5v-32q0 -96 110 -96q58 0 84 29
t26 74v240q-62 -58 -203 -58q-65 0 -114.5 11t-97.5 43t-79 87t-50 147.5t-19 218.5zM609 1123q0 69 -25.5 103.5t-91.5 34.5q-63 0 -86.5 -33.5t-23.5 -113.5v-195q0 -70 23.5 -98t86.5 -28q58 0 87.5 25.5t29.5 82.5v222z" />
    <glyph glyph-name="colon" unicode=":" horiz-adv-x="447" vert-adv-y="1228" 
d="M58 824q0 40 27 67t67 27h143q41 0 67 -26.5t26 -67.5v-166q0 -39 -26 -65.5t-67 -26.5h-143q-40 0 -67 26.5t-27 65.5v166zM58 259q0 39 27 65.5t67 26.5h143q41 0 67 -26.5t26 -65.5v-166q0 -40 -26 -66.5t-67 -26.5h-143q-40 0 -67 27t-27 66v166z" />
    <glyph glyph-name="semicolon" unicode=";" horiz-adv-x="415" vert-adv-y="2063" 
d="M50 824q0 40 27 67t66 27h127q40 0 67 -27t27 -67v-166q0 -39 -27 -65.5t-67 -26.5h-127q-39 0 -66 26.5t-27 65.5v166zM60 259q0 39 26 65.5t65 26.5h127q40 0 66.5 -26.5t26.5 -65.5v-153q0 -43 -22 -122l-64 -215q-6 -17 -20 -27t-31 -10h-132q-24 0 -40 17.5
t-16 41.5l13 203q0 8 0.5 25.5t0.5 25.5v214z" />
    <glyph glyph-name="less" unicode="&#x3c;" vert-adv-y="2063" 
d="M0 631q0 14 15 17q123 7 131 7q110 0 176 -60t66 -164q0 -103 -64 -166.5t-170 -63.5q-7 0 -139 6q-15 4 -15 18v406zM1338 427q0 102 63.5 165t165.5 63q101 0 163.5 -63t62.5 -165q0 -101 -62.5 -163.5t-163.5 -62.5q-102 0 -165.5 63.5t-63.5 162.5zM755 598
q0 -17 -16 -17h-211v-117h159q18 0 18 -18v-30q0 -16 -18 -16h-159v-127h223q15 0 15 -15v-33q0 -18 -15 -18h-273q-17 0 -17 18v406q0 15 17 15h261q16 0 16 -15v-33zM1181 635q5 11 19 11h19q14 0 17 -15q7 -71 44 -382q0 -3 1 -13t1 -11q0 -15 -15 -15h-16q-9 -3 -22 -3
t-16 15q0 5 -1 14t-1 13q-17 140 -30 266l-104 -172q-10 -10 -19 -10h-16q-12 0 -19 10l-103 174q-21 -185 -35 -295q0 -15 -16 -15h-22l-16 3q-15 0 -15 15q0 1 1 5t1 8q41 364 44 393q3 15 18 15h20q13 0 20 -11l129 -219zM66 271q42 -5 90 -5q74 0 117 44.5t43 120.5
q0 72 -44 115t-118 43q-7 0 -88 -6v-312zM1411 427q0 -73 42 -117t112 -44q72 0 115 44t43 117q0 74 -42.5 118t-113.5 44q-72 0 -114 -44t-42 -118zM741 -93q3 -5 3 -9q0 -9 -11 -9q-17 0 -26 -3q-11 0 -18 10l-26 57q-13 -5 -35 -5h-31v-46q0 -16 -13 -16h-25
q-12 0 -12 16v218q0 12 12 15q40 4 67 4q49 0 83.5 -24t34.5 -72q0 -45 -35 -71zM806 -54q3 9 10 9q5 0 7 -2q42 -23 81 -23q46 0 46 29q0 16 -15 23t-46 12q-90 16 -90 71q0 36 27.5 55t73.5 19q38 0 90 -21q6 -7 6 -12q0 -7 -2 -9l-9 -17q-3 -6 -10 -6q-5 0 -7 2
q-40 17 -70 17q-42 0 -42 -26q0 -22 50 -31q22 -4 35.5 -7.5t31 -12t26.5 -22.5t9 -33q0 -36 -28 -56.5t-74 -20.5q-55 0 -103 25q-6 3 -6 11v6zM1192 12q0 56 37 91.5t92 35.5q58 0 95 -35.5t37 -91.5t-37 -92t-95 -36q-55 0 -92 35.5t-37 92.5zM0 120v6q0 9 11 9
q5 0 14.5 1t13.5 1q13 3 18 -9l70 -169l71 169q3 12 17 9q4 0 13.5 -1t15.5 -1q11 0 11 -9q0 -4 -3 -6l-102 -222q-6 -12 -16 -12h-13q-12 0 -16 12zM480 104q0 -15 -13 -15h-114v-55h77q13 0 13 -16v-11q0 -13 -13 -13h-77v-62h114q13 0 13 -12v-18q0 -16 -13 -16h-154
q-12 0 -12 16v222q0 13 12 13h154q13 0 13 -13v-20zM1126 -98q0 -6 -4.5 -11t-11.5 -5h-24q-15 0 -15 16v222q0 13 15 13h24q6 0 11 -4t5 -9v-222zM1690 -26v150q0 13 13 13h27q13 0 13 -13v-222q0 -16 -13 -16h-16q-10 0 -17 10l-123 151v-145q0 -6 -4 -11t-9 -5h-27
q-6 0 -10.5 5t-4.5 11v222q0 5 4.5 9t10.5 4h15q13 0 18 -9zM597 -3q22 -5 35 -5q53 0 53 51q0 22 -15 34t-38 12q-22 0 -35 -5v-87zM1321 -62q35 0 55 19t20 55q0 34 -20 54.5t-55 20.5q-33 0 -54 -21t-21 -54q0 -34 21 -54t54 -20z" />
    <glyph glyph-name="equal" unicode="=" vert-adv-y="2063" 
d="M0 631q0 14 15 17q123 7 131 7q110 0 176 -60t66 -164q0 -103 -64 -166.5t-170 -63.5q-7 0 -139 6q-15 4 -15 18v406zM1338 427q0 102 63.5 165t165.5 63q101 0 163.5 -63t62.5 -165q0 -101 -62.5 -163.5t-163.5 -62.5q-102 0 -165.5 63.5t-63.5 162.5zM755 598
q0 -17 -16 -17h-211v-117h159q18 0 18 -18v-30q0 -16 -18 -16h-159v-127h223q15 0 15 -15v-33q0 -18 -15 -18h-273q-17 0 -17 18v406q0 15 17 15h261q16 0 16 -15v-33zM1181 635q5 11 19 11h19q14 0 17 -15q7 -71 44 -382q0 -3 1 -13t1 -11q0 -15 -15 -15h-16q-9 -3 -22 -3
t-16 15q0 5 -1 14t-1 13q-17 140 -30 266l-104 -172q-10 -10 -19 -10h-16q-12 0 -19 10l-103 174q-21 -185 -35 -295q0 -15 -16 -15h-22l-16 3q-15 0 -15 15q0 1 1 5t1 8q41 364 44 393q3 15 18 15h20q13 0 20 -11l129 -219zM66 271q42 -5 90 -5q74 0 117 44.5t43 120.5
q0 72 -44 115t-118 43q-7 0 -88 -6v-312zM1411 427q0 -73 42 -117t112 -44q72 0 115 44t43 117q0 74 -42.5 118t-113.5 44q-72 0 -114 -44t-42 -118zM741 -93q3 -5 3 -9q0 -9 -11 -9q-17 0 -26 -3q-11 0 -18 10l-26 57q-13 -5 -35 -5h-31v-46q0 -16 -13 -16h-25
q-12 0 -12 16v218q0 12 12 15q40 4 67 4q49 0 83.5 -24t34.5 -72q0 -45 -35 -71zM806 -54q3 9 10 9q5 0 7 -2q42 -23 81 -23q46 0 46 29q0 16 -15 23t-46 12q-90 16 -90 71q0 36 27.5 55t73.5 19q38 0 90 -21q6 -7 6 -12q0 -7 -2 -9l-9 -17q-3 -6 -10 -6q-5 0 -7 2
q-40 17 -70 17q-42 0 -42 -26q0 -22 50 -31q22 -4 35.5 -7.5t31 -12t26.5 -22.5t9 -33q0 -36 -28 -56.5t-74 -20.5q-55 0 -103 25q-6 3 -6 11v6zM1192 12q0 56 37 91.5t92 35.5q58 0 95 -35.5t37 -91.5t-37 -92t-95 -36q-55 0 -92 35.5t-37 92.5zM0 120v6q0 9 11 9
q5 0 14.5 1t13.5 1q13 3 18 -9l70 -169l71 169q3 12 17 9q4 0 13.5 -1t15.5 -1q11 0 11 -9q0 -4 -3 -6l-102 -222q-6 -12 -16 -12h-13q-12 0 -16 12zM480 104q0 -15 -13 -15h-114v-55h77q13 0 13 -16v-11q0 -13 -13 -13h-77v-62h114q13 0 13 -12v-18q0 -16 -13 -16h-154
q-12 0 -12 16v222q0 13 12 13h154q13 0 13 -13v-20zM1126 -98q0 -6 -4.5 -11t-11.5 -5h-24q-15 0 -15 16v222q0 13 15 13h24q6 0 11 -4t5 -9v-222zM1690 -26v150q0 13 13 13h27q13 0 13 -13v-222q0 -16 -13 -16h-16q-10 0 -17 10l-123 151v-145q0 -6 -4 -11t-9 -5h-27
q-6 0 -10.5 5t-4.5 11v222q0 5 4.5 9t10.5 4h15q13 0 18 -9zM597 -3q22 -5 35 -5q53 0 53 51q0 22 -15 34t-38 12q-22 0 -35 -5v-87zM1321 -62q35 0 55 19t20 55q0 34 -20 54.5t-55 20.5q-33 0 -54 -21t-21 -54q0 -34 21 -54t54 -20z" />
    <glyph glyph-name="greater" unicode="&#x3e;" vert-adv-y="2063" 
d="M0 631q0 14 15 17q123 7 131 7q110 0 176 -60t66 -164q0 -103 -64 -166.5t-170 -63.5q-7 0 -139 6q-15 4 -15 18v406zM1338 427q0 102 63.5 165t165.5 63q101 0 163.5 -63t62.5 -165q0 -101 -62.5 -163.5t-163.5 -62.5q-102 0 -165.5 63.5t-63.5 162.5zM755 598
q0 -17 -16 -17h-211v-117h159q18 0 18 -18v-30q0 -16 -18 -16h-159v-127h223q15 0 15 -15v-33q0 -18 -15 -18h-273q-17 0 -17 18v406q0 15 17 15h261q16 0 16 -15v-33zM1181 635q5 11 19 11h19q14 0 17 -15q7 -71 44 -382q0 -3 1 -13t1 -11q0 -15 -15 -15h-16q-9 -3 -22 -3
t-16 15q0 5 -1 14t-1 13q-17 140 -30 266l-104 -172q-10 -10 -19 -10h-16q-12 0 -19 10l-103 174q-21 -185 -35 -295q0 -15 -16 -15h-22l-16 3q-15 0 -15 15q0 1 1 5t1 8q41 364 44 393q3 15 18 15h20q13 0 20 -11l129 -219zM66 271q42 -5 90 -5q74 0 117 44.5t43 120.5
q0 72 -44 115t-118 43q-7 0 -88 -6v-312zM1411 427q0 -73 42 -117t112 -44q72 0 115 44t43 117q0 74 -42.5 118t-113.5 44q-72 0 -114 -44t-42 -118zM741 -93q3 -5 3 -9q0 -9 -11 -9q-17 0 -26 -3q-11 0 -18 10l-26 57q-13 -5 -35 -5h-31v-46q0 -16 -13 -16h-25
q-12 0 -12 16v218q0 12 12 15q40 4 67 4q49 0 83.5 -24t34.5 -72q0 -45 -35 -71zM806 -54q3 9 10 9q5 0 7 -2q42 -23 81 -23q46 0 46 29q0 16 -15 23t-46 12q-90 16 -90 71q0 36 27.5 55t73.5 19q38 0 90 -21q6 -7 6 -12q0 -7 -2 -9l-9 -17q-3 -6 -10 -6q-5 0 -7 2
q-40 17 -70 17q-42 0 -42 -26q0 -22 50 -31q22 -4 35.5 -7.5t31 -12t26.5 -22.5t9 -33q0 -36 -28 -56.5t-74 -20.5q-55 0 -103 25q-6 3 -6 11v6zM1192 12q0 56 37 91.5t92 35.5q58 0 95 -35.5t37 -91.5t-37 -92t-95 -36q-55 0 -92 35.5t-37 92.5zM0 120v6q0 9 11 9
q5 0 14.5 1t13.5 1q13 3 18 -9l70 -169l71 169q3 12 17 9q4 0 13.5 -1t15.5 -1q11 0 11 -9q0 -4 -3 -6l-102 -222q-6 -12 -16 -12h-13q-12 0 -16 12zM480 104q0 -15 -13 -15h-114v-55h77q13 0 13 -16v-11q0 -13 -13 -13h-77v-62h114q13 0 13 -12v-18q0 -16 -13 -16h-154
q-12 0 -12 16v222q0 13 12 13h154q13 0 13 -13v-20zM1126 -98q0 -6 -4.5 -11t-11.5 -5h-24q-15 0 -15 16v222q0 13 15 13h24q6 0 11 -4t5 -9v-222zM1690 -26v150q0 13 13 13h27q13 0 13 -13v-222q0 -16 -13 -16h-16q-10 0 -17 10l-123 151v-145q0 -6 -4 -11t-9 -5h-27
q-6 0 -10.5 5t-4.5 11v222q0 5 4.5 9t10.5 4h15q13 0 18 -9zM597 -3q22 -5 35 -5q53 0 53 51q0 22 -15 34t-38 12q-22 0 -35 -5v-87zM1321 -62q35 0 55 19t20 55q0 34 -20 54.5t-55 20.5q-33 0 -54 -21t-21 -54q0 -34 21 -54t54 -20z" />
    <glyph glyph-name="question" unicode="?" horiz-adv-x="909" vert-adv-y="1228" 
d="M866 1207q0 -45 -5 -85t-18 -78t-23 -64t-34.5 -64.5t-38 -58t-47 -65t-47.5 -65.5q-69 -92 -80 -172q-8 -48 -54 -48h-174q-35 0 -46 14.5t-10 44.5q4 151 112 281q12 17 47.5 67t48 69.5t33 55.5t28 62.5t7.5 52.5v23q-4 83 -105 84q-60 1 -86.5 -27.5t-24.5 -79.5v-17
q0 -39 -15.5 -52t-49.5 -13h-183q-37 0 -48.5 21t-11.5 75v12q0 99 30.5 167.5t88.5 105t128 52t164 15.5q210 0 312 -83.5t102 -229.5zM269 242q0 39 26.5 66t66.5 27h144q40 0 66.5 -27t26.5 -66v-149q0 -39 -26.5 -66t-66.5 -27h-144q-40 0 -66.5 27t-26.5 66v149z" />
    <glyph glyph-name="at" unicode="@" vert-adv-y="2063" 
d="M0 631q0 14 15 17q123 7 131 7q110 0 176 -60t66 -164q0 -103 -64 -166.5t-170 -63.5q-7 0 -139 6q-15 4 -15 18v406zM1338 427q0 102 63.5 165t165.5 63q101 0 163.5 -63t62.5 -165q0 -101 -62.5 -163.5t-163.5 -62.5q-102 0 -165.5 63.5t-63.5 162.5zM755 598
q0 -17 -16 -17h-211v-117h159q18 0 18 -18v-30q0 -16 -18 -16h-159v-127h223q15 0 15 -15v-33q0 -18 -15 -18h-273q-17 0 -17 18v406q0 15 17 15h261q16 0 16 -15v-33zM1181 635q5 11 19 11h19q14 0 17 -15q7 -71 44 -382q0 -3 1 -13t1 -11q0 -15 -15 -15h-16q-9 -3 -22 -3
t-16 15q0 5 -1 14t-1 13q-17 140 -30 266l-104 -172q-10 -10 -19 -10h-16q-12 0 -19 10l-103 174q-21 -185 -35 -295q0 -15 -16 -15h-22l-16 3q-15 0 -15 15q0 1 1 5t1 8q41 364 44 393q3 15 18 15h20q13 0 20 -11l129 -219zM66 271q42 -5 90 -5q74 0 117 44.5t43 120.5
q0 72 -44 115t-118 43q-7 0 -88 -6v-312zM1411 427q0 -73 42 -117t112 -44q72 0 115 44t43 117q0 74 -42.5 118t-113.5 44q-72 0 -114 -44t-42 -118zM741 -93q3 -5 3 -9q0 -9 -11 -9q-17 0 -26 -3q-11 0 -18 10l-26 57q-13 -5 -35 -5h-31v-46q0 -16 -13 -16h-25
q-12 0 -12 16v218q0 12 12 15q40 4 67 4q49 0 83.5 -24t34.5 -72q0 -45 -35 -71zM806 -54q3 9 10 9q5 0 7 -2q42 -23 81 -23q46 0 46 29q0 16 -15 23t-46 12q-90 16 -90 71q0 36 27.5 55t73.5 19q38 0 90 -21q6 -7 6 -12q0 -7 -2 -9l-9 -17q-3 -6 -10 -6q-5 0 -7 2
q-40 17 -70 17q-42 0 -42 -26q0 -22 50 -31q22 -4 35.5 -7.5t31 -12t26.5 -22.5t9 -33q0 -36 -28 -56.5t-74 -20.5q-55 0 -103 25q-6 3 -6 11v6zM1192 12q0 56 37 91.5t92 35.5q58 0 95 -35.5t37 -91.5t-37 -92t-95 -36q-55 0 -92 35.5t-37 92.5zM0 120v6q0 9 11 9
q5 0 14.5 1t13.5 1q13 3 18 -9l70 -169l71 169q3 12 17 9q4 0 13.5 -1t15.5 -1q11 0 11 -9q0 -4 -3 -6l-102 -222q-6 -12 -16 -12h-13q-12 0 -16 12zM480 104q0 -15 -13 -15h-114v-55h77q13 0 13 -16v-11q0 -13 -13 -13h-77v-62h114q13 0 13 -12v-18q0 -16 -13 -16h-154
q-12 0 -12 16v222q0 13 12 13h154q13 0 13 -13v-20zM1126 -98q0 -6 -4.5 -11t-11.5 -5h-24q-15 0 -15 16v222q0 13 15 13h24q6 0 11 -4t5 -9v-222zM1690 -26v150q0 13 13 13h27q13 0 13 -13v-222q0 -16 -13 -16h-16q-10 0 -17 10l-123 151v-145q0 -6 -4 -11t-9 -5h-27
q-6 0 -10.5 5t-4.5 11v222q0 5 4.5 9t10.5 4h15q13 0 18 -9zM597 -3q22 -5 35 -5q53 0 53 51q0 22 -15 34t-38 12q-22 0 -35 -5v-87zM1321 -62q35 0 55 19t20 55q0 34 -20 54.5t-55 20.5q-33 0 -54 -21t-21 -54q0 -34 21 -54t54 -20z" />
    <glyph glyph-name="A" unicode="A" horiz-adv-x="1025" vert-adv-y="2063" 
d="M43 110l172 1258q11 81 47.5 105t103.5 24h298q67 0 102.5 -24t46.5 -105l169 -1258q8 -58 -7.5 -84t-61.5 -26h-199q-23 0 -39 14.5t-17 37.5l-26 259h-240l-27 -259q-1 -24 -16.5 -38t-38.5 -14h-197q-45 0 -61.5 26t-8.5 84zM418 547h189l-70 561l-6 79q-1 25 -16 25
h-3q-13 0 -15 -25l-7 -80z" />
    <glyph glyph-name="B" unicode="B" horiz-adv-x="1014" vert-adv-y="1228" 
d="M71 127v1252q0 65 33 91.5t115 26.5h301q233 0 332 -86t99 -277q0 -96 -20.5 -162t-61.5 -104.5t-93 -56t-125 -21.5q72 2 128.5 -16.5t100.5 -62t68 -120t24 -184.5q0 -103 -23 -176.5t-61.5 -118t-103.5 -70t-135.5 -34t-170.5 -8.5h-258q-82 0 -115.5 26t-33.5 101z
M397 913h97q76 0 106 42.5t30 120.5v47q0 63 -31.5 94t-111.5 32h-90v-336zM633 485q0 95 -35 133.5t-109 38.5h-92v-415h92q144 0 144 138v105z" />
    <glyph glyph-name="C" unicode="C" horiz-adv-x="1001" vert-adv-y="1228" 
d="M892 573q35 0 48 -12t13 -35q0 -114 -10.5 -198t-34.5 -145t-57.5 -99.5t-85.5 -61.5t-112 -31.5t-144 -8.5q-82 0 -142.5 7t-108.5 29t-79.5 46.5t-54.5 76t-35.5 100t-19.5 136t-8.5 166t-1.5 207.5q0 103 1 165t4.5 139.5t9.5 121.5t18 98t29 82t42 61t57 48.5
t75.5 30t96 19.5t118.5 5q94 0 159.5 -9t116.5 -33t82 -59.5t50.5 -94.5t27 -132t7.5 -177q0 -36 -12.5 -51t-48.5 -15h-184q-37 0 -56 14.5t-19 63.5v81q0 89 -23 121t-92 32q-79 0 -99.5 -48t-20.5 -200v-527q0 -153 20 -199t100 -46q65 0 90 34t25 117v104q0 34 11 51.5
t25.5 21.5t38.5 4h184z" />
    <glyph glyph-name="D" unicode="D" horiz-adv-x="1018" vert-adv-y="1228" 
d="M965 430q0 -82 -10 -145t-27.5 -108.5t-46.5 -77.5t-61.5 -51t-79.5 -30t-92.5 -14.5t-107.5 -3.5h-338q-79 0 -105 25t-26 102v1252q0 68 25 93t105 25h327q132 0 212.5 -22t133 -81.5t72 -155.5t19.5 -253v-555zM632 973q0 119 -13.5 178t-40.5 79t-82 20h-99v-1005
h102q54 0 81 19.5t39.5 73.5t12.5 161v474z" />
    <glyph glyph-name="E" unicode="E" horiz-adv-x="801" vert-adv-y="1228" 
d="M71 95v1306q0 52 20 74t67 22h547q24 0 40.5 -17t16.5 -41v-171q0 -24 -16.5 -41t-40.5 -17h-308v-318h289q24 0 40.5 -16.5t16.5 -40.5v-154q0 -24 -16.5 -41t-40.5 -17h-289v-336h308q24 0 40.5 -17t16.5 -41v-173q0 -24 -16.5 -40t-40.5 -16h-547q-47 0 -67 22t-20 73
z" />
    <glyph glyph-name="F" unicode="F" horiz-adv-x="818" vert-adv-y="1228" 
d="M71 87v1314q0 52 20 74t67 22h565q23 0 39.5 -17t16.5 -41v-171q0 -23 -16.5 -40.5t-39.5 -17.5h-326v-364h288q24 0 40 -17.5t16 -41.5v-153q0 -24 -16 -40t-40 -16h-288v-476q0 -36 -20.5 -69t-65.5 -33h-160q-42 0 -61 21t-19 66z" />
    <glyph glyph-name="G" unicode="G" horiz-adv-x="1013" vert-adv-y="1228" 
d="M41 750q0 109 0.5 168.5t4 141t9.5 123t17.5 97.5t28 81.5t42 59.5t57.5 47.5t76 28t97 19t121 4.5q134 0 218 -21t136.5 -73t73 -132.5t20.5 -208.5q0 -32 -12.5 -48t-48.5 -16h-191q-18 0 -29.5 2t-23 9t-17 23.5t-5.5 42.5v27q0 76 -23 106t-91 30q-35 0 -58 -9
t-36 -22.5t-19 -46.5t-7.5 -63t-1.5 -90v-544q0 -62 1.5 -94.5t7.5 -66t19 -48t35 -23.5t57 -9h78q24 0 31 13t7 51v409q0 49 19 63.5t56 14.5h172q40 0 60 -19t20 -63v-572q0 -69 -36 -105.5t-122 -36.5h-292q-67 0 -119.5 4.5t-96 19t-75.5 28.5t-57 46t-42 59t-28.5 80
t-18 95t-10 118.5t-4 136.5t-0.5 163z" />
    <glyph glyph-name="H" unicode="H" horiz-adv-x="1072" vert-adv-y="1228" 
d="M71 110v1299q0 56 27 72t100 16h76q73 0 98 -19t25 -71v-518h277v520q0 56 26.5 72t98.5 16h79q72 0 97 -19t25 -71v-1305q0 -55 -18.5 -78.5t-69.5 -23.5h-158q-45 0 -62.5 25.5t-17.5 84.5v521h-277v-529q0 -55 -18.5 -78.5t-67.5 -23.5h-160q-45 0 -62.5 25.5
t-17.5 84.5z" />
    <glyph glyph-name="I" unicode="I" horiz-adv-x="468" vert-adv-y="1228" 
d="M71 110v1299q0 56 27 72t100 16h76q73 0 98 -19t25 -71v-1305q0 -55 -18.5 -78.5t-67.5 -23.5h-160q-45 0 -62.5 25.5t-17.5 84.5z" />
    <glyph glyph-name="J" unicode="J" horiz-adv-x="497" vert-adv-y="1228" 
d="M94 70v1339q0 56 27 72t100 16h76q73 0 98.5 -19t25.5 -71v-1038q0 -205 -52.5 -287t-186.5 -82q-46 0 -67 17t-21 53z" />
    <glyph glyph-name="K" unicode="K" horiz-adv-x="993" vert-adv-y="1228" 
d="M71 110v1299q0 56 26.5 72t98.5 16h78q72 0 97.5 -19t25.5 -71v-531h17l212 518q3 8 9 22t8 20t6.5 16t7 13.5t7 10t8.5 8.5t10 5.5t12.5 4.5t15 2t18.5 1h142q50 0 71 -19t10 -67l-278 -646l278 -679q11 -48 -10 -67t-71 -19h-142q-53 0 -73.5 20t-30.5 84l-210 549h-17
v-551q0 -55 -18.5 -78.5t-69.5 -23.5h-158q-45 0 -62.5 25.5t-17.5 84.5z" />
    <glyph glyph-name="L" unicode="L" horiz-adv-x="788" vert-adv-y="1228" 
d="M71 95v1314q0 45 19.5 66.5t61.5 21.5h159q48 0 67 -26.5t19 -75.5v-1108h289q24 0 41 -17.5t17 -40.5v-173q0 -24 -17 -40t-41 -16h-528q-47 0 -67 22t-20 73z" />
    <glyph glyph-name="M" unicode="M" horiz-adv-x="1497" vert-adv-y="2063" 
d="M40 110l61 1259q2 42 12.5 69t31 39.5t40 16t49.5 3.5h207q82 0 117.5 -19.5t44.5 -85.5l116 -837l17 -212q2 -13 10 -13h8q8 0 10 12l16 212l114 838q8 66 43 85.5t117 19.5h207q30 0 49.5 -3.5t40 -16t31 -39.5t11.5 -69l64 -1259q2 -58 -16 -84t-63 -26h-160
q-50 0 -69 24t-19 78l8 1000q0 9 -6 9h-7q-7 0 -8 -8l-24 -185l-152 -836q-9 -50 -28 -66t-60 -16h-208q-42 0 -60.5 15.5t-27.5 67.5l-150 841l-25 180q-1 7 -8 7h-6q-8 0 -8 -9l7 -1000q0 -55 -19 -78.5t-70 -23.5h-159q-45 0 -63 26t-16 84z" />
    <glyph glyph-name="N" unicode="N" horiz-adv-x="1097" vert-adv-y="2063" 
d="M71 110v1276q0 70 32.5 90.5t113.5 20.5h118q62 0 93.5 -23t52.5 -83l205 -587l50 -163q2 -5 6 -5h2q6 0 6 5l-51 768q-4 55 24 71.5t101 16.5h78q72 0 98 -19.5t26 -70.5v-1282q0 -67 -24.5 -96t-82.5 -29h-170q-49 0 -74.5 28.5t-50.5 98.5l-215 603l-54 165q-1 4 -4 4
h-3q-3 0 -3 -3l52 -794q4 -53 -16 -77.5t-70 -24.5h-160q-45 0 -62.5 25.5t-17.5 84.5z" />
    <glyph glyph-name="O" unicode="O" horiz-adv-x="1035" vert-adv-y="1228" 
d="M59 750v16q0 123 1 180.5t6 150t17 133.5t33.5 101.5t54.5 85.5t81.5 54.5t114 39t151.5 9.5q236 0 335 -90q84 -77 107 -259q14 -110 16 -421q0 -300 -12 -403q-21 -188 -106 -269q-101 -96 -340 -96q-75 0 -134 8.5t-105 24t-79 42.5t-57 59.5t-38.5 80.5t-23.5 99
t-13.5 122t-6 143t-2.5 167v22zM398 1026v-558q0 -44 1 -67.5t4.5 -54t11 -46.5t20.5 -31.5t33.5 -21.5t49.5 -6t49.5 6t33.5 21.5t20.5 30.5t11 46t4 54.5t0.5 68.5v560q0 128 -11 165q-17 59 -82 67q-11 1 -25 1q-20 0 -36 -3.5t-28.5 -8t-21.5 -16t-15 -19.5t-10 -27.5
t-6 -31t-3 -39t-1 -42v-48.5z" />
    <glyph glyph-name="P" unicode="P" horiz-adv-x="1022" vert-adv-y="1228" 
d="M71 110v1291q0 62 27.5 79t106.5 17h307q143 1 233 -28t140.5 -99t68.5 -167.5t18 -253.5q0 -155 -21 -254t-73 -164.5t-136.5 -92t-215.5 -26.5h-129v-310q1 -54 -18 -78t-68 -24h-160q-45 0 -62.5 25.5t-17.5 84.5zM397 656h89q84 0 115.5 52t31.5 185v124
q0 130 -32.5 182.5t-117.5 52.5h-86v-596z" />
    <glyph glyph-name="Q" unicode="Q" horiz-adv-x="1035" vert-adv-y="1228" 
d="M59 750q0 127 1 187t6.5 154t17 136.5t33 103.5t55 86.5t81.5 54.5t113.5 38.5t151.5 9.5q85 0 148.5 -8.5t112 -35t81 -50.5t54.5 -82.5t34 -102t18 -137t7.5 -159t2.5 -195.5q0 -82 -1 -139t-4 -123t-8.5 -111t-15 -95t-23.5 -83.5t-33.5 -68t-45 -56.5t-58.5 -41.5
t-73.5 -30t-90.5 -15.5v-24q0 -27 15 -51t41 -36q42 -18 114 -18q39 0 56.5 -17.5t17.5 -54.5v-107q0 -37 -20 -51.5t-61 -14.5q-44 0 -89 8t-97.5 30t-92.5 56t-67 93t-27 134v54q-51 5 -93 15.5t-75 30.5t-58.5 38.5t-45 55.5t-32.5 64.5t-22 83t-14 93.5t-8 112.5
t-4 124.5t-2 144zM398 1073v-646q0 -47 4 -77.5t16 -57t36.5 -39t63.5 -12.5q71 0 95 45t24 141v648q0 94 -23 137.5t-95 43.5q-29 0 -49.5 -5t-34 -18t-21 -26t-11 -37.5t-4.5 -43.5t-1 -53z" />
    <glyph glyph-name="R" unicode="R" horiz-adv-x="1014" vert-adv-y="1228" 
d="M71 110v1291q0 62 27.5 79t106.5 17h305q113 1 194 -16.5t133 -50.5t82 -88t41.5 -119.5t11.5 -154.5q0 -317 -202 -390l186 -518q23 -64 4 -112t-72 -48h-147q-36 0 -55 21.5t-32 67.5l-133 473l-12 71h-112v-531q0 -55 -18.5 -78.5t-67.5 -23.5h-160q-45 0 -62.5 25.5
t-17.5 84.5zM397 866h87q157 0 157 167v63q0 156 -159 156h-85v-386z" />
    <glyph glyph-name="S" unicode="S" horiz-adv-x="927" vert-adv-y="1228" 
d="M41 1134q0 193 102 289.5t318 96.5q94 0 164.5 -15.5t128 -52t87.5 -104.5t30 -167v-17q0 -55 -11.5 -76.5t-48.5 -21.5h-180q-35 0 -51 12.5t-17 51.5v45q-1 53 -25 80.5t-83 27.5t-85.5 -27t-26.5 -67v-18q0 -45 10.5 -81.5t32.5 -65.5t42 -48t53 -44l179 -139
q126 -92 175.5 -191.5t49.5 -252.5q0 -90 -17.5 -153t-60.5 -113.5t-124 -75.5t-201 -25q-217 0 -319 83.5t-102 269.5v13q0 54 12.5 75t49.5 21h181q38 0 52 -16.5t14 -56.5v-42q0 -57 24.5 -85t85.5 -28q58 0 82 26t24 74v34q0 79 -28.5 128.5t-107.5 109.5l-192 149
q-122 92 -169.5 179t-47.5 218z" />
    <glyph glyph-name="T" unicode="T" horiz-adv-x="965" vert-adv-y="1228" 
d="M92 1210q-24 0 -40 17t-16 41v171q0 24 16 41t40 17h781q24 0 40.5 -17t16.5 -41v-171q0 -24 -16.5 -41t-40.5 -17h-227v-1123q0 -45 -18.5 -66t-59.5 -21h-170q-41 0 -59 21t-18 66v1123h-229z" />
    <glyph glyph-name="U" unicode="U" horiz-adv-x="1010" vert-adv-y="1228" 
d="M63 373v1034q0 54 25 72t99 18h78q29 0 45 -1t34 -5.5t26.5 -14t14 -26.5t5.5 -43v-1009q0 -87 24.5 -120t90.5 -33q67 0 91.5 32.5t24.5 120.5v1009q0 61 22 75.5t105 14.5h76q74 0 98.5 -18t24.5 -72v-1034q0 -112 -26.5 -188t-83 -120.5t-136 -63.5t-194.5 -19
q-113 0 -192.5 19t-137.5 63.5t-86 120.5t-28 188z" />
    <glyph glyph-name="V" unicode="V" horiz-adv-x="1025" vert-adv-y="2063" 
d="M43 1388q-8 58 8.5 83.5t61.5 25.5h197q23 0 38.5 -14t16.5 -38l117 -1034l8 -104q2 -18 6.5 -25.5t15.5 -7.5h3q12 0 16 7t6 26l8 103l113 1035q1 23 17 37.5t39 14.5h199q46 0 61.5 -25.5t7.5 -83.5l-163 -1259q-5 -43 -18 -70t-35 -39.5t-43 -16t-53 -3.5h-311
q-33 0 -53.5 3.5t-42.5 16t-35.5 39.5t-18.5 70z" />
    <glyph glyph-name="W" unicode="W" horiz-adv-x="1704" vert-adv-y="2063" 
d="M42 1388q-7 58 8 83.5t61 25.5h174q51 0 72 -24t25 -78l65 -908l9 -160q2 -29 15 -29h3q12 0 15 24l20 163l121 895q9 65 30.5 91t77.5 26h229q56 0 78.5 -26t31.5 -90l119 -893l21 -165q3 -25 13 -25h4q12 0 13 30l9 157l66 909q4 55 25 79t72 24h172q47 0 63 -26.5
t8 -85.5l-140 -1257q-3 -34 -13 -58.5t-22.5 -37.5t-31.5 -20.5t-35.5 -9.5t-40.5 -2h-278q-31 0 -52 3.5t-43 15.5t-34.5 37.5t-16.5 65.5l-72 689l-10 173q-2 40 -5 50t-12 10h-5q-9 0 -12 -12t-5 -46l-10 -175l-76 -689q-8 -75 -44.5 -98.5t-101.5 -23.5h-276
q-31 0 -51 3.5t-41.5 15.5t-34.5 39.5t-17 69.5z" />
    <glyph glyph-name="X" unicode="X" horiz-adv-x="985" vert-adv-y="1438" 
d="M42 81l198 685l-194 641q-13 49 4 69.5t50 20.5h199q27 0 42.5 -16t25.5 -55l110 -452l8 -55h18l9 55l109 453q9 39 25 54.5t49 15.5h191q33 0 50.5 -20.5t5.5 -69.5l-192 -641l194 -687q10 -42 -7.5 -60.5t-50.5 -18.5h-198q-54 0 -67 59l-109 495l-9 57h-18l-9 -57
l-109 -494q-13 -60 -73 -60h-194q-33 0 -50.5 19t-7.5 62z" />
    <glyph glyph-name="Y" unicode="Y" horiz-adv-x="999" vert-adv-y="2063" 
d="M46 1397q-28 100 69 100h178q35 0 48.5 -14t22.5 -56l116 -512l7 -96q1 -13 11 -13h4q8 0 10 12l8 96l115 510q9 45 23.5 59t55.5 14h167q48 0 67.5 -23t3.5 -80l-290 -899v-393q0 -55 -18.5 -78.5t-69.5 -23.5h-159q-45 0 -62 25.5t-17 84.5v387z" />
    <glyph glyph-name="Z" unicode="Z" horiz-adv-x="893" vert-adv-y="1228" 
d="M32 112q0 39 17 83l415 1015h-359q-24 0 -40 17t-16 41v171q0 24 16 41t40 17h653q56 0 83 -30t27 -78q0 -41 -21 -91l-415 -1011h345q24 0 40.5 -17t16.5 -41v-173q0 -24 -16.5 -40t-40.5 -16h-637q-56 0 -82 32t-26 80z" />
    <glyph glyph-name="bracketleft" unicode="[" vert-adv-y="2063" 
d="M0 631q0 14 15 17q123 7 131 7q110 0 176 -60t66 -164q0 -103 -64 -166.5t-170 -63.5q-7 0 -139 6q-15 4 -15 18v406zM1338 427q0 102 63.5 165t165.5 63q101 0 163.5 -63t62.5 -165q0 -101 -62.5 -163.5t-163.5 -62.5q-102 0 -165.5 63.5t-63.5 162.5zM755 598
q0 -17 -16 -17h-211v-117h159q18 0 18 -18v-30q0 -16 -18 -16h-159v-127h223q15 0 15 -15v-33q0 -18 -15 -18h-273q-17 0 -17 18v406q0 15 17 15h261q16 0 16 -15v-33zM1181 635q5 11 19 11h19q14 0 17 -15q7 -71 44 -382q0 -3 1 -13t1 -11q0 -15 -15 -15h-16q-9 -3 -22 -3
t-16 15q0 5 -1 14t-1 13q-17 140 -30 266l-104 -172q-10 -10 -19 -10h-16q-12 0 -19 10l-103 174q-21 -185 -35 -295q0 -15 -16 -15h-22l-16 3q-15 0 -15 15q0 1 1 5t1 8q41 364 44 393q3 15 18 15h20q13 0 20 -11l129 -219zM66 271q42 -5 90 -5q74 0 117 44.5t43 120.5
q0 72 -44 115t-118 43q-7 0 -88 -6v-312zM1411 427q0 -73 42 -117t112 -44q72 0 115 44t43 117q0 74 -42.5 118t-113.5 44q-72 0 -114 -44t-42 -118zM741 -93q3 -5 3 -9q0 -9 -11 -9q-17 0 -26 -3q-11 0 -18 10l-26 57q-13 -5 -35 -5h-31v-46q0 -16 -13 -16h-25
q-12 0 -12 16v218q0 12 12 15q40 4 67 4q49 0 83.5 -24t34.5 -72q0 -45 -35 -71zM806 -54q3 9 10 9q5 0 7 -2q42 -23 81 -23q46 0 46 29q0 16 -15 23t-46 12q-90 16 -90 71q0 36 27.5 55t73.5 19q38 0 90 -21q6 -7 6 -12q0 -7 -2 -9l-9 -17q-3 -6 -10 -6q-5 0 -7 2
q-40 17 -70 17q-42 0 -42 -26q0 -22 50 -31q22 -4 35.5 -7.5t31 -12t26.5 -22.5t9 -33q0 -36 -28 -56.5t-74 -20.5q-55 0 -103 25q-6 3 -6 11v6zM1192 12q0 56 37 91.5t92 35.5q58 0 95 -35.5t37 -91.5t-37 -92t-95 -36q-55 0 -92 35.5t-37 92.5zM0 120v6q0 9 11 9
q5 0 14.5 1t13.5 1q13 3 18 -9l70 -169l71 169q3 12 17 9q4 0 13.5 -1t15.5 -1q11 0 11 -9q0 -4 -3 -6l-102 -222q-6 -12 -16 -12h-13q-12 0 -16 12zM480 104q0 -15 -13 -15h-114v-55h77q13 0 13 -16v-11q0 -13 -13 -13h-77v-62h114q13 0 13 -12v-18q0 -16 -13 -16h-154
q-12 0 -12 16v222q0 13 12 13h154q13 0 13 -13v-20zM1126 -98q0 -6 -4.5 -11t-11.5 -5h-24q-15 0 -15 16v222q0 13 15 13h24q6 0 11 -4t5 -9v-222zM1690 -26v150q0 13 13 13h27q13 0 13 -13v-222q0 -16 -13 -16h-16q-10 0 -17 10l-123 151v-145q0 -6 -4 -11t-9 -5h-27
q-6 0 -10.5 5t-4.5 11v222q0 5 4.5 9t10.5 4h15q13 0 18 -9zM597 -3q22 -5 35 -5q53 0 53 51q0 22 -15 34t-38 12q-22 0 -35 -5v-87zM1321 -62q35 0 55 19t20 55q0 34 -20 54.5t-55 20.5q-33 0 -54 -21t-21 -54q0 -34 21 -54t54 -20z" />
    <glyph glyph-name="backslash" unicode="\" vert-adv-y="2063" 
d="M0 631q0 14 15 17q123 7 131 7q110 0 176 -60t66 -164q0 -103 -64 -166.5t-170 -63.5q-7 0 -139 6q-15 4 -15 18v406zM1338 427q0 102 63.5 165t165.5 63q101 0 163.5 -63t62.5 -165q0 -101 -62.5 -163.5t-163.5 -62.5q-102 0 -165.5 63.5t-63.5 162.5zM755 598
q0 -17 -16 -17h-211v-117h159q18 0 18 -18v-30q0 -16 -18 -16h-159v-127h223q15 0 15 -15v-33q0 -18 -15 -18h-273q-17 0 -17 18v406q0 15 17 15h261q16 0 16 -15v-33zM1181 635q5 11 19 11h19q14 0 17 -15q7 -71 44 -382q0 -3 1 -13t1 -11q0 -15 -15 -15h-16q-9 -3 -22 -3
t-16 15q0 5 -1 14t-1 13q-17 140 -30 266l-104 -172q-10 -10 -19 -10h-16q-12 0 -19 10l-103 174q-21 -185 -35 -295q0 -15 -16 -15h-22l-16 3q-15 0 -15 15q0 1 1 5t1 8q41 364 44 393q3 15 18 15h20q13 0 20 -11l129 -219zM66 271q42 -5 90 -5q74 0 117 44.5t43 120.5
q0 72 -44 115t-118 43q-7 0 -88 -6v-312zM1411 427q0 -73 42 -117t112 -44q72 0 115 44t43 117q0 74 -42.5 118t-113.5 44q-72 0 -114 -44t-42 -118zM741 -93q3 -5 3 -9q0 -9 -11 -9q-17 0 -26 -3q-11 0 -18 10l-26 57q-13 -5 -35 -5h-31v-46q0 -16 -13 -16h-25
q-12 0 -12 16v218q0 12 12 15q40 4 67 4q49 0 83.5 -24t34.5 -72q0 -45 -35 -71zM806 -54q3 9 10 9q5 0 7 -2q42 -23 81 -23q46 0 46 29q0 16 -15 23t-46 12q-90 16 -90 71q0 36 27.5 55t73.5 19q38 0 90 -21q6 -7 6 -12q0 -7 -2 -9l-9 -17q-3 -6 -10 -6q-5 0 -7 2
q-40 17 -70 17q-42 0 -42 -26q0 -22 50 -31q22 -4 35.5 -7.5t31 -12t26.5 -22.5t9 -33q0 -36 -28 -56.5t-74 -20.5q-55 0 -103 25q-6 3 -6 11v6zM1192 12q0 56 37 91.5t92 35.5q58 0 95 -35.5t37 -91.5t-37 -92t-95 -36q-55 0 -92 35.5t-37 92.5zM0 120v6q0 9 11 9
q5 0 14.5 1t13.5 1q13 3 18 -9l70 -169l71 169q3 12 17 9q4 0 13.5 -1t15.5 -1q11 0 11 -9q0 -4 -3 -6l-102 -222q-6 -12 -16 -12h-13q-12 0 -16 12zM480 104q0 -15 -13 -15h-114v-55h77q13 0 13 -16v-11q0 -13 -13 -13h-77v-62h114q13 0 13 -12v-18q0 -16 -13 -16h-154
q-12 0 -12 16v222q0 13 12 13h154q13 0 13 -13v-20zM1126 -98q0 -6 -4.5 -11t-11.5 -5h-24q-15 0 -15 16v222q0 13 15 13h24q6 0 11 -4t5 -9v-222zM1690 -26v150q0 13 13 13h27q13 0 13 -13v-222q0 -16 -13 -16h-16q-10 0 -17 10l-123 151v-145q0 -6 -4 -11t-9 -5h-27
q-6 0 -10.5 5t-4.5 11v222q0 5 4.5 9t10.5 4h15q13 0 18 -9zM597 -3q22 -5 35 -5q53 0 53 51q0 22 -15 34t-38 12q-22 0 -35 -5v-87zM1321 -62q35 0 55 19t20 55q0 34 -20 54.5t-55 20.5q-33 0 -54 -21t-21 -54q0 -34 21 -54t54 -20z" />
    <glyph glyph-name="bracketright" unicode="]" vert-adv-y="2063" 
d="M0 631q0 14 15 17q123 7 131 7q110 0 176 -60t66 -164q0 -103 -64 -166.5t-170 -63.5q-7 0 -139 6q-15 4 -15 18v406zM1338 427q0 102 63.5 165t165.5 63q101 0 163.5 -63t62.5 -165q0 -101 -62.5 -163.5t-163.5 -62.5q-102 0 -165.5 63.5t-63.5 162.5zM755 598
q0 -17 -16 -17h-211v-117h159q18 0 18 -18v-30q0 -16 -18 -16h-159v-127h223q15 0 15 -15v-33q0 -18 -15 -18h-273q-17 0 -17 18v406q0 15 17 15h261q16 0 16 -15v-33zM1181 635q5 11 19 11h19q14 0 17 -15q7 -71 44 -382q0 -3 1 -13t1 -11q0 -15 -15 -15h-16q-9 -3 -22 -3
t-16 15q0 5 -1 14t-1 13q-17 140 -30 266l-104 -172q-10 -10 -19 -10h-16q-12 0 -19 10l-103 174q-21 -185 -35 -295q0 -15 -16 -15h-22l-16 3q-15 0 -15 15q0 1 1 5t1 8q41 364 44 393q3 15 18 15h20q13 0 20 -11l129 -219zM66 271q42 -5 90 -5q74 0 117 44.5t43 120.5
q0 72 -44 115t-118 43q-7 0 -88 -6v-312zM1411 427q0 -73 42 -117t112 -44q72 0 115 44t43 117q0 74 -42.5 118t-113.5 44q-72 0 -114 -44t-42 -118zM741 -93q3 -5 3 -9q0 -9 -11 -9q-17 0 -26 -3q-11 0 -18 10l-26 57q-13 -5 -35 -5h-31v-46q0 -16 -13 -16h-25
q-12 0 -12 16v218q0 12 12 15q40 4 67 4q49 0 83.5 -24t34.5 -72q0 -45 -35 -71zM806 -54q3 9 10 9q5 0 7 -2q42 -23 81 -23q46 0 46 29q0 16 -15 23t-46 12q-90 16 -90 71q0 36 27.5 55t73.5 19q38 0 90 -21q6 -7 6 -12q0 -7 -2 -9l-9 -17q-3 -6 -10 -6q-5 0 -7 2
q-40 17 -70 17q-42 0 -42 -26q0 -22 50 -31q22 -4 35.5 -7.5t31 -12t26.5 -22.5t9 -33q0 -36 -28 -56.5t-74 -20.5q-55 0 -103 25q-6 3 -6 11v6zM1192 12q0 56 37 91.5t92 35.5q58 0 95 -35.5t37 -91.5t-37 -92t-95 -36q-55 0 -92 35.5t-37 92.5zM0 120v6q0 9 11 9
q5 0 14.5 1t13.5 1q13 3 18 -9l70 -169l71 169q3 12 17 9q4 0 13.5 -1t15.5 -1q11 0 11 -9q0 -4 -3 -6l-102 -222q-6 -12 -16 -12h-13q-12 0 -16 12zM480 104q0 -15 -13 -15h-114v-55h77q13 0 13 -16v-11q0 -13 -13 -13h-77v-62h114q13 0 13 -12v-18q0 -16 -13 -16h-154
q-12 0 -12 16v222q0 13 12 13h154q13 0 13 -13v-20zM1126 -98q0 -6 -4.5 -11t-11.5 -5h-24q-15 0 -15 16v222q0 13 15 13h24q6 0 11 -4t5 -9v-222zM1690 -26v150q0 13 13 13h27q13 0 13 -13v-222q0 -16 -13 -16h-16q-10 0 -17 10l-123 151v-145q0 -6 -4 -11t-9 -5h-27
q-6 0 -10.5 5t-4.5 11v222q0 5 4.5 9t10.5 4h15q13 0 18 -9zM597 -3q22 -5 35 -5q53 0 53 51q0 22 -15 34t-38 12q-22 0 -35 -5v-87zM1321 -62q35 0 55 19t20 55q0 34 -20 54.5t-55 20.5q-33 0 -54 -21t-21 -54q0 -34 21 -54t54 -20z" />
    <glyph glyph-name="asciicircum" unicode="^" vert-adv-y="2063" 
d="M0 631q0 14 15 17q123 7 131 7q110 0 176 -60t66 -164q0 -103 -64 -166.5t-170 -63.5q-7 0 -139 6q-15 4 -15 18v406zM1338 427q0 102 63.5 165t165.5 63q101 0 163.5 -63t62.5 -165q0 -101 -62.5 -163.5t-163.5 -62.5q-102 0 -165.5 63.5t-63.5 162.5zM755 598
q0 -17 -16 -17h-211v-117h159q18 0 18 -18v-30q0 -16 -18 -16h-159v-127h223q15 0 15 -15v-33q0 -18 -15 -18h-273q-17 0 -17 18v406q0 15 17 15h261q16 0 16 -15v-33zM1181 635q5 11 19 11h19q14 0 17 -15q7 -71 44 -382q0 -3 1 -13t1 -11q0 -15 -15 -15h-16q-9 -3 -22 -3
t-16 15q0 5 -1 14t-1 13q-17 140 -30 266l-104 -172q-10 -10 -19 -10h-16q-12 0 -19 10l-103 174q-21 -185 -35 -295q0 -15 -16 -15h-22l-16 3q-15 0 -15 15q0 1 1 5t1 8q41 364 44 393q3 15 18 15h20q13 0 20 -11l129 -219zM66 271q42 -5 90 -5q74 0 117 44.5t43 120.5
q0 72 -44 115t-118 43q-7 0 -88 -6v-312zM1411 427q0 -73 42 -117t112 -44q72 0 115 44t43 117q0 74 -42.5 118t-113.5 44q-72 0 -114 -44t-42 -118zM741 -93q3 -5 3 -9q0 -9 -11 -9q-17 0 -26 -3q-11 0 -18 10l-26 57q-13 -5 -35 -5h-31v-46q0 -16 -13 -16h-25
q-12 0 -12 16v218q0 12 12 15q40 4 67 4q49 0 83.5 -24t34.5 -72q0 -45 -35 -71zM806 -54q3 9 10 9q5 0 7 -2q42 -23 81 -23q46 0 46 29q0 16 -15 23t-46 12q-90 16 -90 71q0 36 27.5 55t73.5 19q38 0 90 -21q6 -7 6 -12q0 -7 -2 -9l-9 -17q-3 -6 -10 -6q-5 0 -7 2
q-40 17 -70 17q-42 0 -42 -26q0 -22 50 -31q22 -4 35.5 -7.5t31 -12t26.5 -22.5t9 -33q0 -36 -28 -56.5t-74 -20.5q-55 0 -103 25q-6 3 -6 11v6zM1192 12q0 56 37 91.5t92 35.5q58 0 95 -35.5t37 -91.5t-37 -92t-95 -36q-55 0 -92 35.5t-37 92.5zM0 120v6q0 9 11 9
q5 0 14.5 1t13.5 1q13 3 18 -9l70 -169l71 169q3 12 17 9q4 0 13.5 -1t15.5 -1q11 0 11 -9q0 -4 -3 -6l-102 -222q-6 -12 -16 -12h-13q-12 0 -16 12zM480 104q0 -15 -13 -15h-114v-55h77q13 0 13 -16v-11q0 -13 -13 -13h-77v-62h114q13 0 13 -12v-18q0 -16 -13 -16h-154
q-12 0 -12 16v222q0 13 12 13h154q13 0 13 -13v-20zM1126 -98q0 -6 -4.5 -11t-11.5 -5h-24q-15 0 -15 16v222q0 13 15 13h24q6 0 11 -4t5 -9v-222zM1690 -26v150q0 13 13 13h27q13 0 13 -13v-222q0 -16 -13 -16h-16q-10 0 -17 10l-123 151v-145q0 -6 -4 -11t-9 -5h-27
q-6 0 -10.5 5t-4.5 11v222q0 5 4.5 9t10.5 4h15q13 0 18 -9zM597 -3q22 -5 35 -5q53 0 53 51q0 22 -15 34t-38 12q-22 0 -35 -5v-87zM1321 -62q35 0 55 19t20 55q0 34 -20 54.5t-55 20.5q-33 0 -54 -21t-21 -54q0 -34 21 -54t54 -20z" />
    <glyph glyph-name="underscore" unicode="_" vert-adv-y="2063" 
d="M0 631q0 14 15 17q123 7 131 7q110 0 176 -60t66 -164q0 -103 -64 -166.5t-170 -63.5q-7 0 -139 6q-15 4 -15 18v406zM1338 427q0 102 63.5 165t165.5 63q101 0 163.5 -63t62.5 -165q0 -101 -62.5 -163.5t-163.5 -62.5q-102 0 -165.5 63.5t-63.5 162.5zM755 598
q0 -17 -16 -17h-211v-117h159q18 0 18 -18v-30q0 -16 -18 -16h-159v-127h223q15 0 15 -15v-33q0 -18 -15 -18h-273q-17 0 -17 18v406q0 15 17 15h261q16 0 16 -15v-33zM1181 635q5 11 19 11h19q14 0 17 -15q7 -71 44 -382q0 -3 1 -13t1 -11q0 -15 -15 -15h-16q-9 -3 -22 -3
t-16 15q0 5 -1 14t-1 13q-17 140 -30 266l-104 -172q-10 -10 -19 -10h-16q-12 0 -19 10l-103 174q-21 -185 -35 -295q0 -15 -16 -15h-22l-16 3q-15 0 -15 15q0 1 1 5t1 8q41 364 44 393q3 15 18 15h20q13 0 20 -11l129 -219zM66 271q42 -5 90 -5q74 0 117 44.5t43 120.5
q0 72 -44 115t-118 43q-7 0 -88 -6v-312zM1411 427q0 -73 42 -117t112 -44q72 0 115 44t43 117q0 74 -42.5 118t-113.5 44q-72 0 -114 -44t-42 -118zM741 -93q3 -5 3 -9q0 -9 -11 -9q-17 0 -26 -3q-11 0 -18 10l-26 57q-13 -5 -35 -5h-31v-46q0 -16 -13 -16h-25
q-12 0 -12 16v218q0 12 12 15q40 4 67 4q49 0 83.5 -24t34.5 -72q0 -45 -35 -71zM806 -54q3 9 10 9q5 0 7 -2q42 -23 81 -23q46 0 46 29q0 16 -15 23t-46 12q-90 16 -90 71q0 36 27.5 55t73.5 19q38 0 90 -21q6 -7 6 -12q0 -7 -2 -9l-9 -17q-3 -6 -10 -6q-5 0 -7 2
q-40 17 -70 17q-42 0 -42 -26q0 -22 50 -31q22 -4 35.5 -7.5t31 -12t26.5 -22.5t9 -33q0 -36 -28 -56.5t-74 -20.5q-55 0 -103 25q-6 3 -6 11v6zM1192 12q0 56 37 91.5t92 35.5q58 0 95 -35.5t37 -91.5t-37 -92t-95 -36q-55 0 -92 35.5t-37 92.5zM0 120v6q0 9 11 9
q5 0 14.5 1t13.5 1q13 3 18 -9l70 -169l71 169q3 12 17 9q4 0 13.5 -1t15.5 -1q11 0 11 -9q0 -4 -3 -6l-102 -222q-6 -12 -16 -12h-13q-12 0 -16 12zM480 104q0 -15 -13 -15h-114v-55h77q13 0 13 -16v-11q0 -13 -13 -13h-77v-62h114q13 0 13 -12v-18q0 -16 -13 -16h-154
q-12 0 -12 16v222q0 13 12 13h154q13 0 13 -13v-20zM1126 -98q0 -6 -4.5 -11t-11.5 -5h-24q-15 0 -15 16v222q0 13 15 13h24q6 0 11 -4t5 -9v-222zM1690 -26v150q0 13 13 13h27q13 0 13 -13v-222q0 -16 -13 -16h-16q-10 0 -17 10l-123 151v-145q0 -6 -4 -11t-9 -5h-27
q-6 0 -10.5 5t-4.5 11v222q0 5 4.5 9t10.5 4h15q13 0 18 -9zM597 -3q22 -5 35 -5q53 0 53 51q0 22 -15 34t-38 12q-22 0 -35 -5v-87zM1321 -62q35 0 55 19t20 55q0 34 -20 54.5t-55 20.5q-33 0 -54 -21t-21 -54q0 -34 21 -54t54 -20z" />
    <glyph glyph-name="grave" unicode="`" vert-adv-y="2063" 
d="M0 631q0 14 15 17q123 7 131 7q110 0 176 -60t66 -164q0 -103 -64 -166.5t-170 -63.5q-7 0 -139 6q-15 4 -15 18v406zM1338 427q0 102 63.5 165t165.5 63q101 0 163.5 -63t62.5 -165q0 -101 -62.5 -163.5t-163.5 -62.5q-102 0 -165.5 63.5t-63.5 162.5zM755 598
q0 -17 -16 -17h-211v-117h159q18 0 18 -18v-30q0 -16 -18 -16h-159v-127h223q15 0 15 -15v-33q0 -18 -15 -18h-273q-17 0 -17 18v406q0 15 17 15h261q16 0 16 -15v-33zM1181 635q5 11 19 11h19q14 0 17 -15q7 -71 44 -382q0 -3 1 -13t1 -11q0 -15 -15 -15h-16q-9 -3 -22 -3
t-16 15q0 5 -1 14t-1 13q-17 140 -30 266l-104 -172q-10 -10 -19 -10h-16q-12 0 -19 10l-103 174q-21 -185 -35 -295q0 -15 -16 -15h-22l-16 3q-15 0 -15 15q0 1 1 5t1 8q41 364 44 393q3 15 18 15h20q13 0 20 -11l129 -219zM66 271q42 -5 90 -5q74 0 117 44.5t43 120.5
q0 72 -44 115t-118 43q-7 0 -88 -6v-312zM1411 427q0 -73 42 -117t112 -44q72 0 115 44t43 117q0 74 -42.5 118t-113.5 44q-72 0 -114 -44t-42 -118zM741 -93q3 -5 3 -9q0 -9 -11 -9q-17 0 -26 -3q-11 0 -18 10l-26 57q-13 -5 -35 -5h-31v-46q0 -16 -13 -16h-25
q-12 0 -12 16v218q0 12 12 15q40 4 67 4q49 0 83.5 -24t34.5 -72q0 -45 -35 -71zM806 -54q3 9 10 9q5 0 7 -2q42 -23 81 -23q46 0 46 29q0 16 -15 23t-46 12q-90 16 -90 71q0 36 27.5 55t73.5 19q38 0 90 -21q6 -7 6 -12q0 -7 -2 -9l-9 -17q-3 -6 -10 -6q-5 0 -7 2
q-40 17 -70 17q-42 0 -42 -26q0 -22 50 -31q22 -4 35.5 -7.5t31 -12t26.5 -22.5t9 -33q0 -36 -28 -56.5t-74 -20.5q-55 0 -103 25q-6 3 -6 11v6zM1192 12q0 56 37 91.5t92 35.5q58 0 95 -35.5t37 -91.5t-37 -92t-95 -36q-55 0 -92 35.5t-37 92.5zM0 120v6q0 9 11 9
q5 0 14.5 1t13.5 1q13 3 18 -9l70 -169l71 169q3 12 17 9q4 0 13.5 -1t15.5 -1q11 0 11 -9q0 -4 -3 -6l-102 -222q-6 -12 -16 -12h-13q-12 0 -16 12zM480 104q0 -15 -13 -15h-114v-55h77q13 0 13 -16v-11q0 -13 -13 -13h-77v-62h114q13 0 13 -12v-18q0 -16 -13 -16h-154
q-12 0 -12 16v222q0 13 12 13h154q13 0 13 -13v-20zM1126 -98q0 -6 -4.5 -11t-11.5 -5h-24q-15 0 -15 16v222q0 13 15 13h24q6 0 11 -4t5 -9v-222zM1690 -26v150q0 13 13 13h27q13 0 13 -13v-222q0 -16 -13 -16h-16q-10 0 -17 10l-123 151v-145q0 -6 -4 -11t-9 -5h-27
q-6 0 -10.5 5t-4.5 11v222q0 5 4.5 9t10.5 4h15q13 0 18 -9zM597 -3q22 -5 35 -5q53 0 53 51q0 22 -15 34t-38 12q-22 0 -35 -5v-87zM1321 -62q35 0 55 19t20 55q0 34 -20 54.5t-55 20.5q-33 0 -54 -21t-21 -54q0 -34 21 -54t54 -20z" />
    <glyph glyph-name="a" unicode="a" horiz-adv-x="1002" vert-adv-y="1228" 
d="M44 325q0 53 8 97t26 86.5t50 75t77.5 57t111.5 37.5t148 13h143v80q0 64 -19 91t-92 27q-105 0 -105 -69v-16q0 -29 -19 -38t-56 -9h-152q-39 0 -55.5 17.5t-16.5 61.5q0 270 410 270q131 0 215 -18.5t133 -62.5t68 -106.5t19 -160.5v-720q0 -16 -13 -27t-35 -11h-27
q-50 0 -102.5 18t-68.5 52l-5 10q-29 -43 -99 -70.5t-173 -27.5q-188 0 -279.5 81.5t-91.5 261.5zM608 511h-93q-77 0 -107 -30.5t-30 -99.5v-40q0 -121 108 -121q60 0 91 25.5t31 89.5v176z" />
    <glyph glyph-name="b" unicode="b" horiz-adv-x="1016" vert-adv-y="1228" 
d="M68 110v1352q0 56 27 72t100 16h75q73 0 98.5 -19t25.5 -71v-442q18 40 76.5 64t150.5 24q70 0 122 -15.5t94.5 -53.5t69 -100.5t40.5 -157.5t14 -224q0 -135 -15 -233t-44 -163.5t-76.5 -104.5t-107 -55.5t-140.5 -16.5q-197 0 -266 114l-16 -47q-12 -30 -34 -39.5
t-58 -9.5h-47q-52 0 -70.5 25t-18.5 85zM394 796v-502q31 -74 120 -74q62 0 86.5 38.5t24.5 136.5v298q0 81 -27 117.5t-88 36.5q-72 0 -116 -51z" />
    <glyph glyph-name="c" unicode="c" horiz-adv-x="999" vert-adv-y="1228" 
d="M56 543q0 114 6.5 192t25.5 145t50.5 107t83.5 68.5t122 39.5t169 11q244 0 336 -80.5t92 -287.5q0 -51 -15 -67.5t-67 -16.5h-179q-58 0 -56 60v41q0 55 -24 83.5t-91 28.5q-66 0 -90.5 -37t-24.5 -136v-302q0 -98 24 -135t91 -37q65 0 90.5 28.5t24.5 84.5v36
q-1 29 16.5 48t46.5 19h176q49 0 63.5 -17t14.5 -64q-1 -209 -98 -291t-336 -82q-99 0 -169.5 12t-121.5 42.5t-81.5 71t-48.5 108t-24 142.5t-6 185z" />
    <glyph glyph-name="d" unicode="d" horiz-adv-x="1013" vert-adv-y="1228" 
d="M56 555q0 129 14 224t40.5 157.5t69 100.5t94.5 53.5t122 15.5q91 0 149 -23.5t77 -62.5v440q0 52 24.5 71t97.5 19h77q73 0 99 -16t26 -72v-1409q0 -28 -12 -40.5t-39 -12.5h-42q-60 0 -95.5 19.5t-62.5 62.5q-71 -100 -259 -100q-80 0 -139 16.5t-106 55.5t-76 104.5
t-44 163.5t-15 233zM623 796q-44 51 -118 51q-60 0 -86.5 -36.5t-26.5 -117.5v-298q0 -98 24.5 -136.5t86.5 -38.5q89 0 120 74v502z" />
    <glyph glyph-name="e" unicode="e" horiz-adv-x="1018" vert-adv-y="1228" 
d="M56 555q0 107 7.5 184t27 141t51.5 105t82.5 69t118 40t159.5 12q98 0 168 -10t123 -35.5t85.5 -62.5t53 -98t28 -135.5t7.5 -180.5q0 -61 -26.5 -93.5t-70.5 -32.5h-476v-86q0 -86 24 -118.5t95 -33.5q113 -1 113 89v3q0 56 74 56h193q60 0 60 -56q0 -94 -29 -158.5
t-87.5 -102t-137.5 -53.5t-189 -16q-75 0 -133.5 6.5t-105 23t-79.5 38t-57.5 58t-39.5 77t-24 100t-12 122t-3 148.5zM394 653h234v108q1 52 -24.5 79t-93.5 27q-66 0 -90.5 -27t-25.5 -79v-108z" />
    <glyph glyph-name="f" unicode="f" horiz-adv-x="548" vert-adv-y="1228" 
d="M0 909v118q0 24 17.5 41t44.5 17h41v69q-3 407 366 407h24q42 0 58.5 -16.5t16.5 -62.5v-113q0 -31 -13 -51t-35 -20h-23q-44 0 -65 -22.5t-20 -69.5v-121h87q24 0 40 -17t16 -41v-118q0 -24 -16 -40.5t-40 -16.5h-70v-750q1 -55 -18 -78.5t-70 -23.5h-161
q-44 0 -60.5 25.5t-16.5 84.5v742h-41q-27 0 -44.5 16.5t-17.5 40.5z" />
    <glyph glyph-name="g" unicode="g" horiz-adv-x="1005" vert-adv-y="2063" 
d="M51 248q0 153 122 225q-69 34 -102 104.5t-33 192.5q0 162 84.5 241t295.5 91q7 351 317 351h10q19 0 32.5 -13.5t13.5 -33.5v-153q0 -19 -13.5 -32t-32.5 -13q-75 0 -109.5 -22t-39.5 -82q197 -9 285.5 -82.5t88.5 -245.5q0 -101 -21.5 -166t-75 -108.5t-140.5 -62
t-221 -18.5q-18 0 -160 3q-11 -27 -11 -57q0 -38 22 -50t73 -12h220q180 0 254 -81.5t74 -255.5q0 -95 -17 -158.5t-60 -109.5t-118.5 -66t-190.5 -20h-192q-98 0 -165.5 17t-104.5 51.5t-53 78.5t-16 105v32q0 69 74 69h168q30 0 46.5 -14.5t16.5 -38.5v-4q0 -21 11 -28.5
t35 -7.5h204q46 0 63 20t17 58t-17.5 57.5t-60.5 19.5h-287q-143 0 -214.5 57t-71.5 162zM377 750q0 -53 26.5 -79t101.5 -26q72 0 99 25t27 83v38q0 52 -26.5 75.5t-99.5 23.5q-74 0 -101 -23.5t-27 -76.5v-40z" />
    <glyph glyph-name="h" unicode="h" horiz-adv-x="1010" vert-adv-y="1228" 
d="M68 87v1375q0 56 26.5 72t98.5 16h77q72 0 98 -19t26 -71v-426q86 73 250 72q162 -1 232.5 -76.5t70.5 -238.5v-704q0 -54 -24.5 -71t-99.5 -17h-77q-75 0 -99.5 17t-24.5 71v622q0 73 -22.5 100.5t-71.5 27.5q-47 0 -83.5 -18.5t-50.5 -40.5v-691q0 -56 -26 -72t-98 -16
h-77q-74 0 -99.5 16.5t-25.5 71.5z" />
    <glyph glyph-name="i" unicode="i" horiz-adv-x="461" vert-adv-y="1228" 
d="M68 1286v145q0 54 25.5 72t101.5 18h75q75 0 99.5 -17.5t24.5 -72.5v-145q0 -54 -24.5 -71.5t-99.5 -17.5h-75q-76 0 -101.5 17.5t-25.5 71.5zM68 87v908q0 54 25.5 72t101.5 18h75q75 0 99.5 -17.5t24.5 -72.5v-908q0 -54 -24.5 -71t-99.5 -17h-75q-76 0 -101.5 17
t-25.5 71z" />
    <glyph glyph-name="j" unicode="j" horiz-adv-x="462" vert-adv-y="1228" 
d="M69 1286v145q0 54 25.5 72t101.5 18h75q75 0 99.5 -17.5t24.5 -72.5v-145q0 -54 -24.5 -71.5t-99.5 -17.5h-75q-76 0 -101.5 17.5t-25.5 71.5zM19 -329q0 1 3 34l1 36q29 10 40 38.5t11 92.5v1125q0 56 26.5 72t99.5 16h76q73 0 98 -19t25 -71v-970q0 -158 -30 -246.5
t-94 -126t-176 -37.5q-80 0 -80 56z" />
    <glyph glyph-name="k" unicode="k" horiz-adv-x="950" vert-adv-y="1228" 
d="M68 115v1347q0 56 26.5 72t98.5 16h77q72 0 98 -19t26 -71v-846l201 415q16 56 80 56h188q27 0 41 -11.5t15 -33t-4.5 -44t-16.5 -51.5l-219 -392l229 -411q11 -32 15.5 -55.5t2.5 -44.5t-17 -31.5t-42 -10.5h-182q-28 0 -51 15t-29 39l-211 445v-394q0 -55 -19 -80
t-69 -25h-147q-91 0 -91 115z" />
    <glyph glyph-name="l" unicode="l" horiz-adv-x="461" vert-adv-y="1228" 
d="M394 102q0 -55 -18.5 -78.5t-69.5 -23.5h-160q-44 0 -61 25.5t-17 84.5v1352q0 56 26.5 72t98.5 16h77q72 0 98 -19t26 -71v-1358z" />
    <glyph glyph-name="m" unicode="m" horiz-adv-x="1512" vert-adv-y="1228" 
d="M68 87v923q0 54 23 75t72 21q95 0 187 -105q87 106 267 105q87 -1 152 -29.5t96 -79.5q42 50 115.5 79.5t168.5 29.5q300 0 300 -279v-740q0 -54 -25 -71t-99 -17h-78q-76 0 -100.5 17t-24.5 71v647q0 55 -17.5 79t-60.5 24q-73 0 -123 -59v-691q0 -54 -24.5 -71
t-98.5 -17h-77q-76 0 -100.5 17t-24.5 71v636q0 56 -17 85t-65 29q-36 0 -71 -16t-49 -43v-691q0 -54 -24.5 -71t-99.5 -17h-75q-76 0 -101.5 17t-25.5 71z" />
    <glyph glyph-name="n" unicode="n" horiz-adv-x="1010" vert-adv-y="1228" 
d="M68 87v932q0 48 22.5 67.5t66.5 19.5q48 0 101 -27.5t92 -81.5q88 110 294 109q162 -1 232.5 -76.5t70.5 -238.5v-704q0 -54 -24.5 -71t-99.5 -17h-77q-75 0 -99.5 17t-24.5 71v622q0 73 -22.5 100.5t-71.5 27.5q-47 0 -83.5 -18.5t-50.5 -40.5v-691q0 -54 -24.5 -71
t-99.5 -17h-75q-76 0 -101.5 17t-25.5 71z" />
    <glyph glyph-name="o" unicode="o" horiz-adv-x="1022" vert-adv-y="1228" 
d="M967 545q0 -165 -20.5 -269t-73.5 -171t-136 -94t-216 -29q-97 -1 -168 11.5t-123.5 42.5t-85.5 72t-53 107.5t-27.5 142t-7.5 183.5q0 135 13.5 227t43 159.5t83 105t127 55t181.5 18.5q98 1 169 -11t123 -41.5t85 -71t52 -108t26.5 -143.5t7.5 -186zM628 392v301
q0 97 -23 135.5t-93 38.5t-94 -38.5t-24 -136.5v-301q0 -95 25.5 -133t95.5 -38q65 0 89 38t24 134z" />
    <glyph glyph-name="p" unicode="p" horiz-adv-x="1018" vert-adv-y="1228" 
d="M68 -298l1 1317q0 47 21 67t71 20q111 0 192 -105q51 54 114.5 79.5t155.5 25.5q70 0 122 -15.5t94.5 -53.5t69 -100.5t40.5 -157.5t14 -224q0 -167 -22 -279.5t-69.5 -176.5t-112 -90.5t-158.5 -26.5q-132 0 -207 53v-333q0 -54 -24.5 -71t-99.5 -17h-75
q-76 0 -101.5 17t-25.5 71zM396 294q31 -74 113 -74q65 0 91.5 47t26.5 149v267q0 83 -28.5 123.5t-92.5 40.5q-66 0 -110 -51v-502z" />
    <glyph glyph-name="q" unicode="q" horiz-adv-x="1011" vert-adv-y="1228" 
d="M56 555q0 129 14 224t40.5 157.5t69 100.5t94.5 53.5t122 15.5q91 0 154.5 -24.5t113.5 -76.5l121 82q38 25 62 25q58 0 79.5 -20t21.5 -68v-1310q0 -54 -18 -77t-69 -23h-160q-45 0 -61 24.5t-16 82.5v324q-89 -63 -222 -63q-88 0 -149.5 26.5t-107 90.5t-67.5 176.5
t-22 279.5zM623 294v502q-44 51 -113 51q-62 0 -90 -32.5t-28 -111.5v-308q0 -97 26.5 -136t88.5 -39q85 0 116 74z" />
    <glyph glyph-name="r" unicode="r" horiz-adv-x="746" vert-adv-y="1228" 
d="M68 87v932q0 52 21.5 69.5t62.5 17.5q39 0 78 -15.5t78.5 -60.5t57.5 -114q33 84 101 137t167 53h10q39 0 57.5 -10t18.5 -42v-234q0 -29 -17.5 -47.5t-42.5 -18.5q-10 0 -50.5 11t-60.5 11q-68 0 -112.5 -37.5t-44.5 -106.5v-545q0 -54 -24.5 -71t-98.5 -17h-76
q-76 0 -100.5 17t-24.5 71z" />
    <glyph glyph-name="s" unicode="s" horiz-adv-x="899" vert-adv-y="1228" 
d="M42 808q0 147 101 222t296 76q189 1 296 -63t107 -187q0 -20 -1.5 -31.5t-7.5 -25.5t-21 -20t-39 -6h-150q-75 0 -75 53v1q0 37 -27 59.5t-78 22.5q-103 0 -105 -87q-1 -43 28 -68.5t122 -69.5l161 -82q105 -51 156.5 -127t51.5 -190q0 -160 -105 -231t-311 -72
q-192 -1 -291 56t-99 192q0 44 17 67.5t68 23.5h137q40 0 57 -13t17 -42v-1q0 -46 27.5 -65.5t80.5 -19.5q56 0 80.5 21t25.5 65t-27.5 77.5t-97.5 67.5l-168 83q-110 51 -168 123t-58 191z" />
    <glyph glyph-name="t" unicode="t" horiz-adv-x="625" vert-adv-y="1228" 
d="M25 909v118q0 24 14 41t33 17h64l34 181q11 65 79 65h112q85 0 85 -90v-156h89q28 0 40.5 -12t12.5 -47v-117q0 -34 -14 -45.5t-39 -11.5h-89v-540q0 -80 63 -80h36q23 0 34 -9.5t11 -36.5v-111q0 -39 -18 -57t-64 -18h-114q-81 0 -135 19.5t-83.5 61.5t-41 97.5
t-11.5 138.5v535h-40q-28 0 -43 16.5t-15 40.5z" />
    <glyph glyph-name="u" unicode="u" horiz-adv-x="1008" vert-adv-y="1228" 
d="M68 295v702q0 56 26 72t99 16h76q73 0 98 -19t25 -71v-651q0 -67 26 -98t85 -31q53 0 85.5 21t32.5 55v706q0 56 25.5 72t98.5 16h77q73 0 98 -19t25 -71v-902q0 -58 -18 -75.5t-81 -17.5h-96l-67 89q-36 -53 -100 -80.5t-179 -26.5q-174 1 -255 76t-81 237z" />
    <glyph glyph-name="v" unicode="v" horiz-adv-x="973" vert-adv-y="2063" 
d="M34 964q-14 53 -5 87t57 34h226q18 0 34 -11.5t16 -27.5l85 -652l13 -93q3 -23 7 -31.5t15 -8.5h8q11 0 15.5 9t7.5 31l12 94l85 651q0 17 15.5 28t34.5 11h227q27 0 41.5 -10.5t17.5 -31t0.5 -41t-9.5 -49.5l-174 -857q-8 -42 -43 -69t-78 -27h-312q-43 0 -78 27t-43 69
z" />
    <glyph glyph-name="w" unicode="w" horiz-adv-x="1472" vert-adv-y="2063" 
d="M34 953q-14 58 -5 95t57 37h215q19 0 34 -11t16 -28l43 -570l6 -180q0 -20 16 -20h7q8 0 10.5 4.5t4.5 17.5l24 171l83 564q4 24 21 38t41 14h257q24 0 42 -13.5t22 -38.5l82 -565l23 -167q2 -15 5 -20t12 -5h4q10 0 13 5t5 19l6 176l42 570q1 17 16 28t35 11h215
q27 0 42 -11.5t17.5 -34.5t0 -44.5t-10.5 -52.5l-140 -852q-7 -41 -39.5 -65.5t-76.5 -24.5h-249q-43 0 -76.5 25t-37.5 67l-57 529l-3 55q-1 11 -4.5 14.5t-10.5 3.5h-12q-12 0 -13 -18l-3 -55l-57 -529q-4 -42 -37.5 -67t-77.5 -25h-249q-44 0 -77 24.5t-40 65.5z" />
    <glyph glyph-name="x" unicode="x" horiz-adv-x="905" vert-adv-y="1228" 
d="M28 1008q-6 32 9.5 54.5t51.5 22.5h198q56 0 63 -69l75 -244l16 -132h23l17 132l75 244q7 69 64 69h197q36 0 52 -23.5t9 -53.5l-143 -478l138 -437q8 -37 -6.5 -65t-50.5 -28h-181q-30 0 -53 15t-27 39l-74 273l-17 122h-23l-16 -123l-75 -272q-3 -24 -26.5 -39
t-51.5 -15h-182q-36 0 -50.5 28t-7.5 65l140 437z" />
    <glyph glyph-name="y" unicode="y" horiz-adv-x="976" vert-adv-y="2063" 
d="M39 936q-6 29 -8 40.5t-5 34t0 32t8.5 21.5t18.5 16.5t32 4.5h225q18 0 33 -11.5t17 -27.5l102 -651l11 -96q0 -2 0.5 -7.5t1 -7.5l1.5 -6t2 -5t2.5 -4t3.5 -4t5.5 -2t8 -1.5t9.5 -0.5h8l16 135l83 650q1 16 17 27.5t34 11.5h226q25 0 39.5 -10t18 -28.5t1.5 -37.5
t-8 -45l-181 -894q-37 -177 -91.5 -276.5t-129 -139t-190.5 -39.5h-90q-41 0 -62 15t-19 51l7 115q2 31 18.5 51.5t46.5 20.5h23q111 0 154.5 26.5t54.5 105.5h-146q-43 0 -77.5 27t-43.5 69z" />
    <glyph glyph-name="z" unicode="z" horiz-adv-x="801" vert-adv-y="1228" 
d="M39 909v118q0 24 17 41t40 17h617q40 0 59.5 -18t19.5 -48q0 -19 -16 -54l-339 -733h273q24 0 40 -16.5t16 -39.5v-120q0 -24 -16 -40t-40 -16h-592q-90 0 -90 73q0 25 17 62l347 717h-296q-23 0 -40 17t-17 40z" />
    <glyph glyph-name="braceleft" unicode="{" horiz-adv-x="617" vert-adv-y="1228" 
d="M27 638v61q0 25 17 42.5t44 20.5q65 10 65 140v350q0 165 57 230t191 65h138q23 0 38 -15t15 -38v-88q0 -48 -49 -48h-64v-484q0 -96 -30.5 -145.5t-87.5 -69.5q34 -12 49 -19.5t34.5 -26t27 -51t7.5 -82.5v-538h64q24 0 36.5 -13.5t12.5 -37.5v-86q0 -24 -15 -39.5
t-38 -15.5h-138q-134 0 -191 64.5t-57 230.5v389q0 136 -65 145q-27 2 -44 18t-17 41z" />
    <glyph glyph-name="bar" unicode="|" vert-adv-y="2063" 
d="M0 631q0 14 15 17q123 7 131 7q110 0 176 -60t66 -164q0 -103 -64 -166.5t-170 -63.5q-7 0 -139 6q-15 4 -15 18v406zM1338 427q0 102 63.5 165t165.5 63q101 0 163.5 -63t62.5 -165q0 -101 -62.5 -163.5t-163.5 -62.5q-102 0 -165.5 63.5t-63.5 162.5zM755 598
q0 -17 -16 -17h-211v-117h159q18 0 18 -18v-30q0 -16 -18 -16h-159v-127h223q15 0 15 -15v-33q0 -18 -15 -18h-273q-17 0 -17 18v406q0 15 17 15h261q16 0 16 -15v-33zM1181 635q5 11 19 11h19q14 0 17 -15q7 -71 44 -382q0 -3 1 -13t1 -11q0 -15 -15 -15h-16q-9 -3 -22 -3
t-16 15q0 5 -1 14t-1 13q-17 140 -30 266l-104 -172q-10 -10 -19 -10h-16q-12 0 -19 10l-103 174q-21 -185 -35 -295q0 -15 -16 -15h-22l-16 3q-15 0 -15 15q0 1 1 5t1 8q41 364 44 393q3 15 18 15h20q13 0 20 -11l129 -219zM66 271q42 -5 90 -5q74 0 117 44.5t43 120.5
q0 72 -44 115t-118 43q-7 0 -88 -6v-312zM1411 427q0 -73 42 -117t112 -44q72 0 115 44t43 117q0 74 -42.5 118t-113.5 44q-72 0 -114 -44t-42 -118zM741 -93q3 -5 3 -9q0 -9 -11 -9q-17 0 -26 -3q-11 0 -18 10l-26 57q-13 -5 -35 -5h-31v-46q0 -16 -13 -16h-25
q-12 0 -12 16v218q0 12 12 15q40 4 67 4q49 0 83.5 -24t34.5 -72q0 -45 -35 -71zM806 -54q3 9 10 9q5 0 7 -2q42 -23 81 -23q46 0 46 29q0 16 -15 23t-46 12q-90 16 -90 71q0 36 27.5 55t73.5 19q38 0 90 -21q6 -7 6 -12q0 -7 -2 -9l-9 -17q-3 -6 -10 -6q-5 0 -7 2
q-40 17 -70 17q-42 0 -42 -26q0 -22 50 -31q22 -4 35.5 -7.5t31 -12t26.5 -22.5t9 -33q0 -36 -28 -56.5t-74 -20.5q-55 0 -103 25q-6 3 -6 11v6zM1192 12q0 56 37 91.5t92 35.5q58 0 95 -35.5t37 -91.5t-37 -92t-95 -36q-55 0 -92 35.5t-37 92.5zM0 120v6q0 9 11 9
q5 0 14.5 1t13.5 1q13 3 18 -9l70 -169l71 169q3 12 17 9q4 0 13.5 -1t15.5 -1q11 0 11 -9q0 -4 -3 -6l-102 -222q-6 -12 -16 -12h-13q-12 0 -16 12zM480 104q0 -15 -13 -15h-114v-55h77q13 0 13 -16v-11q0 -13 -13 -13h-77v-62h114q13 0 13 -12v-18q0 -16 -13 -16h-154
q-12 0 -12 16v222q0 13 12 13h154q13 0 13 -13v-20zM1126 -98q0 -6 -4.5 -11t-11.5 -5h-24q-15 0 -15 16v222q0 13 15 13h24q6 0 11 -4t5 -9v-222zM1690 -26v150q0 13 13 13h27q13 0 13 -13v-222q0 -16 -13 -16h-16q-10 0 -17 10l-123 151v-145q0 -6 -4 -11t-9 -5h-27
q-6 0 -10.5 5t-4.5 11v222q0 5 4.5 9t10.5 4h15q13 0 18 -9zM597 -3q22 -5 35 -5q53 0 53 51q0 22 -15 34t-38 12q-22 0 -35 -5v-87zM1321 -62q35 0 55 19t20 55q0 34 -20 54.5t-55 20.5q-33 0 -54 -21t-21 -54q0 -34 21 -54t54 -20z" />
    <glyph glyph-name="braceright" unicode="}" horiz-adv-x="617" vert-adv-y="1228" 
d="M592 638q0 -25 -18 -41t-45 -18q-63 -8 -63 -145v-389q0 -166 -57.5 -230.5t-192.5 -64.5h-136q-24 0 -38.5 15.5t-14.5 39.5v86q0 51 48 51h64v538q0 50 7.5 82.5t26.5 51t34.5 26t48.5 19.5q-56 20 -86.5 69.5t-30.5 145.5v484h-64q-48 0 -48 48v88q0 23 14.5 38
t38.5 15h136q135 0 192.5 -65t57.5 -230v-350q0 -63 13 -98.5t50 -41.5q27 -3 45 -20.5t18 -42.5v-61z" />
    <glyph glyph-name="cent" unicode="&#xa2;" vert-adv-y="2063" 
d="M0 631q0 14 15 17q123 7 131 7q110 0 176 -60t66 -164q0 -103 -64 -166.5t-170 -63.5q-7 0 -139 6q-15 4 -15 18v406zM1338 427q0 102 63.5 165t165.5 63q101 0 163.5 -63t62.5 -165q0 -101 -62.5 -163.5t-163.5 -62.5q-102 0 -165.5 63.5t-63.5 162.5zM755 598
q0 -17 -16 -17h-211v-117h159q18 0 18 -18v-30q0 -16 -18 -16h-159v-127h223q15 0 15 -15v-33q0 -18 -15 -18h-273q-17 0 -17 18v406q0 15 17 15h261q16 0 16 -15v-33zM1181 635q5 11 19 11h19q14 0 17 -15q7 -71 44 -382q0 -3 1 -13t1 -11q0 -15 -15 -15h-16q-9 -3 -22 -3
t-16 15q0 5 -1 14t-1 13q-17 140 -30 266l-104 -172q-10 -10 -19 -10h-16q-12 0 -19 10l-103 174q-21 -185 -35 -295q0 -15 -16 -15h-22l-16 3q-15 0 -15 15q0 1 1 5t1 8q41 364 44 393q3 15 18 15h20q13 0 20 -11l129 -219zM66 271q42 -5 90 -5q74 0 117 44.5t43 120.5
q0 72 -44 115t-118 43q-7 0 -88 -6v-312zM1411 427q0 -73 42 -117t112 -44q72 0 115 44t43 117q0 74 -42.5 118t-113.5 44q-72 0 -114 -44t-42 -118zM741 -93q3 -5 3 -9q0 -9 -11 -9q-17 0 -26 -3q-11 0 -18 10l-26 57q-13 -5 -35 -5h-31v-46q0 -16 -13 -16h-25
q-12 0 -12 16v218q0 12 12 15q40 4 67 4q49 0 83.5 -24t34.5 -72q0 -45 -35 -71zM806 -54q3 9 10 9q5 0 7 -2q42 -23 81 -23q46 0 46 29q0 16 -15 23t-46 12q-90 16 -90 71q0 36 27.5 55t73.5 19q38 0 90 -21q6 -7 6 -12q0 -7 -2 -9l-9 -17q-3 -6 -10 -6q-5 0 -7 2
q-40 17 -70 17q-42 0 -42 -26q0 -22 50 -31q22 -4 35.5 -7.5t31 -12t26.5 -22.5t9 -33q0 -36 -28 -56.5t-74 -20.5q-55 0 -103 25q-6 3 -6 11v6zM1192 12q0 56 37 91.5t92 35.5q58 0 95 -35.5t37 -91.5t-37 -92t-95 -36q-55 0 -92 35.5t-37 92.5zM0 120v6q0 9 11 9
q5 0 14.5 1t13.5 1q13 3 18 -9l70 -169l71 169q3 12 17 9q4 0 13.5 -1t15.5 -1q11 0 11 -9q0 -4 -3 -6l-102 -222q-6 -12 -16 -12h-13q-12 0 -16 12zM480 104q0 -15 -13 -15h-114v-55h77q13 0 13 -16v-11q0 -13 -13 -13h-77v-62h114q13 0 13 -12v-18q0 -16 -13 -16h-154
q-12 0 -12 16v222q0 13 12 13h154q13 0 13 -13v-20zM1126 -98q0 -6 -4.5 -11t-11.5 -5h-24q-15 0 -15 16v222q0 13 15 13h24q6 0 11 -4t5 -9v-222zM1690 -26v150q0 13 13 13h27q13 0 13 -13v-222q0 -16 -13 -16h-16q-10 0 -17 10l-123 151v-145q0 -6 -4 -11t-9 -5h-27
q-6 0 -10.5 5t-4.5 11v222q0 5 4.5 9t10.5 4h15q13 0 18 -9zM597 -3q22 -5 35 -5q53 0 53 51q0 22 -15 34t-38 12q-22 0 -35 -5v-87zM1321 -62q35 0 55 19t20 55q0 34 -20 54.5t-55 20.5q-33 0 -54 -21t-21 -54q0 -34 21 -54t54 -20z" />
    <glyph glyph-name="sterling" unicode="&#xa3;" vert-adv-y="2063" 
d="M0 631q0 14 15 17q123 7 131 7q110 0 176 -60t66 -164q0 -103 -64 -166.5t-170 -63.5q-7 0 -139 6q-15 4 -15 18v406zM1338 427q0 102 63.5 165t165.5 63q101 0 163.5 -63t62.5 -165q0 -101 -62.5 -163.5t-163.5 -62.5q-102 0 -165.5 63.5t-63.5 162.5zM755 598
q0 -17 -16 -17h-211v-117h159q18 0 18 -18v-30q0 -16 -18 -16h-159v-127h223q15 0 15 -15v-33q0 -18 -15 -18h-273q-17 0 -17 18v406q0 15 17 15h261q16 0 16 -15v-33zM1181 635q5 11 19 11h19q14 0 17 -15q7 -71 44 -382q0 -3 1 -13t1 -11q0 -15 -15 -15h-16q-9 -3 -22 -3
t-16 15q0 5 -1 14t-1 13q-17 140 -30 266l-104 -172q-10 -10 -19 -10h-16q-12 0 -19 10l-103 174q-21 -185 -35 -295q0 -15 -16 -15h-22l-16 3q-15 0 -15 15q0 1 1 5t1 8q41 364 44 393q3 15 18 15h20q13 0 20 -11l129 -219zM66 271q42 -5 90 -5q74 0 117 44.5t43 120.5
q0 72 -44 115t-118 43q-7 0 -88 -6v-312zM1411 427q0 -73 42 -117t112 -44q72 0 115 44t43 117q0 74 -42.5 118t-113.5 44q-72 0 -114 -44t-42 -118zM741 -93q3 -5 3 -9q0 -9 -11 -9q-17 0 -26 -3q-11 0 -18 10l-26 57q-13 -5 -35 -5h-31v-46q0 -16 -13 -16h-25
q-12 0 -12 16v218q0 12 12 15q40 4 67 4q49 0 83.5 -24t34.5 -72q0 -45 -35 -71zM806 -54q3 9 10 9q5 0 7 -2q42 -23 81 -23q46 0 46 29q0 16 -15 23t-46 12q-90 16 -90 71q0 36 27.5 55t73.5 19q38 0 90 -21q6 -7 6 -12q0 -7 -2 -9l-9 -17q-3 -6 -10 -6q-5 0 -7 2
q-40 17 -70 17q-42 0 -42 -26q0 -22 50 -31q22 -4 35.5 -7.5t31 -12t26.5 -22.5t9 -33q0 -36 -28 -56.5t-74 -20.5q-55 0 -103 25q-6 3 -6 11v6zM1192 12q0 56 37 91.5t92 35.5q58 0 95 -35.5t37 -91.5t-37 -92t-95 -36q-55 0 -92 35.5t-37 92.5zM0 120v6q0 9 11 9
q5 0 14.5 1t13.5 1q13 3 18 -9l70 -169l71 169q3 12 17 9q4 0 13.5 -1t15.5 -1q11 0 11 -9q0 -4 -3 -6l-102 -222q-6 -12 -16 -12h-13q-12 0 -16 12zM480 104q0 -15 -13 -15h-114v-55h77q13 0 13 -16v-11q0 -13 -13 -13h-77v-62h114q13 0 13 -12v-18q0 -16 -13 -16h-154
q-12 0 -12 16v222q0 13 12 13h154q13 0 13 -13v-20zM1126 -98q0 -6 -4.5 -11t-11.5 -5h-24q-15 0 -15 16v222q0 13 15 13h24q6 0 11 -4t5 -9v-222zM1690 -26v150q0 13 13 13h27q13 0 13 -13v-222q0 -16 -13 -16h-16q-10 0 -17 10l-123 151v-145q0 -6 -4 -11t-9 -5h-27
q-6 0 -10.5 5t-4.5 11v222q0 5 4.5 9t10.5 4h15q13 0 18 -9zM597 -3q22 -5 35 -5q53 0 53 51q0 22 -15 34t-38 12q-22 0 -35 -5v-87zM1321 -62q35 0 55 19t20 55q0 34 -20 54.5t-55 20.5q-33 0 -54 -21t-21 -54q0 -34 21 -54t54 -20z" />
    <glyph glyph-name="section" unicode="&#xa7;" vert-adv-y="2063" 
d="M0 631q0 14 15 17q123 7 131 7q110 0 176 -60t66 -164q0 -103 -64 -166.5t-170 -63.5q-7 0 -139 6q-15 4 -15 18v406zM1338 427q0 102 63.5 165t165.5 63q101 0 163.5 -63t62.5 -165q0 -101 -62.5 -163.5t-163.5 -62.5q-102 0 -165.5 63.5t-63.5 162.5zM755 598
q0 -17 -16 -17h-211v-117h159q18 0 18 -18v-30q0 -16 -18 -16h-159v-127h223q15 0 15 -15v-33q0 -18 -15 -18h-273q-17 0 -17 18v406q0 15 17 15h261q16 0 16 -15v-33zM1181 635q5 11 19 11h19q14 0 17 -15q7 -71 44 -382q0 -3 1 -13t1 -11q0 -15 -15 -15h-16q-9 -3 -22 -3
t-16 15q0 5 -1 14t-1 13q-17 140 -30 266l-104 -172q-10 -10 -19 -10h-16q-12 0 -19 10l-103 174q-21 -185 -35 -295q0 -15 -16 -15h-22l-16 3q-15 0 -15 15q0 1 1 5t1 8q41 364 44 393q3 15 18 15h20q13 0 20 -11l129 -219zM66 271q42 -5 90 -5q74 0 117 44.5t43 120.5
q0 72 -44 115t-118 43q-7 0 -88 -6v-312zM1411 427q0 -73 42 -117t112 -44q72 0 115 44t43 117q0 74 -42.5 118t-113.5 44q-72 0 -114 -44t-42 -118zM741 -93q3 -5 3 -9q0 -9 -11 -9q-17 0 -26 -3q-11 0 -18 10l-26 57q-13 -5 -35 -5h-31v-46q0 -16 -13 -16h-25
q-12 0 -12 16v218q0 12 12 15q40 4 67 4q49 0 83.5 -24t34.5 -72q0 -45 -35 -71zM806 -54q3 9 10 9q5 0 7 -2q42 -23 81 -23q46 0 46 29q0 16 -15 23t-46 12q-90 16 -90 71q0 36 27.5 55t73.5 19q38 0 90 -21q6 -7 6 -12q0 -7 -2 -9l-9 -17q-3 -6 -10 -6q-5 0 -7 2
q-40 17 -70 17q-42 0 -42 -26q0 -22 50 -31q22 -4 35.5 -7.5t31 -12t26.5 -22.5t9 -33q0 -36 -28 -56.5t-74 -20.5q-55 0 -103 25q-6 3 -6 11v6zM1192 12q0 56 37 91.5t92 35.5q58 0 95 -35.5t37 -91.5t-37 -92t-95 -36q-55 0 -92 35.5t-37 92.5zM0 120v6q0 9 11 9
q5 0 14.5 1t13.5 1q13 3 18 -9l70 -169l71 169q3 12 17 9q4 0 13.5 -1t15.5 -1q11 0 11 -9q0 -4 -3 -6l-102 -222q-6 -12 -16 -12h-13q-12 0 -16 12zM480 104q0 -15 -13 -15h-114v-55h77q13 0 13 -16v-11q0 -13 -13 -13h-77v-62h114q13 0 13 -12v-18q0 -16 -13 -16h-154
q-12 0 -12 16v222q0 13 12 13h154q13 0 13 -13v-20zM1126 -98q0 -6 -4.5 -11t-11.5 -5h-24q-15 0 -15 16v222q0 13 15 13h24q6 0 11 -4t5 -9v-222zM1690 -26v150q0 13 13 13h27q13 0 13 -13v-222q0 -16 -13 -16h-16q-10 0 -17 10l-123 151v-145q0 -6 -4 -11t-9 -5h-27
q-6 0 -10.5 5t-4.5 11v222q0 5 4.5 9t10.5 4h15q13 0 18 -9zM597 -3q22 -5 35 -5q53 0 53 51q0 22 -15 34t-38 12q-22 0 -35 -5v-87zM1321 -62q35 0 55 19t20 55q0 34 -20 54.5t-55 20.5q-33 0 -54 -21t-21 -54q0 -34 21 -54t54 -20z" />
    <glyph glyph-name="copyright" unicode="&#xa9;" vert-adv-y="2063" 
d="M0 631q0 14 15 17q123 7 131 7q110 0 176 -60t66 -164q0 -103 -64 -166.5t-170 -63.5q-7 0 -139 6q-15 4 -15 18v406zM1338 427q0 102 63.5 165t165.5 63q101 0 163.5 -63t62.5 -165q0 -101 -62.5 -163.5t-163.5 -62.5q-102 0 -165.5 63.5t-63.5 162.5zM755 598
q0 -17 -16 -17h-211v-117h159q18 0 18 -18v-30q0 -16 -18 -16h-159v-127h223q15 0 15 -15v-33q0 -18 -15 -18h-273q-17 0 -17 18v406q0 15 17 15h261q16 0 16 -15v-33zM1181 635q5 11 19 11h19q14 0 17 -15q7 -71 44 -382q0 -3 1 -13t1 -11q0 -15 -15 -15h-16q-9 -3 -22 -3
t-16 15q0 5 -1 14t-1 13q-17 140 -30 266l-104 -172q-10 -10 -19 -10h-16q-12 0 -19 10l-103 174q-21 -185 -35 -295q0 -15 -16 -15h-22l-16 3q-15 0 -15 15q0 1 1 5t1 8q41 364 44 393q3 15 18 15h20q13 0 20 -11l129 -219zM66 271q42 -5 90 -5q74 0 117 44.5t43 120.5
q0 72 -44 115t-118 43q-7 0 -88 -6v-312zM1411 427q0 -73 42 -117t112 -44q72 0 115 44t43 117q0 74 -42.5 118t-113.5 44q-72 0 -114 -44t-42 -118zM741 -93q3 -5 3 -9q0 -9 -11 -9q-17 0 -26 -3q-11 0 -18 10l-26 57q-13 -5 -35 -5h-31v-46q0 -16 -13 -16h-25
q-12 0 -12 16v218q0 12 12 15q40 4 67 4q49 0 83.5 -24t34.5 -72q0 -45 -35 -71zM806 -54q3 9 10 9q5 0 7 -2q42 -23 81 -23q46 0 46 29q0 16 -15 23t-46 12q-90 16 -90 71q0 36 27.5 55t73.5 19q38 0 90 -21q6 -7 6 -12q0 -7 -2 -9l-9 -17q-3 -6 -10 -6q-5 0 -7 2
q-40 17 -70 17q-42 0 -42 -26q0 -22 50 -31q22 -4 35.5 -7.5t31 -12t26.5 -22.5t9 -33q0 -36 -28 -56.5t-74 -20.5q-55 0 -103 25q-6 3 -6 11v6zM1192 12q0 56 37 91.5t92 35.5q58 0 95 -35.5t37 -91.5t-37 -92t-95 -36q-55 0 -92 35.5t-37 92.5zM0 120v6q0 9 11 9
q5 0 14.5 1t13.5 1q13 3 18 -9l70 -169l71 169q3 12 17 9q4 0 13.5 -1t15.5 -1q11 0 11 -9q0 -4 -3 -6l-102 -222q-6 -12 -16 -12h-13q-12 0 -16 12zM480 104q0 -15 -13 -15h-114v-55h77q13 0 13 -16v-11q0 -13 -13 -13h-77v-62h114q13 0 13 -12v-18q0 -16 -13 -16h-154
q-12 0 -12 16v222q0 13 12 13h154q13 0 13 -13v-20zM1126 -98q0 -6 -4.5 -11t-11.5 -5h-24q-15 0 -15 16v222q0 13 15 13h24q6 0 11 -4t5 -9v-222zM1690 -26v150q0 13 13 13h27q13 0 13 -13v-222q0 -16 -13 -16h-16q-10 0 -17 10l-123 151v-145q0 -6 -4 -11t-9 -5h-27
q-6 0 -10.5 5t-4.5 11v222q0 5 4.5 9t10.5 4h15q13 0 18 -9zM597 -3q22 -5 35 -5q53 0 53 51q0 22 -15 34t-38 12q-22 0 -35 -5v-87zM1321 -62q35 0 55 19t20 55q0 34 -20 54.5t-55 20.5q-33 0 -54 -21t-21 -54q0 -34 21 -54t54 -20z" />
    <glyph glyph-name="registered" unicode="&#xae;" vert-adv-y="2063" 
d="M0 631q0 14 15 17q123 7 131 7q110 0 176 -60t66 -164q0 -103 -64 -166.5t-170 -63.5q-7 0 -139 6q-15 4 -15 18v406zM1338 427q0 102 63.5 165t165.5 63q101 0 163.5 -63t62.5 -165q0 -101 -62.5 -163.5t-163.5 -62.5q-102 0 -165.5 63.5t-63.5 162.5zM755 598
q0 -17 -16 -17h-211v-117h159q18 0 18 -18v-30q0 -16 -18 -16h-159v-127h223q15 0 15 -15v-33q0 -18 -15 -18h-273q-17 0 -17 18v406q0 15 17 15h261q16 0 16 -15v-33zM1181 635q5 11 19 11h19q14 0 17 -15q7 -71 44 -382q0 -3 1 -13t1 -11q0 -15 -15 -15h-16q-9 -3 -22 -3
t-16 15q0 5 -1 14t-1 13q-17 140 -30 266l-104 -172q-10 -10 -19 -10h-16q-12 0 -19 10l-103 174q-21 -185 -35 -295q0 -15 -16 -15h-22l-16 3q-15 0 -15 15q0 1 1 5t1 8q41 364 44 393q3 15 18 15h20q13 0 20 -11l129 -219zM66 271q42 -5 90 -5q74 0 117 44.5t43 120.5
q0 72 -44 115t-118 43q-7 0 -88 -6v-312zM1411 427q0 -73 42 -117t112 -44q72 0 115 44t43 117q0 74 -42.5 118t-113.5 44q-72 0 -114 -44t-42 -118zM741 -93q3 -5 3 -9q0 -9 -11 -9q-17 0 -26 -3q-11 0 -18 10l-26 57q-13 -5 -35 -5h-31v-46q0 -16 -13 -16h-25
q-12 0 -12 16v218q0 12 12 15q40 4 67 4q49 0 83.5 -24t34.5 -72q0 -45 -35 -71zM806 -54q3 9 10 9q5 0 7 -2q42 -23 81 -23q46 0 46 29q0 16 -15 23t-46 12q-90 16 -90 71q0 36 27.5 55t73.5 19q38 0 90 -21q6 -7 6 -12q0 -7 -2 -9l-9 -17q-3 -6 -10 -6q-5 0 -7 2
q-40 17 -70 17q-42 0 -42 -26q0 -22 50 -31q22 -4 35.5 -7.5t31 -12t26.5 -22.5t9 -33q0 -36 -28 -56.5t-74 -20.5q-55 0 -103 25q-6 3 -6 11v6zM1192 12q0 56 37 91.5t92 35.5q58 0 95 -35.5t37 -91.5t-37 -92t-95 -36q-55 0 -92 35.5t-37 92.5zM0 120v6q0 9 11 9
q5 0 14.5 1t13.5 1q13 3 18 -9l70 -169l71 169q3 12 17 9q4 0 13.5 -1t15.5 -1q11 0 11 -9q0 -4 -3 -6l-102 -222q-6 -12 -16 -12h-13q-12 0 -16 12zM480 104q0 -15 -13 -15h-114v-55h77q13 0 13 -16v-11q0 -13 -13 -13h-77v-62h114q13 0 13 -12v-18q0 -16 -13 -16h-154
q-12 0 -12 16v222q0 13 12 13h154q13 0 13 -13v-20zM1126 -98q0 -6 -4.5 -11t-11.5 -5h-24q-15 0 -15 16v222q0 13 15 13h24q6 0 11 -4t5 -9v-222zM1690 -26v150q0 13 13 13h27q13 0 13 -13v-222q0 -16 -13 -16h-16q-10 0 -17 10l-123 151v-145q0 -6 -4 -11t-9 -5h-27
q-6 0 -10.5 5t-4.5 11v222q0 5 4.5 9t10.5 4h15q13 0 18 -9zM597 -3q22 -5 35 -5q53 0 53 51q0 22 -15 34t-38 12q-22 0 -35 -5v-87zM1321 -62q35 0 55 19t20 55q0 34 -20 54.5t-55 20.5q-33 0 -54 -21t-21 -54q0 -34 21 -54t54 -20z" />
    <glyph glyph-name="paragraph" unicode="&#xb6;" vert-adv-y="2063" 
d="M0 631q0 14 15 17q123 7 131 7q110 0 176 -60t66 -164q0 -103 -64 -166.5t-170 -63.5q-7 0 -139 6q-15 4 -15 18v406zM1338 427q0 102 63.5 165t165.5 63q101 0 163.5 -63t62.5 -165q0 -101 -62.5 -163.5t-163.5 -62.5q-102 0 -165.5 63.5t-63.5 162.5zM755 598
q0 -17 -16 -17h-211v-117h159q18 0 18 -18v-30q0 -16 -18 -16h-159v-127h223q15 0 15 -15v-33q0 -18 -15 -18h-273q-17 0 -17 18v406q0 15 17 15h261q16 0 16 -15v-33zM1181 635q5 11 19 11h19q14 0 17 -15q7 -71 44 -382q0 -3 1 -13t1 -11q0 -15 -15 -15h-16q-9 -3 -22 -3
t-16 15q0 5 -1 14t-1 13q-17 140 -30 266l-104 -172q-10 -10 -19 -10h-16q-12 0 -19 10l-103 174q-21 -185 -35 -295q0 -15 -16 -15h-22l-16 3q-15 0 -15 15q0 1 1 5t1 8q41 364 44 393q3 15 18 15h20q13 0 20 -11l129 -219zM66 271q42 -5 90 -5q74 0 117 44.5t43 120.5
q0 72 -44 115t-118 43q-7 0 -88 -6v-312zM1411 427q0 -73 42 -117t112 -44q72 0 115 44t43 117q0 74 -42.5 118t-113.5 44q-72 0 -114 -44t-42 -118zM741 -93q3 -5 3 -9q0 -9 -11 -9q-17 0 -26 -3q-11 0 -18 10l-26 57q-13 -5 -35 -5h-31v-46q0 -16 -13 -16h-25
q-12 0 -12 16v218q0 12 12 15q40 4 67 4q49 0 83.5 -24t34.5 -72q0 -45 -35 -71zM806 -54q3 9 10 9q5 0 7 -2q42 -23 81 -23q46 0 46 29q0 16 -15 23t-46 12q-90 16 -90 71q0 36 27.5 55t73.5 19q38 0 90 -21q6 -7 6 -12q0 -7 -2 -9l-9 -17q-3 -6 -10 -6q-5 0 -7 2
q-40 17 -70 17q-42 0 -42 -26q0 -22 50 -31q22 -4 35.5 -7.5t31 -12t26.5 -22.5t9 -33q0 -36 -28 -56.5t-74 -20.5q-55 0 -103 25q-6 3 -6 11v6zM1192 12q0 56 37 91.5t92 35.5q58 0 95 -35.5t37 -91.5t-37 -92t-95 -36q-55 0 -92 35.5t-37 92.5zM0 120v6q0 9 11 9
q5 0 14.5 1t13.5 1q13 3 18 -9l70 -169l71 169q3 12 17 9q4 0 13.5 -1t15.5 -1q11 0 11 -9q0 -4 -3 -6l-102 -222q-6 -12 -16 -12h-13q-12 0 -16 12zM480 104q0 -15 -13 -15h-114v-55h77q13 0 13 -16v-11q0 -13 -13 -13h-77v-62h114q13 0 13 -12v-18q0 -16 -13 -16h-154
q-12 0 -12 16v222q0 13 12 13h154q13 0 13 -13v-20zM1126 -98q0 -6 -4.5 -11t-11.5 -5h-24q-15 0 -15 16v222q0 13 15 13h24q6 0 11 -4t5 -9v-222zM1690 -26v150q0 13 13 13h27q13 0 13 -13v-222q0 -16 -13 -16h-16q-10 0 -17 10l-123 151v-145q0 -6 -4 -11t-9 -5h-27
q-6 0 -10.5 5t-4.5 11v222q0 5 4.5 9t10.5 4h15q13 0 18 -9zM597 -3q22 -5 35 -5q53 0 53 51q0 22 -15 34t-38 12q-22 0 -35 -5v-87zM1321 -62q35 0 55 19t20 55q0 34 -20 54.5t-55 20.5q-33 0 -54 -21t-21 -54q0 -34 21 -54t54 -20z" />
    <glyph glyph-name="Agrave" unicode="&#xc0;" vert-adv-y="2063" 
d="M0 631q0 14 15 17q123 7 131 7q110 0 176 -60t66 -164q0 -103 -64 -166.5t-170 -63.5q-7 0 -139 6q-15 4 -15 18v406zM1338 427q0 102 63.5 165t165.5 63q101 0 163.5 -63t62.5 -165q0 -101 -62.5 -163.5t-163.5 -62.5q-102 0 -165.5 63.5t-63.5 162.5zM755 598
q0 -17 -16 -17h-211v-117h159q18 0 18 -18v-30q0 -16 -18 -16h-159v-127h223q15 0 15 -15v-33q0 -18 -15 -18h-273q-17 0 -17 18v406q0 15 17 15h261q16 0 16 -15v-33zM1181 635q5 11 19 11h19q14 0 17 -15q7 -71 44 -382q0 -3 1 -13t1 -11q0 -15 -15 -15h-16q-9 -3 -22 -3
t-16 15q0 5 -1 14t-1 13q-17 140 -30 266l-104 -172q-10 -10 -19 -10h-16q-12 0 -19 10l-103 174q-21 -185 -35 -295q0 -15 -16 -15h-22l-16 3q-15 0 -15 15q0 1 1 5t1 8q41 364 44 393q3 15 18 15h20q13 0 20 -11l129 -219zM66 271q42 -5 90 -5q74 0 117 44.5t43 120.5
q0 72 -44 115t-118 43q-7 0 -88 -6v-312zM1411 427q0 -73 42 -117t112 -44q72 0 115 44t43 117q0 74 -42.5 118t-113.5 44q-72 0 -114 -44t-42 -118zM741 -93q3 -5 3 -9q0 -9 -11 -9q-17 0 -26 -3q-11 0 -18 10l-26 57q-13 -5 -35 -5h-31v-46q0 -16 -13 -16h-25
q-12 0 -12 16v218q0 12 12 15q40 4 67 4q49 0 83.5 -24t34.5 -72q0 -45 -35 -71zM806 -54q3 9 10 9q5 0 7 -2q42 -23 81 -23q46 0 46 29q0 16 -15 23t-46 12q-90 16 -90 71q0 36 27.5 55t73.5 19q38 0 90 -21q6 -7 6 -12q0 -7 -2 -9l-9 -17q-3 -6 -10 -6q-5 0 -7 2
q-40 17 -70 17q-42 0 -42 -26q0 -22 50 -31q22 -4 35.5 -7.5t31 -12t26.5 -22.5t9 -33q0 -36 -28 -56.5t-74 -20.5q-55 0 -103 25q-6 3 -6 11v6zM1192 12q0 56 37 91.5t92 35.5q58 0 95 -35.5t37 -91.5t-37 -92t-95 -36q-55 0 -92 35.5t-37 92.5zM0 120v6q0 9 11 9
q5 0 14.5 1t13.5 1q13 3 18 -9l70 -169l71 169q3 12 17 9q4 0 13.5 -1t15.5 -1q11 0 11 -9q0 -4 -3 -6l-102 -222q-6 -12 -16 -12h-13q-12 0 -16 12zM480 104q0 -15 -13 -15h-114v-55h77q13 0 13 -16v-11q0 -13 -13 -13h-77v-62h114q13 0 13 -12v-18q0 -16 -13 -16h-154
q-12 0 -12 16v222q0 13 12 13h154q13 0 13 -13v-20zM1126 -98q0 -6 -4.5 -11t-11.5 -5h-24q-15 0 -15 16v222q0 13 15 13h24q6 0 11 -4t5 -9v-222zM1690 -26v150q0 13 13 13h27q13 0 13 -13v-222q0 -16 -13 -16h-16q-10 0 -17 10l-123 151v-145q0 -6 -4 -11t-9 -5h-27
q-6 0 -10.5 5t-4.5 11v222q0 5 4.5 9t10.5 4h15q13 0 18 -9zM597 -3q22 -5 35 -5q53 0 53 51q0 22 -15 34t-38 12q-22 0 -35 -5v-87zM1321 -62q35 0 55 19t20 55q0 34 -20 54.5t-55 20.5q-33 0 -54 -21t-21 -54q0 -34 21 -54t54 -20z" />
    <glyph glyph-name="Aacute" unicode="&#xc1;" vert-adv-y="2063" 
d="M0 631q0 14 15 17q123 7 131 7q110 0 176 -60t66 -164q0 -103 -64 -166.5t-170 -63.5q-7 0 -139 6q-15 4 -15 18v406zM1338 427q0 102 63.5 165t165.5 63q101 0 163.5 -63t62.5 -165q0 -101 -62.5 -163.5t-163.5 -62.5q-102 0 -165.5 63.5t-63.5 162.5zM755 598
q0 -17 -16 -17h-211v-117h159q18 0 18 -18v-30q0 -16 -18 -16h-159v-127h223q15 0 15 -15v-33q0 -18 -15 -18h-273q-17 0 -17 18v406q0 15 17 15h261q16 0 16 -15v-33zM1181 635q5 11 19 11h19q14 0 17 -15q7 -71 44 -382q0 -3 1 -13t1 -11q0 -15 -15 -15h-16q-9 -3 -22 -3
t-16 15q0 5 -1 14t-1 13q-17 140 -30 266l-104 -172q-10 -10 -19 -10h-16q-12 0 -19 10l-103 174q-21 -185 -35 -295q0 -15 -16 -15h-22l-16 3q-15 0 -15 15q0 1 1 5t1 8q41 364 44 393q3 15 18 15h20q13 0 20 -11l129 -219zM66 271q42 -5 90 -5q74 0 117 44.5t43 120.5
q0 72 -44 115t-118 43q-7 0 -88 -6v-312zM1411 427q0 -73 42 -117t112 -44q72 0 115 44t43 117q0 74 -42.5 118t-113.5 44q-72 0 -114 -44t-42 -118zM741 -93q3 -5 3 -9q0 -9 -11 -9q-17 0 -26 -3q-11 0 -18 10l-26 57q-13 -5 -35 -5h-31v-46q0 -16 -13 -16h-25
q-12 0 -12 16v218q0 12 12 15q40 4 67 4q49 0 83.5 -24t34.5 -72q0 -45 -35 -71zM806 -54q3 9 10 9q5 0 7 -2q42 -23 81 -23q46 0 46 29q0 16 -15 23t-46 12q-90 16 -90 71q0 36 27.5 55t73.5 19q38 0 90 -21q6 -7 6 -12q0 -7 -2 -9l-9 -17q-3 -6 -10 -6q-5 0 -7 2
q-40 17 -70 17q-42 0 -42 -26q0 -22 50 -31q22 -4 35.5 -7.5t31 -12t26.5 -22.5t9 -33q0 -36 -28 -56.5t-74 -20.5q-55 0 -103 25q-6 3 -6 11v6zM1192 12q0 56 37 91.5t92 35.5q58 0 95 -35.5t37 -91.5t-37 -92t-95 -36q-55 0 -92 35.5t-37 92.5zM0 120v6q0 9 11 9
q5 0 14.5 1t13.5 1q13 3 18 -9l70 -169l71 169q3 12 17 9q4 0 13.5 -1t15.5 -1q11 0 11 -9q0 -4 -3 -6l-102 -222q-6 -12 -16 -12h-13q-12 0 -16 12zM480 104q0 -15 -13 -15h-114v-55h77q13 0 13 -16v-11q0 -13 -13 -13h-77v-62h114q13 0 13 -12v-18q0 -16 -13 -16h-154
q-12 0 -12 16v222q0 13 12 13h154q13 0 13 -13v-20zM1126 -98q0 -6 -4.5 -11t-11.5 -5h-24q-15 0 -15 16v222q0 13 15 13h24q6 0 11 -4t5 -9v-222zM1690 -26v150q0 13 13 13h27q13 0 13 -13v-222q0 -16 -13 -16h-16q-10 0 -17 10l-123 151v-145q0 -6 -4 -11t-9 -5h-27
q-6 0 -10.5 5t-4.5 11v222q0 5 4.5 9t10.5 4h15q13 0 18 -9zM597 -3q22 -5 35 -5q53 0 53 51q0 22 -15 34t-38 12q-22 0 -35 -5v-87zM1321 -62q35 0 55 19t20 55q0 34 -20 54.5t-55 20.5q-33 0 -54 -21t-21 -54q0 -34 21 -54t54 -20z" />
    <glyph glyph-name="Acircumflex" unicode="&#xc2;" vert-adv-y="2063" 
d="M0 631q0 14 15 17q123 7 131 7q110 0 176 -60t66 -164q0 -103 -64 -166.5t-170 -63.5q-7 0 -139 6q-15 4 -15 18v406zM1338 427q0 102 63.5 165t165.5 63q101 0 163.5 -63t62.5 -165q0 -101 -62.5 -163.5t-163.5 -62.5q-102 0 -165.5 63.5t-63.5 162.5zM755 598
q0 -17 -16 -17h-211v-117h159q18 0 18 -18v-30q0 -16 -18 -16h-159v-127h223q15 0 15 -15v-33q0 -18 -15 -18h-273q-17 0 -17 18v406q0 15 17 15h261q16 0 16 -15v-33zM1181 635q5 11 19 11h19q14 0 17 -15q7 -71 44 -382q0 -3 1 -13t1 -11q0 -15 -15 -15h-16q-9 -3 -22 -3
t-16 15q0 5 -1 14t-1 13q-17 140 -30 266l-104 -172q-10 -10 -19 -10h-16q-12 0 -19 10l-103 174q-21 -185 -35 -295q0 -15 -16 -15h-22l-16 3q-15 0 -15 15q0 1 1 5t1 8q41 364 44 393q3 15 18 15h20q13 0 20 -11l129 -219zM66 271q42 -5 90 -5q74 0 117 44.5t43 120.5
q0 72 -44 115t-118 43q-7 0 -88 -6v-312zM1411 427q0 -73 42 -117t112 -44q72 0 115 44t43 117q0 74 -42.5 118t-113.5 44q-72 0 -114 -44t-42 -118zM741 -93q3 -5 3 -9q0 -9 -11 -9q-17 0 -26 -3q-11 0 -18 10l-26 57q-13 -5 -35 -5h-31v-46q0 -16 -13 -16h-25
q-12 0 -12 16v218q0 12 12 15q40 4 67 4q49 0 83.5 -24t34.5 -72q0 -45 -35 -71zM806 -54q3 9 10 9q5 0 7 -2q42 -23 81 -23q46 0 46 29q0 16 -15 23t-46 12q-90 16 -90 71q0 36 27.5 55t73.5 19q38 0 90 -21q6 -7 6 -12q0 -7 -2 -9l-9 -17q-3 -6 -10 -6q-5 0 -7 2
q-40 17 -70 17q-42 0 -42 -26q0 -22 50 -31q22 -4 35.5 -7.5t31 -12t26.5 -22.5t9 -33q0 -36 -28 -56.5t-74 -20.5q-55 0 -103 25q-6 3 -6 11v6zM1192 12q0 56 37 91.5t92 35.5q58 0 95 -35.5t37 -91.5t-37 -92t-95 -36q-55 0 -92 35.5t-37 92.5zM0 120v6q0 9 11 9
q5 0 14.5 1t13.5 1q13 3 18 -9l70 -169l71 169q3 12 17 9q4 0 13.5 -1t15.5 -1q11 0 11 -9q0 -4 -3 -6l-102 -222q-6 -12 -16 -12h-13q-12 0 -16 12zM480 104q0 -15 -13 -15h-114v-55h77q13 0 13 -16v-11q0 -13 -13 -13h-77v-62h114q13 0 13 -12v-18q0 -16 -13 -16h-154
q-12 0 -12 16v222q0 13 12 13h154q13 0 13 -13v-20zM1126 -98q0 -6 -4.5 -11t-11.5 -5h-24q-15 0 -15 16v222q0 13 15 13h24q6 0 11 -4t5 -9v-222zM1690 -26v150q0 13 13 13h27q13 0 13 -13v-222q0 -16 -13 -16h-16q-10 0 -17 10l-123 151v-145q0 -6 -4 -11t-9 -5h-27
q-6 0 -10.5 5t-4.5 11v222q0 5 4.5 9t10.5 4h15q13 0 18 -9zM597 -3q22 -5 35 -5q53 0 53 51q0 22 -15 34t-38 12q-22 0 -35 -5v-87zM1321 -62q35 0 55 19t20 55q0 34 -20 54.5t-55 20.5q-33 0 -54 -21t-21 -54q0 -34 21 -54t54 -20z" />
    <glyph glyph-name="Atilde" unicode="&#xc3;" vert-adv-y="2063" 
d="M0 631q0 14 15 17q123 7 131 7q110 0 176 -60t66 -164q0 -103 -64 -166.5t-170 -63.5q-7 0 -139 6q-15 4 -15 18v406zM1338 427q0 102 63.5 165t165.5 63q101 0 163.5 -63t62.5 -165q0 -101 -62.5 -163.5t-163.5 -62.5q-102 0 -165.5 63.5t-63.5 162.5zM755 598
q0 -17 -16 -17h-211v-117h159q18 0 18 -18v-30q0 -16 -18 -16h-159v-127h223q15 0 15 -15v-33q0 -18 -15 -18h-273q-17 0 -17 18v406q0 15 17 15h261q16 0 16 -15v-33zM1181 635q5 11 19 11h19q14 0 17 -15q7 -71 44 -382q0 -3 1 -13t1 -11q0 -15 -15 -15h-16q-9 -3 -22 -3
t-16 15q0 5 -1 14t-1 13q-17 140 -30 266l-104 -172q-10 -10 -19 -10h-16q-12 0 -19 10l-103 174q-21 -185 -35 -295q0 -15 -16 -15h-22l-16 3q-15 0 -15 15q0 1 1 5t1 8q41 364 44 393q3 15 18 15h20q13 0 20 -11l129 -219zM66 271q42 -5 90 -5q74 0 117 44.5t43 120.5
q0 72 -44 115t-118 43q-7 0 -88 -6v-312zM1411 427q0 -73 42 -117t112 -44q72 0 115 44t43 117q0 74 -42.5 118t-113.5 44q-72 0 -114 -44t-42 -118zM741 -93q3 -5 3 -9q0 -9 -11 -9q-17 0 -26 -3q-11 0 -18 10l-26 57q-13 -5 -35 -5h-31v-46q0 -16 -13 -16h-25
q-12 0 -12 16v218q0 12 12 15q40 4 67 4q49 0 83.5 -24t34.5 -72q0 -45 -35 -71zM806 -54q3 9 10 9q5 0 7 -2q42 -23 81 -23q46 0 46 29q0 16 -15 23t-46 12q-90 16 -90 71q0 36 27.5 55t73.5 19q38 0 90 -21q6 -7 6 -12q0 -7 -2 -9l-9 -17q-3 -6 -10 -6q-5 0 -7 2
q-40 17 -70 17q-42 0 -42 -26q0 -22 50 -31q22 -4 35.5 -7.5t31 -12t26.5 -22.5t9 -33q0 -36 -28 -56.5t-74 -20.5q-55 0 -103 25q-6 3 -6 11v6zM1192 12q0 56 37 91.5t92 35.5q58 0 95 -35.5t37 -91.5t-37 -92t-95 -36q-55 0 -92 35.5t-37 92.5zM0 120v6q0 9 11 9
q5 0 14.5 1t13.5 1q13 3 18 -9l70 -169l71 169q3 12 17 9q4 0 13.5 -1t15.5 -1q11 0 11 -9q0 -4 -3 -6l-102 -222q-6 -12 -16 -12h-13q-12 0 -16 12zM480 104q0 -15 -13 -15h-114v-55h77q13 0 13 -16v-11q0 -13 -13 -13h-77v-62h114q13 0 13 -12v-18q0 -16 -13 -16h-154
q-12 0 -12 16v222q0 13 12 13h154q13 0 13 -13v-20zM1126 -98q0 -6 -4.5 -11t-11.5 -5h-24q-15 0 -15 16v222q0 13 15 13h24q6 0 11 -4t5 -9v-222zM1690 -26v150q0 13 13 13h27q13 0 13 -13v-222q0 -16 -13 -16h-16q-10 0 -17 10l-123 151v-145q0 -6 -4 -11t-9 -5h-27
q-6 0 -10.5 5t-4.5 11v222q0 5 4.5 9t10.5 4h15q13 0 18 -9zM597 -3q22 -5 35 -5q53 0 53 51q0 22 -15 34t-38 12q-22 0 -35 -5v-87zM1321 -62q35 0 55 19t20 55q0 34 -20 54.5t-55 20.5q-33 0 -54 -21t-21 -54q0 -34 21 -54t54 -20z" />
    <glyph glyph-name="Adieresis" unicode="&#xc4;" vert-adv-y="2063" 
d="M0 631q0 14 15 17q123 7 131 7q110 0 176 -60t66 -164q0 -103 -64 -166.5t-170 -63.5q-7 0 -139 6q-15 4 -15 18v406zM1338 427q0 102 63.5 165t165.5 63q101 0 163.5 -63t62.5 -165q0 -101 -62.5 -163.5t-163.5 -62.5q-102 0 -165.5 63.5t-63.5 162.5zM755 598
q0 -17 -16 -17h-211v-117h159q18 0 18 -18v-30q0 -16 -18 -16h-159v-127h223q15 0 15 -15v-33q0 -18 -15 -18h-273q-17 0 -17 18v406q0 15 17 15h261q16 0 16 -15v-33zM1181 635q5 11 19 11h19q14 0 17 -15q7 -71 44 -382q0 -3 1 -13t1 -11q0 -15 -15 -15h-16q-9 -3 -22 -3
t-16 15q0 5 -1 14t-1 13q-17 140 -30 266l-104 -172q-10 -10 -19 -10h-16q-12 0 -19 10l-103 174q-21 -185 -35 -295q0 -15 -16 -15h-22l-16 3q-15 0 -15 15q0 1 1 5t1 8q41 364 44 393q3 15 18 15h20q13 0 20 -11l129 -219zM66 271q42 -5 90 -5q74 0 117 44.5t43 120.5
q0 72 -44 115t-118 43q-7 0 -88 -6v-312zM1411 427q0 -73 42 -117t112 -44q72 0 115 44t43 117q0 74 -42.5 118t-113.5 44q-72 0 -114 -44t-42 -118zM741 -93q3 -5 3 -9q0 -9 -11 -9q-17 0 -26 -3q-11 0 -18 10l-26 57q-13 -5 -35 -5h-31v-46q0 -16 -13 -16h-25
q-12 0 -12 16v218q0 12 12 15q40 4 67 4q49 0 83.5 -24t34.5 -72q0 -45 -35 -71zM806 -54q3 9 10 9q5 0 7 -2q42 -23 81 -23q46 0 46 29q0 16 -15 23t-46 12q-90 16 -90 71q0 36 27.5 55t73.5 19q38 0 90 -21q6 -7 6 -12q0 -7 -2 -9l-9 -17q-3 -6 -10 -6q-5 0 -7 2
q-40 17 -70 17q-42 0 -42 -26q0 -22 50 -31q22 -4 35.5 -7.5t31 -12t26.5 -22.5t9 -33q0 -36 -28 -56.5t-74 -20.5q-55 0 -103 25q-6 3 -6 11v6zM1192 12q0 56 37 91.5t92 35.5q58 0 95 -35.5t37 -91.5t-37 -92t-95 -36q-55 0 -92 35.5t-37 92.5zM0 120v6q0 9 11 9
q5 0 14.5 1t13.5 1q13 3 18 -9l70 -169l71 169q3 12 17 9q4 0 13.5 -1t15.5 -1q11 0 11 -9q0 -4 -3 -6l-102 -222q-6 -12 -16 -12h-13q-12 0 -16 12zM480 104q0 -15 -13 -15h-114v-55h77q13 0 13 -16v-11q0 -13 -13 -13h-77v-62h114q13 0 13 -12v-18q0 -16 -13 -16h-154
q-12 0 -12 16v222q0 13 12 13h154q13 0 13 -13v-20zM1126 -98q0 -6 -4.5 -11t-11.5 -5h-24q-15 0 -15 16v222q0 13 15 13h24q6 0 11 -4t5 -9v-222zM1690 -26v150q0 13 13 13h27q13 0 13 -13v-222q0 -16 -13 -16h-16q-10 0 -17 10l-123 151v-145q0 -6 -4 -11t-9 -5h-27
q-6 0 -10.5 5t-4.5 11v222q0 5 4.5 9t10.5 4h15q13 0 18 -9zM597 -3q22 -5 35 -5q53 0 53 51q0 22 -15 34t-38 12q-22 0 -35 -5v-87zM1321 -62q35 0 55 19t20 55q0 34 -20 54.5t-55 20.5q-33 0 -54 -21t-21 -54q0 -34 21 -54t54 -20z" />
    <glyph glyph-name="Aring" unicode="&#xc5;" vert-adv-y="2063" 
d="M0 631q0 14 15 17q123 7 131 7q110 0 176 -60t66 -164q0 -103 -64 -166.5t-170 -63.5q-7 0 -139 6q-15 4 -15 18v406zM1338 427q0 102 63.5 165t165.5 63q101 0 163.5 -63t62.5 -165q0 -101 -62.5 -163.5t-163.5 -62.5q-102 0 -165.5 63.5t-63.5 162.5zM755 598
q0 -17 -16 -17h-211v-117h159q18 0 18 -18v-30q0 -16 -18 -16h-159v-127h223q15 0 15 -15v-33q0 -18 -15 -18h-273q-17 0 -17 18v406q0 15 17 15h261q16 0 16 -15v-33zM1181 635q5 11 19 11h19q14 0 17 -15q7 -71 44 -382q0 -3 1 -13t1 -11q0 -15 -15 -15h-16q-9 -3 -22 -3
t-16 15q0 5 -1 14t-1 13q-17 140 -30 266l-104 -172q-10 -10 -19 -10h-16q-12 0 -19 10l-103 174q-21 -185 -35 -295q0 -15 -16 -15h-22l-16 3q-15 0 -15 15q0 1 1 5t1 8q41 364 44 393q3 15 18 15h20q13 0 20 -11l129 -219zM66 271q42 -5 90 -5q74 0 117 44.5t43 120.5
q0 72 -44 115t-118 43q-7 0 -88 -6v-312zM1411 427q0 -73 42 -117t112 -44q72 0 115 44t43 117q0 74 -42.5 118t-113.5 44q-72 0 -114 -44t-42 -118zM741 -93q3 -5 3 -9q0 -9 -11 -9q-17 0 -26 -3q-11 0 -18 10l-26 57q-13 -5 -35 -5h-31v-46q0 -16 -13 -16h-25
q-12 0 -12 16v218q0 12 12 15q40 4 67 4q49 0 83.5 -24t34.5 -72q0 -45 -35 -71zM806 -54q3 9 10 9q5 0 7 -2q42 -23 81 -23q46 0 46 29q0 16 -15 23t-46 12q-90 16 -90 71q0 36 27.5 55t73.5 19q38 0 90 -21q6 -7 6 -12q0 -7 -2 -9l-9 -17q-3 -6 -10 -6q-5 0 -7 2
q-40 17 -70 17q-42 0 -42 -26q0 -22 50 -31q22 -4 35.5 -7.5t31 -12t26.5 -22.5t9 -33q0 -36 -28 -56.5t-74 -20.5q-55 0 -103 25q-6 3 -6 11v6zM1192 12q0 56 37 91.5t92 35.5q58 0 95 -35.5t37 -91.5t-37 -92t-95 -36q-55 0 -92 35.5t-37 92.5zM0 120v6q0 9 11 9
q5 0 14.5 1t13.5 1q13 3 18 -9l70 -169l71 169q3 12 17 9q4 0 13.5 -1t15.5 -1q11 0 11 -9q0 -4 -3 -6l-102 -222q-6 -12 -16 -12h-13q-12 0 -16 12zM480 104q0 -15 -13 -15h-114v-55h77q13 0 13 -16v-11q0 -13 -13 -13h-77v-62h114q13 0 13 -12v-18q0 -16 -13 -16h-154
q-12 0 -12 16v222q0 13 12 13h154q13 0 13 -13v-20zM1126 -98q0 -6 -4.5 -11t-11.5 -5h-24q-15 0 -15 16v222q0 13 15 13h24q6 0 11 -4t5 -9v-222zM1690 -26v150q0 13 13 13h27q13 0 13 -13v-222q0 -16 -13 -16h-16q-10 0 -17 10l-123 151v-145q0 -6 -4 -11t-9 -5h-27
q-6 0 -10.5 5t-4.5 11v222q0 5 4.5 9t10.5 4h15q13 0 18 -9zM597 -3q22 -5 35 -5q53 0 53 51q0 22 -15 34t-38 12q-22 0 -35 -5v-87zM1321 -62q35 0 55 19t20 55q0 34 -20 54.5t-55 20.5q-33 0 -54 -21t-21 -54q0 -34 21 -54t54 -20z" />
    <glyph glyph-name="AE" unicode="&#xc6;" vert-adv-y="2063" 
d="M0 631q0 14 15 17q123 7 131 7q110 0 176 -60t66 -164q0 -103 -64 -166.5t-170 -63.5q-7 0 -139 6q-15 4 -15 18v406zM1338 427q0 102 63.5 165t165.5 63q101 0 163.5 -63t62.5 -165q0 -101 -62.5 -163.5t-163.5 -62.5q-102 0 -165.5 63.5t-63.5 162.5zM755 598
q0 -17 -16 -17h-211v-117h159q18 0 18 -18v-30q0 -16 -18 -16h-159v-127h223q15 0 15 -15v-33q0 -18 -15 -18h-273q-17 0 -17 18v406q0 15 17 15h261q16 0 16 -15v-33zM1181 635q5 11 19 11h19q14 0 17 -15q7 -71 44 -382q0 -3 1 -13t1 -11q0 -15 -15 -15h-16q-9 -3 -22 -3
t-16 15q0 5 -1 14t-1 13q-17 140 -30 266l-104 -172q-10 -10 -19 -10h-16q-12 0 -19 10l-103 174q-21 -185 -35 -295q0 -15 -16 -15h-22l-16 3q-15 0 -15 15q0 1 1 5t1 8q41 364 44 393q3 15 18 15h20q13 0 20 -11l129 -219zM66 271q42 -5 90 -5q74 0 117 44.5t43 120.5
q0 72 -44 115t-118 43q-7 0 -88 -6v-312zM1411 427q0 -73 42 -117t112 -44q72 0 115 44t43 117q0 74 -42.5 118t-113.5 44q-72 0 -114 -44t-42 -118zM741 -93q3 -5 3 -9q0 -9 -11 -9q-17 0 -26 -3q-11 0 -18 10l-26 57q-13 -5 -35 -5h-31v-46q0 -16 -13 -16h-25
q-12 0 -12 16v218q0 12 12 15q40 4 67 4q49 0 83.5 -24t34.5 -72q0 -45 -35 -71zM806 -54q3 9 10 9q5 0 7 -2q42 -23 81 -23q46 0 46 29q0 16 -15 23t-46 12q-90 16 -90 71q0 36 27.5 55t73.5 19q38 0 90 -21q6 -7 6 -12q0 -7 -2 -9l-9 -17q-3 -6 -10 -6q-5 0 -7 2
q-40 17 -70 17q-42 0 -42 -26q0 -22 50 -31q22 -4 35.5 -7.5t31 -12t26.5 -22.5t9 -33q0 -36 -28 -56.5t-74 -20.5q-55 0 -103 25q-6 3 -6 11v6zM1192 12q0 56 37 91.5t92 35.5q58 0 95 -35.5t37 -91.5t-37 -92t-95 -36q-55 0 -92 35.5t-37 92.5zM0 120v6q0 9 11 9
q5 0 14.5 1t13.5 1q13 3 18 -9l70 -169l71 169q3 12 17 9q4 0 13.5 -1t15.5 -1q11 0 11 -9q0 -4 -3 -6l-102 -222q-6 -12 -16 -12h-13q-12 0 -16 12zM480 104q0 -15 -13 -15h-114v-55h77q13 0 13 -16v-11q0 -13 -13 -13h-77v-62h114q13 0 13 -12v-18q0 -16 -13 -16h-154
q-12 0 -12 16v222q0 13 12 13h154q13 0 13 -13v-20zM1126 -98q0 -6 -4.5 -11t-11.5 -5h-24q-15 0 -15 16v222q0 13 15 13h24q6 0 11 -4t5 -9v-222zM1690 -26v150q0 13 13 13h27q13 0 13 -13v-222q0 -16 -13 -16h-16q-10 0 -17 10l-123 151v-145q0 -6 -4 -11t-9 -5h-27
q-6 0 -10.5 5t-4.5 11v222q0 5 4.5 9t10.5 4h15q13 0 18 -9zM597 -3q22 -5 35 -5q53 0 53 51q0 22 -15 34t-38 12q-22 0 -35 -5v-87zM1321 -62q35 0 55 19t20 55q0 34 -20 54.5t-55 20.5q-33 0 -54 -21t-21 -54q0 -34 21 -54t54 -20z" />
    <glyph glyph-name="Ccedilla" unicode="&#xc7;" vert-adv-y="2063" 
d="M0 631q0 14 15 17q123 7 131 7q110 0 176 -60t66 -164q0 -103 -64 -166.5t-170 -63.5q-7 0 -139 6q-15 4 -15 18v406zM1338 427q0 102 63.5 165t165.5 63q101 0 163.5 -63t62.5 -165q0 -101 -62.5 -163.5t-163.5 -62.5q-102 0 -165.5 63.5t-63.5 162.5zM755 598
q0 -17 -16 -17h-211v-117h159q18 0 18 -18v-30q0 -16 -18 -16h-159v-127h223q15 0 15 -15v-33q0 -18 -15 -18h-273q-17 0 -17 18v406q0 15 17 15h261q16 0 16 -15v-33zM1181 635q5 11 19 11h19q14 0 17 -15q7 -71 44 -382q0 -3 1 -13t1 -11q0 -15 -15 -15h-16q-9 -3 -22 -3
t-16 15q0 5 -1 14t-1 13q-17 140 -30 266l-104 -172q-10 -10 -19 -10h-16q-12 0 -19 10l-103 174q-21 -185 -35 -295q0 -15 -16 -15h-22l-16 3q-15 0 -15 15q0 1 1 5t1 8q41 364 44 393q3 15 18 15h20q13 0 20 -11l129 -219zM66 271q42 -5 90 -5q74 0 117 44.5t43 120.5
q0 72 -44 115t-118 43q-7 0 -88 -6v-312zM1411 427q0 -73 42 -117t112 -44q72 0 115 44t43 117q0 74 -42.5 118t-113.5 44q-72 0 -114 -44t-42 -118zM741 -93q3 -5 3 -9q0 -9 -11 -9q-17 0 -26 -3q-11 0 -18 10l-26 57q-13 -5 -35 -5h-31v-46q0 -16 -13 -16h-25
q-12 0 -12 16v218q0 12 12 15q40 4 67 4q49 0 83.5 -24t34.5 -72q0 -45 -35 -71zM806 -54q3 9 10 9q5 0 7 -2q42 -23 81 -23q46 0 46 29q0 16 -15 23t-46 12q-90 16 -90 71q0 36 27.5 55t73.5 19q38 0 90 -21q6 -7 6 -12q0 -7 -2 -9l-9 -17q-3 -6 -10 -6q-5 0 -7 2
q-40 17 -70 17q-42 0 -42 -26q0 -22 50 -31q22 -4 35.5 -7.5t31 -12t26.5 -22.5t9 -33q0 -36 -28 -56.5t-74 -20.5q-55 0 -103 25q-6 3 -6 11v6zM1192 12q0 56 37 91.5t92 35.5q58 0 95 -35.5t37 -91.5t-37 -92t-95 -36q-55 0 -92 35.5t-37 92.5zM0 120v6q0 9 11 9
q5 0 14.5 1t13.5 1q13 3 18 -9l70 -169l71 169q3 12 17 9q4 0 13.5 -1t15.5 -1q11 0 11 -9q0 -4 -3 -6l-102 -222q-6 -12 -16 -12h-13q-12 0 -16 12zM480 104q0 -15 -13 -15h-114v-55h77q13 0 13 -16v-11q0 -13 -13 -13h-77v-62h114q13 0 13 -12v-18q0 -16 -13 -16h-154
q-12 0 -12 16v222q0 13 12 13h154q13 0 13 -13v-20zM1126 -98q0 -6 -4.5 -11t-11.5 -5h-24q-15 0 -15 16v222q0 13 15 13h24q6 0 11 -4t5 -9v-222zM1690 -26v150q0 13 13 13h27q13 0 13 -13v-222q0 -16 -13 -16h-16q-10 0 -17 10l-123 151v-145q0 -6 -4 -11t-9 -5h-27
q-6 0 -10.5 5t-4.5 11v222q0 5 4.5 9t10.5 4h15q13 0 18 -9zM597 -3q22 -5 35 -5q53 0 53 51q0 22 -15 34t-38 12q-22 0 -35 -5v-87zM1321 -62q35 0 55 19t20 55q0 34 -20 54.5t-55 20.5q-33 0 -54 -21t-21 -54q0 -34 21 -54t54 -20z" />
    <glyph glyph-name="Egrave" unicode="&#xc8;" vert-adv-y="2063" 
d="M0 631q0 14 15 17q123 7 131 7q110 0 176 -60t66 -164q0 -103 -64 -166.5t-170 -63.5q-7 0 -139 6q-15 4 -15 18v406zM1338 427q0 102 63.5 165t165.5 63q101 0 163.5 -63t62.5 -165q0 -101 -62.5 -163.5t-163.5 -62.5q-102 0 -165.5 63.5t-63.5 162.5zM755 598
q0 -17 -16 -17h-211v-117h159q18 0 18 -18v-30q0 -16 -18 -16h-159v-127h223q15 0 15 -15v-33q0 -18 -15 -18h-273q-17 0 -17 18v406q0 15 17 15h261q16 0 16 -15v-33zM1181 635q5 11 19 11h19q14 0 17 -15q7 -71 44 -382q0 -3 1 -13t1 -11q0 -15 -15 -15h-16q-9 -3 -22 -3
t-16 15q0 5 -1 14t-1 13q-17 140 -30 266l-104 -172q-10 -10 -19 -10h-16q-12 0 -19 10l-103 174q-21 -185 -35 -295q0 -15 -16 -15h-22l-16 3q-15 0 -15 15q0 1 1 5t1 8q41 364 44 393q3 15 18 15h20q13 0 20 -11l129 -219zM66 271q42 -5 90 -5q74 0 117 44.5t43 120.5
q0 72 -44 115t-118 43q-7 0 -88 -6v-312zM1411 427q0 -73 42 -117t112 -44q72 0 115 44t43 117q0 74 -42.5 118t-113.5 44q-72 0 -114 -44t-42 -118zM741 -93q3 -5 3 -9q0 -9 -11 -9q-17 0 -26 -3q-11 0 -18 10l-26 57q-13 -5 -35 -5h-31v-46q0 -16 -13 -16h-25
q-12 0 -12 16v218q0 12 12 15q40 4 67 4q49 0 83.5 -24t34.5 -72q0 -45 -35 -71zM806 -54q3 9 10 9q5 0 7 -2q42 -23 81 -23q46 0 46 29q0 16 -15 23t-46 12q-90 16 -90 71q0 36 27.5 55t73.5 19q38 0 90 -21q6 -7 6 -12q0 -7 -2 -9l-9 -17q-3 -6 -10 -6q-5 0 -7 2
q-40 17 -70 17q-42 0 -42 -26q0 -22 50 -31q22 -4 35.5 -7.5t31 -12t26.5 -22.5t9 -33q0 -36 -28 -56.5t-74 -20.5q-55 0 -103 25q-6 3 -6 11v6zM1192 12q0 56 37 91.5t92 35.5q58 0 95 -35.5t37 -91.5t-37 -92t-95 -36q-55 0 -92 35.5t-37 92.5zM0 120v6q0 9 11 9
q5 0 14.5 1t13.5 1q13 3 18 -9l70 -169l71 169q3 12 17 9q4 0 13.5 -1t15.5 -1q11 0 11 -9q0 -4 -3 -6l-102 -222q-6 -12 -16 -12h-13q-12 0 -16 12zM480 104q0 -15 -13 -15h-114v-55h77q13 0 13 -16v-11q0 -13 -13 -13h-77v-62h114q13 0 13 -12v-18q0 -16 -13 -16h-154
q-12 0 -12 16v222q0 13 12 13h154q13 0 13 -13v-20zM1126 -98q0 -6 -4.5 -11t-11.5 -5h-24q-15 0 -15 16v222q0 13 15 13h24q6 0 11 -4t5 -9v-222zM1690 -26v150q0 13 13 13h27q13 0 13 -13v-222q0 -16 -13 -16h-16q-10 0 -17 10l-123 151v-145q0 -6 -4 -11t-9 -5h-27
q-6 0 -10.5 5t-4.5 11v222q0 5 4.5 9t10.5 4h15q13 0 18 -9zM597 -3q22 -5 35 -5q53 0 53 51q0 22 -15 34t-38 12q-22 0 -35 -5v-87zM1321 -62q35 0 55 19t20 55q0 34 -20 54.5t-55 20.5q-33 0 -54 -21t-21 -54q0 -34 21 -54t54 -20z" />
    <glyph glyph-name="Eacute" unicode="&#xc9;" vert-adv-y="2063" 
d="M0 631q0 14 15 17q123 7 131 7q110 0 176 -60t66 -164q0 -103 -64 -166.5t-170 -63.5q-7 0 -139 6q-15 4 -15 18v406zM1338 427q0 102 63.5 165t165.5 63q101 0 163.5 -63t62.5 -165q0 -101 -62.5 -163.5t-163.5 -62.5q-102 0 -165.5 63.5t-63.5 162.5zM755 598
q0 -17 -16 -17h-211v-117h159q18 0 18 -18v-30q0 -16 -18 -16h-159v-127h223q15 0 15 -15v-33q0 -18 -15 -18h-273q-17 0 -17 18v406q0 15 17 15h261q16 0 16 -15v-33zM1181 635q5 11 19 11h19q14 0 17 -15q7 -71 44 -382q0 -3 1 -13t1 -11q0 -15 -15 -15h-16q-9 -3 -22 -3
t-16 15q0 5 -1 14t-1 13q-17 140 -30 266l-104 -172q-10 -10 -19 -10h-16q-12 0 -19 10l-103 174q-21 -185 -35 -295q0 -15 -16 -15h-22l-16 3q-15 0 -15 15q0 1 1 5t1 8q41 364 44 393q3 15 18 15h20q13 0 20 -11l129 -219zM66 271q42 -5 90 -5q74 0 117 44.5t43 120.5
q0 72 -44 115t-118 43q-7 0 -88 -6v-312zM1411 427q0 -73 42 -117t112 -44q72 0 115 44t43 117q0 74 -42.5 118t-113.5 44q-72 0 -114 -44t-42 -118zM741 -93q3 -5 3 -9q0 -9 -11 -9q-17 0 -26 -3q-11 0 -18 10l-26 57q-13 -5 -35 -5h-31v-46q0 -16 -13 -16h-25
q-12 0 -12 16v218q0 12 12 15q40 4 67 4q49 0 83.5 -24t34.5 -72q0 -45 -35 -71zM806 -54q3 9 10 9q5 0 7 -2q42 -23 81 -23q46 0 46 29q0 16 -15 23t-46 12q-90 16 -90 71q0 36 27.5 55t73.5 19q38 0 90 -21q6 -7 6 -12q0 -7 -2 -9l-9 -17q-3 -6 -10 -6q-5 0 -7 2
q-40 17 -70 17q-42 0 -42 -26q0 -22 50 -31q22 -4 35.5 -7.5t31 -12t26.5 -22.5t9 -33q0 -36 -28 -56.5t-74 -20.5q-55 0 -103 25q-6 3 -6 11v6zM1192 12q0 56 37 91.5t92 35.5q58 0 95 -35.5t37 -91.5t-37 -92t-95 -36q-55 0 -92 35.5t-37 92.5zM0 120v6q0 9 11 9
q5 0 14.5 1t13.5 1q13 3 18 -9l70 -169l71 169q3 12 17 9q4 0 13.5 -1t15.5 -1q11 0 11 -9q0 -4 -3 -6l-102 -222q-6 -12 -16 -12h-13q-12 0 -16 12zM480 104q0 -15 -13 -15h-114v-55h77q13 0 13 -16v-11q0 -13 -13 -13h-77v-62h114q13 0 13 -12v-18q0 -16 -13 -16h-154
q-12 0 -12 16v222q0 13 12 13h154q13 0 13 -13v-20zM1126 -98q0 -6 -4.5 -11t-11.5 -5h-24q-15 0 -15 16v222q0 13 15 13h24q6 0 11 -4t5 -9v-222zM1690 -26v150q0 13 13 13h27q13 0 13 -13v-222q0 -16 -13 -16h-16q-10 0 -17 10l-123 151v-145q0 -6 -4 -11t-9 -5h-27
q-6 0 -10.5 5t-4.5 11v222q0 5 4.5 9t10.5 4h15q13 0 18 -9zM597 -3q22 -5 35 -5q53 0 53 51q0 22 -15 34t-38 12q-22 0 -35 -5v-87zM1321 -62q35 0 55 19t20 55q0 34 -20 54.5t-55 20.5q-33 0 -54 -21t-21 -54q0 -34 21 -54t54 -20z" />
    <glyph glyph-name="Ecircumflex" unicode="&#xca;" vert-adv-y="2063" 
d="M0 631q0 14 15 17q123 7 131 7q110 0 176 -60t66 -164q0 -103 -64 -166.5t-170 -63.5q-7 0 -139 6q-15 4 -15 18v406zM1338 427q0 102 63.5 165t165.5 63q101 0 163.5 -63t62.5 -165q0 -101 -62.5 -163.5t-163.5 -62.5q-102 0 -165.5 63.5t-63.5 162.5zM755 598
q0 -17 -16 -17h-211v-117h159q18 0 18 -18v-30q0 -16 -18 -16h-159v-127h223q15 0 15 -15v-33q0 -18 -15 -18h-273q-17 0 -17 18v406q0 15 17 15h261q16 0 16 -15v-33zM1181 635q5 11 19 11h19q14 0 17 -15q7 -71 44 -382q0 -3 1 -13t1 -11q0 -15 -15 -15h-16q-9 -3 -22 -3
t-16 15q0 5 -1 14t-1 13q-17 140 -30 266l-104 -172q-10 -10 -19 -10h-16q-12 0 -19 10l-103 174q-21 -185 -35 -295q0 -15 -16 -15h-22l-16 3q-15 0 -15 15q0 1 1 5t1 8q41 364 44 393q3 15 18 15h20q13 0 20 -11l129 -219zM66 271q42 -5 90 -5q74 0 117 44.5t43 120.5
q0 72 -44 115t-118 43q-7 0 -88 -6v-312zM1411 427q0 -73 42 -117t112 -44q72 0 115 44t43 117q0 74 -42.5 118t-113.5 44q-72 0 -114 -44t-42 -118zM741 -93q3 -5 3 -9q0 -9 -11 -9q-17 0 -26 -3q-11 0 -18 10l-26 57q-13 -5 -35 -5h-31v-46q0 -16 -13 -16h-25
q-12 0 -12 16v218q0 12 12 15q40 4 67 4q49 0 83.5 -24t34.5 -72q0 -45 -35 -71zM806 -54q3 9 10 9q5 0 7 -2q42 -23 81 -23q46 0 46 29q0 16 -15 23t-46 12q-90 16 -90 71q0 36 27.5 55t73.5 19q38 0 90 -21q6 -7 6 -12q0 -7 -2 -9l-9 -17q-3 -6 -10 -6q-5 0 -7 2
q-40 17 -70 17q-42 0 -42 -26q0 -22 50 -31q22 -4 35.5 -7.5t31 -12t26.5 -22.5t9 -33q0 -36 -28 -56.5t-74 -20.5q-55 0 -103 25q-6 3 -6 11v6zM1192 12q0 56 37 91.5t92 35.5q58 0 95 -35.5t37 -91.5t-37 -92t-95 -36q-55 0 -92 35.5t-37 92.5zM0 120v6q0 9 11 9
q5 0 14.5 1t13.5 1q13 3 18 -9l70 -169l71 169q3 12 17 9q4 0 13.5 -1t15.5 -1q11 0 11 -9q0 -4 -3 -6l-102 -222q-6 -12 -16 -12h-13q-12 0 -16 12zM480 104q0 -15 -13 -15h-114v-55h77q13 0 13 -16v-11q0 -13 -13 -13h-77v-62h114q13 0 13 -12v-18q0 -16 -13 -16h-154
q-12 0 -12 16v222q0 13 12 13h154q13 0 13 -13v-20zM1126 -98q0 -6 -4.5 -11t-11.5 -5h-24q-15 0 -15 16v222q0 13 15 13h24q6 0 11 -4t5 -9v-222zM1690 -26v150q0 13 13 13h27q13 0 13 -13v-222q0 -16 -13 -16h-16q-10 0 -17 10l-123 151v-145q0 -6 -4 -11t-9 -5h-27
q-6 0 -10.5 5t-4.5 11v222q0 5 4.5 9t10.5 4h15q13 0 18 -9zM597 -3q22 -5 35 -5q53 0 53 51q0 22 -15 34t-38 12q-22 0 -35 -5v-87zM1321 -62q35 0 55 19t20 55q0 34 -20 54.5t-55 20.5q-33 0 -54 -21t-21 -54q0 -34 21 -54t54 -20z" />
    <glyph glyph-name="Edieresis" unicode="&#xcb;" vert-adv-y="2063" 
d="M0 631q0 14 15 17q123 7 131 7q110 0 176 -60t66 -164q0 -103 -64 -166.5t-170 -63.5q-7 0 -139 6q-15 4 -15 18v406zM1338 427q0 102 63.5 165t165.5 63q101 0 163.5 -63t62.5 -165q0 -101 -62.5 -163.5t-163.5 -62.5q-102 0 -165.5 63.5t-63.5 162.5zM755 598
q0 -17 -16 -17h-211v-117h159q18 0 18 -18v-30q0 -16 -18 -16h-159v-127h223q15 0 15 -15v-33q0 -18 -15 -18h-273q-17 0 -17 18v406q0 15 17 15h261q16 0 16 -15v-33zM1181 635q5 11 19 11h19q14 0 17 -15q7 -71 44 -382q0 -3 1 -13t1 -11q0 -15 -15 -15h-16q-9 -3 -22 -3
t-16 15q0 5 -1 14t-1 13q-17 140 -30 266l-104 -172q-10 -10 -19 -10h-16q-12 0 -19 10l-103 174q-21 -185 -35 -295q0 -15 -16 -15h-22l-16 3q-15 0 -15 15q0 1 1 5t1 8q41 364 44 393q3 15 18 15h20q13 0 20 -11l129 -219zM66 271q42 -5 90 -5q74 0 117 44.5t43 120.5
q0 72 -44 115t-118 43q-7 0 -88 -6v-312zM1411 427q0 -73 42 -117t112 -44q72 0 115 44t43 117q0 74 -42.5 118t-113.5 44q-72 0 -114 -44t-42 -118zM741 -93q3 -5 3 -9q0 -9 -11 -9q-17 0 -26 -3q-11 0 -18 10l-26 57q-13 -5 -35 -5h-31v-46q0 -16 -13 -16h-25
q-12 0 -12 16v218q0 12 12 15q40 4 67 4q49 0 83.5 -24t34.5 -72q0 -45 -35 -71zM806 -54q3 9 10 9q5 0 7 -2q42 -23 81 -23q46 0 46 29q0 16 -15 23t-46 12q-90 16 -90 71q0 36 27.5 55t73.5 19q38 0 90 -21q6 -7 6 -12q0 -7 -2 -9l-9 -17q-3 -6 -10 -6q-5 0 -7 2
q-40 17 -70 17q-42 0 -42 -26q0 -22 50 -31q22 -4 35.5 -7.5t31 -12t26.5 -22.5t9 -33q0 -36 -28 -56.5t-74 -20.5q-55 0 -103 25q-6 3 -6 11v6zM1192 12q0 56 37 91.5t92 35.5q58 0 95 -35.5t37 -91.5t-37 -92t-95 -36q-55 0 -92 35.5t-37 92.5zM0 120v6q0 9 11 9
q5 0 14.5 1t13.5 1q13 3 18 -9l70 -169l71 169q3 12 17 9q4 0 13.5 -1t15.5 -1q11 0 11 -9q0 -4 -3 -6l-102 -222q-6 -12 -16 -12h-13q-12 0 -16 12zM480 104q0 -15 -13 -15h-114v-55h77q13 0 13 -16v-11q0 -13 -13 -13h-77v-62h114q13 0 13 -12v-18q0 -16 -13 -16h-154
q-12 0 -12 16v222q0 13 12 13h154q13 0 13 -13v-20zM1126 -98q0 -6 -4.5 -11t-11.5 -5h-24q-15 0 -15 16v222q0 13 15 13h24q6 0 11 -4t5 -9v-222zM1690 -26v150q0 13 13 13h27q13 0 13 -13v-222q0 -16 -13 -16h-16q-10 0 -17 10l-123 151v-145q0 -6 -4 -11t-9 -5h-27
q-6 0 -10.5 5t-4.5 11v222q0 5 4.5 9t10.5 4h15q13 0 18 -9zM597 -3q22 -5 35 -5q53 0 53 51q0 22 -15 34t-38 12q-22 0 -35 -5v-87zM1321 -62q35 0 55 19t20 55q0 34 -20 54.5t-55 20.5q-33 0 -54 -21t-21 -54q0 -34 21 -54t54 -20z" />
    <glyph glyph-name="Igrave" unicode="&#xcc;" vert-adv-y="2063" 
d="M0 631q0 14 15 17q123 7 131 7q110 0 176 -60t66 -164q0 -103 -64 -166.5t-170 -63.5q-7 0 -139 6q-15 4 -15 18v406zM1338 427q0 102 63.5 165t165.5 63q101 0 163.5 -63t62.5 -165q0 -101 -62.5 -163.5t-163.5 -62.5q-102 0 -165.5 63.5t-63.5 162.5zM755 598
q0 -17 -16 -17h-211v-117h159q18 0 18 -18v-30q0 -16 -18 -16h-159v-127h223q15 0 15 -15v-33q0 -18 -15 -18h-273q-17 0 -17 18v406q0 15 17 15h261q16 0 16 -15v-33zM1181 635q5 11 19 11h19q14 0 17 -15q7 -71 44 -382q0 -3 1 -13t1 -11q0 -15 -15 -15h-16q-9 -3 -22 -3
t-16 15q0 5 -1 14t-1 13q-17 140 -30 266l-104 -172q-10 -10 -19 -10h-16q-12 0 -19 10l-103 174q-21 -185 -35 -295q0 -15 -16 -15h-22l-16 3q-15 0 -15 15q0 1 1 5t1 8q41 364 44 393q3 15 18 15h20q13 0 20 -11l129 -219zM66 271q42 -5 90 -5q74 0 117 44.5t43 120.5
q0 72 -44 115t-118 43q-7 0 -88 -6v-312zM1411 427q0 -73 42 -117t112 -44q72 0 115 44t43 117q0 74 -42.5 118t-113.5 44q-72 0 -114 -44t-42 -118zM741 -93q3 -5 3 -9q0 -9 -11 -9q-17 0 -26 -3q-11 0 -18 10l-26 57q-13 -5 -35 -5h-31v-46q0 -16 -13 -16h-25
q-12 0 -12 16v218q0 12 12 15q40 4 67 4q49 0 83.5 -24t34.5 -72q0 -45 -35 -71zM806 -54q3 9 10 9q5 0 7 -2q42 -23 81 -23q46 0 46 29q0 16 -15 23t-46 12q-90 16 -90 71q0 36 27.5 55t73.5 19q38 0 90 -21q6 -7 6 -12q0 -7 -2 -9l-9 -17q-3 -6 -10 -6q-5 0 -7 2
q-40 17 -70 17q-42 0 -42 -26q0 -22 50 -31q22 -4 35.5 -7.5t31 -12t26.5 -22.5t9 -33q0 -36 -28 -56.5t-74 -20.5q-55 0 -103 25q-6 3 -6 11v6zM1192 12q0 56 37 91.5t92 35.5q58 0 95 -35.5t37 -91.5t-37 -92t-95 -36q-55 0 -92 35.5t-37 92.5zM0 120v6q0 9 11 9
q5 0 14.5 1t13.5 1q13 3 18 -9l70 -169l71 169q3 12 17 9q4 0 13.5 -1t15.5 -1q11 0 11 -9q0 -4 -3 -6l-102 -222q-6 -12 -16 -12h-13q-12 0 -16 12zM480 104q0 -15 -13 -15h-114v-55h77q13 0 13 -16v-11q0 -13 -13 -13h-77v-62h114q13 0 13 -12v-18q0 -16 -13 -16h-154
q-12 0 -12 16v222q0 13 12 13h154q13 0 13 -13v-20zM1126 -98q0 -6 -4.5 -11t-11.5 -5h-24q-15 0 -15 16v222q0 13 15 13h24q6 0 11 -4t5 -9v-222zM1690 -26v150q0 13 13 13h27q13 0 13 -13v-222q0 -16 -13 -16h-16q-10 0 -17 10l-123 151v-145q0 -6 -4 -11t-9 -5h-27
q-6 0 -10.5 5t-4.5 11v222q0 5 4.5 9t10.5 4h15q13 0 18 -9zM597 -3q22 -5 35 -5q53 0 53 51q0 22 -15 34t-38 12q-22 0 -35 -5v-87zM1321 -62q35 0 55 19t20 55q0 34 -20 54.5t-55 20.5q-33 0 -54 -21t-21 -54q0 -34 21 -54t54 -20z" />
    <glyph glyph-name="Iacute" unicode="&#xcd;" vert-adv-y="2063" 
d="M0 631q0 14 15 17q123 7 131 7q110 0 176 -60t66 -164q0 -103 -64 -166.5t-170 -63.5q-7 0 -139 6q-15 4 -15 18v406zM1338 427q0 102 63.5 165t165.5 63q101 0 163.5 -63t62.5 -165q0 -101 -62.5 -163.5t-163.5 -62.5q-102 0 -165.5 63.5t-63.5 162.5zM755 598
q0 -17 -16 -17h-211v-117h159q18 0 18 -18v-30q0 -16 -18 -16h-159v-127h223q15 0 15 -15v-33q0 -18 -15 -18h-273q-17 0 -17 18v406q0 15 17 15h261q16 0 16 -15v-33zM1181 635q5 11 19 11h19q14 0 17 -15q7 -71 44 -382q0 -3 1 -13t1 -11q0 -15 -15 -15h-16q-9 -3 -22 -3
t-16 15q0 5 -1 14t-1 13q-17 140 -30 266l-104 -172q-10 -10 -19 -10h-16q-12 0 -19 10l-103 174q-21 -185 -35 -295q0 -15 -16 -15h-22l-16 3q-15 0 -15 15q0 1 1 5t1 8q41 364 44 393q3 15 18 15h20q13 0 20 -11l129 -219zM66 271q42 -5 90 -5q74 0 117 44.5t43 120.5
q0 72 -44 115t-118 43q-7 0 -88 -6v-312zM1411 427q0 -73 42 -117t112 -44q72 0 115 44t43 117q0 74 -42.5 118t-113.5 44q-72 0 -114 -44t-42 -118zM741 -93q3 -5 3 -9q0 -9 -11 -9q-17 0 -26 -3q-11 0 -18 10l-26 57q-13 -5 -35 -5h-31v-46q0 -16 -13 -16h-25
q-12 0 -12 16v218q0 12 12 15q40 4 67 4q49 0 83.5 -24t34.5 -72q0 -45 -35 -71zM806 -54q3 9 10 9q5 0 7 -2q42 -23 81 -23q46 0 46 29q0 16 -15 23t-46 12q-90 16 -90 71q0 36 27.5 55t73.5 19q38 0 90 -21q6 -7 6 -12q0 -7 -2 -9l-9 -17q-3 -6 -10 -6q-5 0 -7 2
q-40 17 -70 17q-42 0 -42 -26q0 -22 50 -31q22 -4 35.5 -7.5t31 -12t26.5 -22.5t9 -33q0 -36 -28 -56.5t-74 -20.5q-55 0 -103 25q-6 3 -6 11v6zM1192 12q0 56 37 91.5t92 35.5q58 0 95 -35.5t37 -91.5t-37 -92t-95 -36q-55 0 -92 35.5t-37 92.5zM0 120v6q0 9 11 9
q5 0 14.5 1t13.5 1q13 3 18 -9l70 -169l71 169q3 12 17 9q4 0 13.5 -1t15.5 -1q11 0 11 -9q0 -4 -3 -6l-102 -222q-6 -12 -16 -12h-13q-12 0 -16 12zM480 104q0 -15 -13 -15h-114v-55h77q13 0 13 -16v-11q0 -13 -13 -13h-77v-62h114q13 0 13 -12v-18q0 -16 -13 -16h-154
q-12 0 -12 16v222q0 13 12 13h154q13 0 13 -13v-20zM1126 -98q0 -6 -4.5 -11t-11.5 -5h-24q-15 0 -15 16v222q0 13 15 13h24q6 0 11 -4t5 -9v-222zM1690 -26v150q0 13 13 13h27q13 0 13 -13v-222q0 -16 -13 -16h-16q-10 0 -17 10l-123 151v-145q0 -6 -4 -11t-9 -5h-27
q-6 0 -10.5 5t-4.5 11v222q0 5 4.5 9t10.5 4h15q13 0 18 -9zM597 -3q22 -5 35 -5q53 0 53 51q0 22 -15 34t-38 12q-22 0 -35 -5v-87zM1321 -62q35 0 55 19t20 55q0 34 -20 54.5t-55 20.5q-33 0 -54 -21t-21 -54q0 -34 21 -54t54 -20z" />
    <glyph glyph-name="Icircumflex" unicode="&#xce;" vert-adv-y="2063" 
d="M0 631q0 14 15 17q123 7 131 7q110 0 176 -60t66 -164q0 -103 -64 -166.5t-170 -63.5q-7 0 -139 6q-15 4 -15 18v406zM1338 427q0 102 63.5 165t165.5 63q101 0 163.5 -63t62.5 -165q0 -101 -62.5 -163.5t-163.5 -62.5q-102 0 -165.5 63.5t-63.5 162.5zM755 598
q0 -17 -16 -17h-211v-117h159q18 0 18 -18v-30q0 -16 -18 -16h-159v-127h223q15 0 15 -15v-33q0 -18 -15 -18h-273q-17 0 -17 18v406q0 15 17 15h261q16 0 16 -15v-33zM1181 635q5 11 19 11h19q14 0 17 -15q7 -71 44 -382q0 -3 1 -13t1 -11q0 -15 -15 -15h-16q-9 -3 -22 -3
t-16 15q0 5 -1 14t-1 13q-17 140 -30 266l-104 -172q-10 -10 -19 -10h-16q-12 0 -19 10l-103 174q-21 -185 -35 -295q0 -15 -16 -15h-22l-16 3q-15 0 -15 15q0 1 1 5t1 8q41 364 44 393q3 15 18 15h20q13 0 20 -11l129 -219zM66 271q42 -5 90 -5q74 0 117 44.5t43 120.5
q0 72 -44 115t-118 43q-7 0 -88 -6v-312zM1411 427q0 -73 42 -117t112 -44q72 0 115 44t43 117q0 74 -42.5 118t-113.5 44q-72 0 -114 -44t-42 -118zM741 -93q3 -5 3 -9q0 -9 -11 -9q-17 0 -26 -3q-11 0 -18 10l-26 57q-13 -5 -35 -5h-31v-46q0 -16 -13 -16h-25
q-12 0 -12 16v218q0 12 12 15q40 4 67 4q49 0 83.5 -24t34.5 -72q0 -45 -35 -71zM806 -54q3 9 10 9q5 0 7 -2q42 -23 81 -23q46 0 46 29q0 16 -15 23t-46 12q-90 16 -90 71q0 36 27.5 55t73.5 19q38 0 90 -21q6 -7 6 -12q0 -7 -2 -9l-9 -17q-3 -6 -10 -6q-5 0 -7 2
q-40 17 -70 17q-42 0 -42 -26q0 -22 50 -31q22 -4 35.5 -7.5t31 -12t26.5 -22.5t9 -33q0 -36 -28 -56.5t-74 -20.5q-55 0 -103 25q-6 3 -6 11v6zM1192 12q0 56 37 91.5t92 35.5q58 0 95 -35.5t37 -91.5t-37 -92t-95 -36q-55 0 -92 35.5t-37 92.5zM0 120v6q0 9 11 9
q5 0 14.5 1t13.5 1q13 3 18 -9l70 -169l71 169q3 12 17 9q4 0 13.5 -1t15.5 -1q11 0 11 -9q0 -4 -3 -6l-102 -222q-6 -12 -16 -12h-13q-12 0 -16 12zM480 104q0 -15 -13 -15h-114v-55h77q13 0 13 -16v-11q0 -13 -13 -13h-77v-62h114q13 0 13 -12v-18q0 -16 -13 -16h-154
q-12 0 -12 16v222q0 13 12 13h154q13 0 13 -13v-20zM1126 -98q0 -6 -4.5 -11t-11.5 -5h-24q-15 0 -15 16v222q0 13 15 13h24q6 0 11 -4t5 -9v-222zM1690 -26v150q0 13 13 13h27q13 0 13 -13v-222q0 -16 -13 -16h-16q-10 0 -17 10l-123 151v-145q0 -6 -4 -11t-9 -5h-27
q-6 0 -10.5 5t-4.5 11v222q0 5 4.5 9t10.5 4h15q13 0 18 -9zM597 -3q22 -5 35 -5q53 0 53 51q0 22 -15 34t-38 12q-22 0 -35 -5v-87zM1321 -62q35 0 55 19t20 55q0 34 -20 54.5t-55 20.5q-33 0 -54 -21t-21 -54q0 -34 21 -54t54 -20z" />
    <glyph glyph-name="Idieresis" unicode="&#xcf;" vert-adv-y="2063" 
d="M0 631q0 14 15 17q123 7 131 7q110 0 176 -60t66 -164q0 -103 -64 -166.5t-170 -63.5q-7 0 -139 6q-15 4 -15 18v406zM1338 427q0 102 63.5 165t165.5 63q101 0 163.5 -63t62.5 -165q0 -101 -62.5 -163.5t-163.5 -62.5q-102 0 -165.5 63.5t-63.5 162.5zM755 598
q0 -17 -16 -17h-211v-117h159q18 0 18 -18v-30q0 -16 -18 -16h-159v-127h223q15 0 15 -15v-33q0 -18 -15 -18h-273q-17 0 -17 18v406q0 15 17 15h261q16 0 16 -15v-33zM1181 635q5 11 19 11h19q14 0 17 -15q7 -71 44 -382q0 -3 1 -13t1 -11q0 -15 -15 -15h-16q-9 -3 -22 -3
t-16 15q0 5 -1 14t-1 13q-17 140 -30 266l-104 -172q-10 -10 -19 -10h-16q-12 0 -19 10l-103 174q-21 -185 -35 -295q0 -15 -16 -15h-22l-16 3q-15 0 -15 15q0 1 1 5t1 8q41 364 44 393q3 15 18 15h20q13 0 20 -11l129 -219zM66 271q42 -5 90 -5q74 0 117 44.5t43 120.5
q0 72 -44 115t-118 43q-7 0 -88 -6v-312zM1411 427q0 -73 42 -117t112 -44q72 0 115 44t43 117q0 74 -42.5 118t-113.5 44q-72 0 -114 -44t-42 -118zM741 -93q3 -5 3 -9q0 -9 -11 -9q-17 0 -26 -3q-11 0 -18 10l-26 57q-13 -5 -35 -5h-31v-46q0 -16 -13 -16h-25
q-12 0 -12 16v218q0 12 12 15q40 4 67 4q49 0 83.5 -24t34.5 -72q0 -45 -35 -71zM806 -54q3 9 10 9q5 0 7 -2q42 -23 81 -23q46 0 46 29q0 16 -15 23t-46 12q-90 16 -90 71q0 36 27.5 55t73.5 19q38 0 90 -21q6 -7 6 -12q0 -7 -2 -9l-9 -17q-3 -6 -10 -6q-5 0 -7 2
q-40 17 -70 17q-42 0 -42 -26q0 -22 50 -31q22 -4 35.5 -7.5t31 -12t26.5 -22.5t9 -33q0 -36 -28 -56.5t-74 -20.5q-55 0 -103 25q-6 3 -6 11v6zM1192 12q0 56 37 91.5t92 35.5q58 0 95 -35.5t37 -91.5t-37 -92t-95 -36q-55 0 -92 35.5t-37 92.5zM0 120v6q0 9 11 9
q5 0 14.5 1t13.5 1q13 3 18 -9l70 -169l71 169q3 12 17 9q4 0 13.5 -1t15.5 -1q11 0 11 -9q0 -4 -3 -6l-102 -222q-6 -12 -16 -12h-13q-12 0 -16 12zM480 104q0 -15 -13 -15h-114v-55h77q13 0 13 -16v-11q0 -13 -13 -13h-77v-62h114q13 0 13 -12v-18q0 -16 -13 -16h-154
q-12 0 -12 16v222q0 13 12 13h154q13 0 13 -13v-20zM1126 -98q0 -6 -4.5 -11t-11.5 -5h-24q-15 0 -15 16v222q0 13 15 13h24q6 0 11 -4t5 -9v-222zM1690 -26v150q0 13 13 13h27q13 0 13 -13v-222q0 -16 -13 -16h-16q-10 0 -17 10l-123 151v-145q0 -6 -4 -11t-9 -5h-27
q-6 0 -10.5 5t-4.5 11v222q0 5 4.5 9t10.5 4h15q13 0 18 -9zM597 -3q22 -5 35 -5q53 0 53 51q0 22 -15 34t-38 12q-22 0 -35 -5v-87zM1321 -62q35 0 55 19t20 55q0 34 -20 54.5t-55 20.5q-33 0 -54 -21t-21 -54q0 -34 21 -54t54 -20z" />
    <glyph glyph-name="Ograve" unicode="&#xd2;" vert-adv-y="2063" 
d="M0 631q0 14 15 17q123 7 131 7q110 0 176 -60t66 -164q0 -103 -64 -166.5t-170 -63.5q-7 0 -139 6q-15 4 -15 18v406zM1338 427q0 102 63.5 165t165.5 63q101 0 163.5 -63t62.5 -165q0 -101 -62.5 -163.5t-163.5 -62.5q-102 0 -165.5 63.5t-63.5 162.5zM755 598
q0 -17 -16 -17h-211v-117h159q18 0 18 -18v-30q0 -16 -18 -16h-159v-127h223q15 0 15 -15v-33q0 -18 -15 -18h-273q-17 0 -17 18v406q0 15 17 15h261q16 0 16 -15v-33zM1181 635q5 11 19 11h19q14 0 17 -15q7 -71 44 -382q0 -3 1 -13t1 -11q0 -15 -15 -15h-16q-9 -3 -22 -3
t-16 15q0 5 -1 14t-1 13q-17 140 -30 266l-104 -172q-10 -10 -19 -10h-16q-12 0 -19 10l-103 174q-21 -185 -35 -295q0 -15 -16 -15h-22l-16 3q-15 0 -15 15q0 1 1 5t1 8q41 364 44 393q3 15 18 15h20q13 0 20 -11l129 -219zM66 271q42 -5 90 -5q74 0 117 44.5t43 120.5
q0 72 -44 115t-118 43q-7 0 -88 -6v-312zM1411 427q0 -73 42 -117t112 -44q72 0 115 44t43 117q0 74 -42.5 118t-113.5 44q-72 0 -114 -44t-42 -118zM741 -93q3 -5 3 -9q0 -9 -11 -9q-17 0 -26 -3q-11 0 -18 10l-26 57q-13 -5 -35 -5h-31v-46q0 -16 -13 -16h-25
q-12 0 -12 16v218q0 12 12 15q40 4 67 4q49 0 83.5 -24t34.5 -72q0 -45 -35 -71zM806 -54q3 9 10 9q5 0 7 -2q42 -23 81 -23q46 0 46 29q0 16 -15 23t-46 12q-90 16 -90 71q0 36 27.5 55t73.5 19q38 0 90 -21q6 -7 6 -12q0 -7 -2 -9l-9 -17q-3 -6 -10 -6q-5 0 -7 2
q-40 17 -70 17q-42 0 -42 -26q0 -22 50 -31q22 -4 35.5 -7.5t31 -12t26.5 -22.5t9 -33q0 -36 -28 -56.5t-74 -20.5q-55 0 -103 25q-6 3 -6 11v6zM1192 12q0 56 37 91.5t92 35.5q58 0 95 -35.5t37 -91.5t-37 -92t-95 -36q-55 0 -92 35.5t-37 92.5zM0 120v6q0 9 11 9
q5 0 14.5 1t13.5 1q13 3 18 -9l70 -169l71 169q3 12 17 9q4 0 13.5 -1t15.5 -1q11 0 11 -9q0 -4 -3 -6l-102 -222q-6 -12 -16 -12h-13q-12 0 -16 12zM480 104q0 -15 -13 -15h-114v-55h77q13 0 13 -16v-11q0 -13 -13 -13h-77v-62h114q13 0 13 -12v-18q0 -16 -13 -16h-154
q-12 0 -12 16v222q0 13 12 13h154q13 0 13 -13v-20zM1126 -98q0 -6 -4.5 -11t-11.5 -5h-24q-15 0 -15 16v222q0 13 15 13h24q6 0 11 -4t5 -9v-222zM1690 -26v150q0 13 13 13h27q13 0 13 -13v-222q0 -16 -13 -16h-16q-10 0 -17 10l-123 151v-145q0 -6 -4 -11t-9 -5h-27
q-6 0 -10.5 5t-4.5 11v222q0 5 4.5 9t10.5 4h15q13 0 18 -9zM597 -3q22 -5 35 -5q53 0 53 51q0 22 -15 34t-38 12q-22 0 -35 -5v-87zM1321 -62q35 0 55 19t20 55q0 34 -20 54.5t-55 20.5q-33 0 -54 -21t-21 -54q0 -34 21 -54t54 -20z" />
    <glyph glyph-name="Oacute" unicode="&#xd3;" vert-adv-y="2063" 
d="M0 631q0 14 15 17q123 7 131 7q110 0 176 -60t66 -164q0 -103 -64 -166.5t-170 -63.5q-7 0 -139 6q-15 4 -15 18v406zM1338 427q0 102 63.5 165t165.5 63q101 0 163.5 -63t62.5 -165q0 -101 -62.5 -163.5t-163.5 -62.5q-102 0 -165.5 63.5t-63.5 162.5zM755 598
q0 -17 -16 -17h-211v-117h159q18 0 18 -18v-30q0 -16 -18 -16h-159v-127h223q15 0 15 -15v-33q0 -18 -15 -18h-273q-17 0 -17 18v406q0 15 17 15h261q16 0 16 -15v-33zM1181 635q5 11 19 11h19q14 0 17 -15q7 -71 44 -382q0 -3 1 -13t1 -11q0 -15 -15 -15h-16q-9 -3 -22 -3
t-16 15q0 5 -1 14t-1 13q-17 140 -30 266l-104 -172q-10 -10 -19 -10h-16q-12 0 -19 10l-103 174q-21 -185 -35 -295q0 -15 -16 -15h-22l-16 3q-15 0 -15 15q0 1 1 5t1 8q41 364 44 393q3 15 18 15h20q13 0 20 -11l129 -219zM66 271q42 -5 90 -5q74 0 117 44.5t43 120.5
q0 72 -44 115t-118 43q-7 0 -88 -6v-312zM1411 427q0 -73 42 -117t112 -44q72 0 115 44t43 117q0 74 -42.5 118t-113.5 44q-72 0 -114 -44t-42 -118zM741 -93q3 -5 3 -9q0 -9 -11 -9q-17 0 -26 -3q-11 0 -18 10l-26 57q-13 -5 -35 -5h-31v-46q0 -16 -13 -16h-25
q-12 0 -12 16v218q0 12 12 15q40 4 67 4q49 0 83.5 -24t34.5 -72q0 -45 -35 -71zM806 -54q3 9 10 9q5 0 7 -2q42 -23 81 -23q46 0 46 29q0 16 -15 23t-46 12q-90 16 -90 71q0 36 27.5 55t73.5 19q38 0 90 -21q6 -7 6 -12q0 -7 -2 -9l-9 -17q-3 -6 -10 -6q-5 0 -7 2
q-40 17 -70 17q-42 0 -42 -26q0 -22 50 -31q22 -4 35.5 -7.5t31 -12t26.5 -22.5t9 -33q0 -36 -28 -56.5t-74 -20.5q-55 0 -103 25q-6 3 -6 11v6zM1192 12q0 56 37 91.5t92 35.5q58 0 95 -35.5t37 -91.5t-37 -92t-95 -36q-55 0 -92 35.5t-37 92.5zM0 120v6q0 9 11 9
q5 0 14.5 1t13.5 1q13 3 18 -9l70 -169l71 169q3 12 17 9q4 0 13.5 -1t15.5 -1q11 0 11 -9q0 -4 -3 -6l-102 -222q-6 -12 -16 -12h-13q-12 0 -16 12zM480 104q0 -15 -13 -15h-114v-55h77q13 0 13 -16v-11q0 -13 -13 -13h-77v-62h114q13 0 13 -12v-18q0 -16 -13 -16h-154
q-12 0 -12 16v222q0 13 12 13h154q13 0 13 -13v-20zM1126 -98q0 -6 -4.5 -11t-11.5 -5h-24q-15 0 -15 16v222q0 13 15 13h24q6 0 11 -4t5 -9v-222zM1690 -26v150q0 13 13 13h27q13 0 13 -13v-222q0 -16 -13 -16h-16q-10 0 -17 10l-123 151v-145q0 -6 -4 -11t-9 -5h-27
q-6 0 -10.5 5t-4.5 11v222q0 5 4.5 9t10.5 4h15q13 0 18 -9zM597 -3q22 -5 35 -5q53 0 53 51q0 22 -15 34t-38 12q-22 0 -35 -5v-87zM1321 -62q35 0 55 19t20 55q0 34 -20 54.5t-55 20.5q-33 0 -54 -21t-21 -54q0 -34 21 -54t54 -20z" />
    <glyph glyph-name="Ocircumflex" unicode="&#xd4;" vert-adv-y="2063" 
d="M0 631q0 14 15 17q123 7 131 7q110 0 176 -60t66 -164q0 -103 -64 -166.5t-170 -63.5q-7 0 -139 6q-15 4 -15 18v406zM1338 427q0 102 63.5 165t165.5 63q101 0 163.5 -63t62.5 -165q0 -101 -62.5 -163.5t-163.5 -62.5q-102 0 -165.5 63.5t-63.5 162.5zM755 598
q0 -17 -16 -17h-211v-117h159q18 0 18 -18v-30q0 -16 -18 -16h-159v-127h223q15 0 15 -15v-33q0 -18 -15 -18h-273q-17 0 -17 18v406q0 15 17 15h261q16 0 16 -15v-33zM1181 635q5 11 19 11h19q14 0 17 -15q7 -71 44 -382q0 -3 1 -13t1 -11q0 -15 -15 -15h-16q-9 -3 -22 -3
t-16 15q0 5 -1 14t-1 13q-17 140 -30 266l-104 -172q-10 -10 -19 -10h-16q-12 0 -19 10l-103 174q-21 -185 -35 -295q0 -15 -16 -15h-22l-16 3q-15 0 -15 15q0 1 1 5t1 8q41 364 44 393q3 15 18 15h20q13 0 20 -11l129 -219zM66 271q42 -5 90 -5q74 0 117 44.5t43 120.5
q0 72 -44 115t-118 43q-7 0 -88 -6v-312zM1411 427q0 -73 42 -117t112 -44q72 0 115 44t43 117q0 74 -42.5 118t-113.5 44q-72 0 -114 -44t-42 -118zM741 -93q3 -5 3 -9q0 -9 -11 -9q-17 0 -26 -3q-11 0 -18 10l-26 57q-13 -5 -35 -5h-31v-46q0 -16 -13 -16h-25
q-12 0 -12 16v218q0 12 12 15q40 4 67 4q49 0 83.5 -24t34.5 -72q0 -45 -35 -71zM806 -54q3 9 10 9q5 0 7 -2q42 -23 81 -23q46 0 46 29q0 16 -15 23t-46 12q-90 16 -90 71q0 36 27.5 55t73.5 19q38 0 90 -21q6 -7 6 -12q0 -7 -2 -9l-9 -17q-3 -6 -10 -6q-5 0 -7 2
q-40 17 -70 17q-42 0 -42 -26q0 -22 50 -31q22 -4 35.5 -7.5t31 -12t26.5 -22.5t9 -33q0 -36 -28 -56.5t-74 -20.5q-55 0 -103 25q-6 3 -6 11v6zM1192 12q0 56 37 91.5t92 35.5q58 0 95 -35.5t37 -91.5t-37 -92t-95 -36q-55 0 -92 35.5t-37 92.5zM0 120v6q0 9 11 9
q5 0 14.5 1t13.5 1q13 3 18 -9l70 -169l71 169q3 12 17 9q4 0 13.5 -1t15.5 -1q11 0 11 -9q0 -4 -3 -6l-102 -222q-6 -12 -16 -12h-13q-12 0 -16 12zM480 104q0 -15 -13 -15h-114v-55h77q13 0 13 -16v-11q0 -13 -13 -13h-77v-62h114q13 0 13 -12v-18q0 -16 -13 -16h-154
q-12 0 -12 16v222q0 13 12 13h154q13 0 13 -13v-20zM1126 -98q0 -6 -4.5 -11t-11.5 -5h-24q-15 0 -15 16v222q0 13 15 13h24q6 0 11 -4t5 -9v-222zM1690 -26v150q0 13 13 13h27q13 0 13 -13v-222q0 -16 -13 -16h-16q-10 0 -17 10l-123 151v-145q0 -6 -4 -11t-9 -5h-27
q-6 0 -10.5 5t-4.5 11v222q0 5 4.5 9t10.5 4h15q13 0 18 -9zM597 -3q22 -5 35 -5q53 0 53 51q0 22 -15 34t-38 12q-22 0 -35 -5v-87zM1321 -62q35 0 55 19t20 55q0 34 -20 54.5t-55 20.5q-33 0 -54 -21t-21 -54q0 -34 21 -54t54 -20z" />
    <glyph glyph-name="Otilde" unicode="&#xd5;" vert-adv-y="2063" 
d="M0 631q0 14 15 17q123 7 131 7q110 0 176 -60t66 -164q0 -103 -64 -166.5t-170 -63.5q-7 0 -139 6q-15 4 -15 18v406zM1338 427q0 102 63.5 165t165.5 63q101 0 163.5 -63t62.5 -165q0 -101 -62.5 -163.5t-163.5 -62.5q-102 0 -165.5 63.5t-63.5 162.5zM755 598
q0 -17 -16 -17h-211v-117h159q18 0 18 -18v-30q0 -16 -18 -16h-159v-127h223q15 0 15 -15v-33q0 -18 -15 -18h-273q-17 0 -17 18v406q0 15 17 15h261q16 0 16 -15v-33zM1181 635q5 11 19 11h19q14 0 17 -15q7 -71 44 -382q0 -3 1 -13t1 -11q0 -15 -15 -15h-16q-9 -3 -22 -3
t-16 15q0 5 -1 14t-1 13q-17 140 -30 266l-104 -172q-10 -10 -19 -10h-16q-12 0 -19 10l-103 174q-21 -185 -35 -295q0 -15 -16 -15h-22l-16 3q-15 0 -15 15q0 1 1 5t1 8q41 364 44 393q3 15 18 15h20q13 0 20 -11l129 -219zM66 271q42 -5 90 -5q74 0 117 44.5t43 120.5
q0 72 -44 115t-118 43q-7 0 -88 -6v-312zM1411 427q0 -73 42 -117t112 -44q72 0 115 44t43 117q0 74 -42.5 118t-113.5 44q-72 0 -114 -44t-42 -118zM741 -93q3 -5 3 -9q0 -9 -11 -9q-17 0 -26 -3q-11 0 -18 10l-26 57q-13 -5 -35 -5h-31v-46q0 -16 -13 -16h-25
q-12 0 -12 16v218q0 12 12 15q40 4 67 4q49 0 83.5 -24t34.5 -72q0 -45 -35 -71zM806 -54q3 9 10 9q5 0 7 -2q42 -23 81 -23q46 0 46 29q0 16 -15 23t-46 12q-90 16 -90 71q0 36 27.5 55t73.5 19q38 0 90 -21q6 -7 6 -12q0 -7 -2 -9l-9 -17q-3 -6 -10 -6q-5 0 -7 2
q-40 17 -70 17q-42 0 -42 -26q0 -22 50 -31q22 -4 35.5 -7.5t31 -12t26.5 -22.5t9 -33q0 -36 -28 -56.5t-74 -20.5q-55 0 -103 25q-6 3 -6 11v6zM1192 12q0 56 37 91.5t92 35.5q58 0 95 -35.5t37 -91.5t-37 -92t-95 -36q-55 0 -92 35.5t-37 92.5zM0 120v6q0 9 11 9
q5 0 14.5 1t13.5 1q13 3 18 -9l70 -169l71 169q3 12 17 9q4 0 13.5 -1t15.5 -1q11 0 11 -9q0 -4 -3 -6l-102 -222q-6 -12 -16 -12h-13q-12 0 -16 12zM480 104q0 -15 -13 -15h-114v-55h77q13 0 13 -16v-11q0 -13 -13 -13h-77v-62h114q13 0 13 -12v-18q0 -16 -13 -16h-154
q-12 0 -12 16v222q0 13 12 13h154q13 0 13 -13v-20zM1126 -98q0 -6 -4.5 -11t-11.5 -5h-24q-15 0 -15 16v222q0 13 15 13h24q6 0 11 -4t5 -9v-222zM1690 -26v150q0 13 13 13h27q13 0 13 -13v-222q0 -16 -13 -16h-16q-10 0 -17 10l-123 151v-145q0 -6 -4 -11t-9 -5h-27
q-6 0 -10.5 5t-4.5 11v222q0 5 4.5 9t10.5 4h15q13 0 18 -9zM597 -3q22 -5 35 -5q53 0 53 51q0 22 -15 34t-38 12q-22 0 -35 -5v-87zM1321 -62q35 0 55 19t20 55q0 34 -20 54.5t-55 20.5q-33 0 -54 -21t-21 -54q0 -34 21 -54t54 -20z" />
    <glyph glyph-name="Odieresis" unicode="&#xd6;" vert-adv-y="2063" 
d="M0 631q0 14 15 17q123 7 131 7q110 0 176 -60t66 -164q0 -103 -64 -166.5t-170 -63.5q-7 0 -139 6q-15 4 -15 18v406zM1338 427q0 102 63.5 165t165.5 63q101 0 163.5 -63t62.5 -165q0 -101 -62.5 -163.5t-163.5 -62.5q-102 0 -165.5 63.5t-63.5 162.5zM755 598
q0 -17 -16 -17h-211v-117h159q18 0 18 -18v-30q0 -16 -18 -16h-159v-127h223q15 0 15 -15v-33q0 -18 -15 -18h-273q-17 0 -17 18v406q0 15 17 15h261q16 0 16 -15v-33zM1181 635q5 11 19 11h19q14 0 17 -15q7 -71 44 -382q0 -3 1 -13t1 -11q0 -15 -15 -15h-16q-9 -3 -22 -3
t-16 15q0 5 -1 14t-1 13q-17 140 -30 266l-104 -172q-10 -10 -19 -10h-16q-12 0 -19 10l-103 174q-21 -185 -35 -295q0 -15 -16 -15h-22l-16 3q-15 0 -15 15q0 1 1 5t1 8q41 364 44 393q3 15 18 15h20q13 0 20 -11l129 -219zM66 271q42 -5 90 -5q74 0 117 44.5t43 120.5
q0 72 -44 115t-118 43q-7 0 -88 -6v-312zM1411 427q0 -73 42 -117t112 -44q72 0 115 44t43 117q0 74 -42.5 118t-113.5 44q-72 0 -114 -44t-42 -118zM741 -93q3 -5 3 -9q0 -9 -11 -9q-17 0 -26 -3q-11 0 -18 10l-26 57q-13 -5 -35 -5h-31v-46q0 -16 -13 -16h-25
q-12 0 -12 16v218q0 12 12 15q40 4 67 4q49 0 83.5 -24t34.5 -72q0 -45 -35 -71zM806 -54q3 9 10 9q5 0 7 -2q42 -23 81 -23q46 0 46 29q0 16 -15 23t-46 12q-90 16 -90 71q0 36 27.5 55t73.5 19q38 0 90 -21q6 -7 6 -12q0 -7 -2 -9l-9 -17q-3 -6 -10 -6q-5 0 -7 2
q-40 17 -70 17q-42 0 -42 -26q0 -22 50 -31q22 -4 35.5 -7.5t31 -12t26.5 -22.5t9 -33q0 -36 -28 -56.5t-74 -20.5q-55 0 -103 25q-6 3 -6 11v6zM1192 12q0 56 37 91.5t92 35.5q58 0 95 -35.5t37 -91.5t-37 -92t-95 -36q-55 0 -92 35.5t-37 92.5zM0 120v6q0 9 11 9
q5 0 14.5 1t13.5 1q13 3 18 -9l70 -169l71 169q3 12 17 9q4 0 13.5 -1t15.5 -1q11 0 11 -9q0 -4 -3 -6l-102 -222q-6 -12 -16 -12h-13q-12 0 -16 12zM480 104q0 -15 -13 -15h-114v-55h77q13 0 13 -16v-11q0 -13 -13 -13h-77v-62h114q13 0 13 -12v-18q0 -16 -13 -16h-154
q-12 0 -12 16v222q0 13 12 13h154q13 0 13 -13v-20zM1126 -98q0 -6 -4.5 -11t-11.5 -5h-24q-15 0 -15 16v222q0 13 15 13h24q6 0 11 -4t5 -9v-222zM1690 -26v150q0 13 13 13h27q13 0 13 -13v-222q0 -16 -13 -16h-16q-10 0 -17 10l-123 151v-145q0 -6 -4 -11t-9 -5h-27
q-6 0 -10.5 5t-4.5 11v222q0 5 4.5 9t10.5 4h15q13 0 18 -9zM597 -3q22 -5 35 -5q53 0 53 51q0 22 -15 34t-38 12q-22 0 -35 -5v-87zM1321 -62q35 0 55 19t20 55q0 34 -20 54.5t-55 20.5q-33 0 -54 -21t-21 -54q0 -34 21 -54t54 -20z" />
    <glyph glyph-name="Oslash" unicode="&#xd8;" vert-adv-y="2063" 
d="M0 631q0 14 15 17q123 7 131 7q110 0 176 -60t66 -164q0 -103 -64 -166.5t-170 -63.5q-7 0 -139 6q-15 4 -15 18v406zM1338 427q0 102 63.5 165t165.5 63q101 0 163.5 -63t62.5 -165q0 -101 -62.5 -163.5t-163.5 -62.5q-102 0 -165.5 63.5t-63.5 162.5zM755 598
q0 -17 -16 -17h-211v-117h159q18 0 18 -18v-30q0 -16 -18 -16h-159v-127h223q15 0 15 -15v-33q0 -18 -15 -18h-273q-17 0 -17 18v406q0 15 17 15h261q16 0 16 -15v-33zM1181 635q5 11 19 11h19q14 0 17 -15q7 -71 44 -382q0 -3 1 -13t1 -11q0 -15 -15 -15h-16q-9 -3 -22 -3
t-16 15q0 5 -1 14t-1 13q-17 140 -30 266l-104 -172q-10 -10 -19 -10h-16q-12 0 -19 10l-103 174q-21 -185 -35 -295q0 -15 -16 -15h-22l-16 3q-15 0 -15 15q0 1 1 5t1 8q41 364 44 393q3 15 18 15h20q13 0 20 -11l129 -219zM66 271q42 -5 90 -5q74 0 117 44.5t43 120.5
q0 72 -44 115t-118 43q-7 0 -88 -6v-312zM1411 427q0 -73 42 -117t112 -44q72 0 115 44t43 117q0 74 -42.5 118t-113.5 44q-72 0 -114 -44t-42 -118zM741 -93q3 -5 3 -9q0 -9 -11 -9q-17 0 -26 -3q-11 0 -18 10l-26 57q-13 -5 -35 -5h-31v-46q0 -16 -13 -16h-25
q-12 0 -12 16v218q0 12 12 15q40 4 67 4q49 0 83.5 -24t34.5 -72q0 -45 -35 -71zM806 -54q3 9 10 9q5 0 7 -2q42 -23 81 -23q46 0 46 29q0 16 -15 23t-46 12q-90 16 -90 71q0 36 27.5 55t73.5 19q38 0 90 -21q6 -7 6 -12q0 -7 -2 -9l-9 -17q-3 -6 -10 -6q-5 0 -7 2
q-40 17 -70 17q-42 0 -42 -26q0 -22 50 -31q22 -4 35.5 -7.5t31 -12t26.5 -22.5t9 -33q0 -36 -28 -56.5t-74 -20.5q-55 0 -103 25q-6 3 -6 11v6zM1192 12q0 56 37 91.5t92 35.5q58 0 95 -35.5t37 -91.5t-37 -92t-95 -36q-55 0 -92 35.5t-37 92.5zM0 120v6q0 9 11 9
q5 0 14.5 1t13.5 1q13 3 18 -9l70 -169l71 169q3 12 17 9q4 0 13.5 -1t15.5 -1q11 0 11 -9q0 -4 -3 -6l-102 -222q-6 -12 -16 -12h-13q-12 0 -16 12zM480 104q0 -15 -13 -15h-114v-55h77q13 0 13 -16v-11q0 -13 -13 -13h-77v-62h114q13 0 13 -12v-18q0 -16 -13 -16h-154
q-12 0 -12 16v222q0 13 12 13h154q13 0 13 -13v-20zM1126 -98q0 -6 -4.5 -11t-11.5 -5h-24q-15 0 -15 16v222q0 13 15 13h24q6 0 11 -4t5 -9v-222zM1690 -26v150q0 13 13 13h27q13 0 13 -13v-222q0 -16 -13 -16h-16q-10 0 -17 10l-123 151v-145q0 -6 -4 -11t-9 -5h-27
q-6 0 -10.5 5t-4.5 11v222q0 5 4.5 9t10.5 4h15q13 0 18 -9zM597 -3q22 -5 35 -5q53 0 53 51q0 22 -15 34t-38 12q-22 0 -35 -5v-87zM1321 -62q35 0 55 19t20 55q0 34 -20 54.5t-55 20.5q-33 0 -54 -21t-21 -54q0 -34 21 -54t54 -20z" />
    <glyph glyph-name="Ugrave" unicode="&#xd9;" vert-adv-y="2063" 
d="M0 631q0 14 15 17q123 7 131 7q110 0 176 -60t66 -164q0 -103 -64 -166.5t-170 -63.5q-7 0 -139 6q-15 4 -15 18v406zM1338 427q0 102 63.5 165t165.5 63q101 0 163.5 -63t62.5 -165q0 -101 -62.5 -163.5t-163.5 -62.5q-102 0 -165.5 63.5t-63.5 162.5zM755 598
q0 -17 -16 -17h-211v-117h159q18 0 18 -18v-30q0 -16 -18 -16h-159v-127h223q15 0 15 -15v-33q0 -18 -15 -18h-273q-17 0 -17 18v406q0 15 17 15h261q16 0 16 -15v-33zM1181 635q5 11 19 11h19q14 0 17 -15q7 -71 44 -382q0 -3 1 -13t1 -11q0 -15 -15 -15h-16q-9 -3 -22 -3
t-16 15q0 5 -1 14t-1 13q-17 140 -30 266l-104 -172q-10 -10 -19 -10h-16q-12 0 -19 10l-103 174q-21 -185 -35 -295q0 -15 -16 -15h-22l-16 3q-15 0 -15 15q0 1 1 5t1 8q41 364 44 393q3 15 18 15h20q13 0 20 -11l129 -219zM66 271q42 -5 90 -5q74 0 117 44.5t43 120.5
q0 72 -44 115t-118 43q-7 0 -88 -6v-312zM1411 427q0 -73 42 -117t112 -44q72 0 115 44t43 117q0 74 -42.5 118t-113.5 44q-72 0 -114 -44t-42 -118zM741 -93q3 -5 3 -9q0 -9 -11 -9q-17 0 -26 -3q-11 0 -18 10l-26 57q-13 -5 -35 -5h-31v-46q0 -16 -13 -16h-25
q-12 0 -12 16v218q0 12 12 15q40 4 67 4q49 0 83.5 -24t34.5 -72q0 -45 -35 -71zM806 -54q3 9 10 9q5 0 7 -2q42 -23 81 -23q46 0 46 29q0 16 -15 23t-46 12q-90 16 -90 71q0 36 27.5 55t73.5 19q38 0 90 -21q6 -7 6 -12q0 -7 -2 -9l-9 -17q-3 -6 -10 -6q-5 0 -7 2
q-40 17 -70 17q-42 0 -42 -26q0 -22 50 -31q22 -4 35.5 -7.5t31 -12t26.5 -22.5t9 -33q0 -36 -28 -56.5t-74 -20.5q-55 0 -103 25q-6 3 -6 11v6zM1192 12q0 56 37 91.5t92 35.5q58 0 95 -35.5t37 -91.5t-37 -92t-95 -36q-55 0 -92 35.5t-37 92.5zM0 120v6q0 9 11 9
q5 0 14.5 1t13.5 1q13 3 18 -9l70 -169l71 169q3 12 17 9q4 0 13.5 -1t15.5 -1q11 0 11 -9q0 -4 -3 -6l-102 -222q-6 -12 -16 -12h-13q-12 0 -16 12zM480 104q0 -15 -13 -15h-114v-55h77q13 0 13 -16v-11q0 -13 -13 -13h-77v-62h114q13 0 13 -12v-18q0 -16 -13 -16h-154
q-12 0 -12 16v222q0 13 12 13h154q13 0 13 -13v-20zM1126 -98q0 -6 -4.5 -11t-11.5 -5h-24q-15 0 -15 16v222q0 13 15 13h24q6 0 11 -4t5 -9v-222zM1690 -26v150q0 13 13 13h27q13 0 13 -13v-222q0 -16 -13 -16h-16q-10 0 -17 10l-123 151v-145q0 -6 -4 -11t-9 -5h-27
q-6 0 -10.5 5t-4.5 11v222q0 5 4.5 9t10.5 4h15q13 0 18 -9zM597 -3q22 -5 35 -5q53 0 53 51q0 22 -15 34t-38 12q-22 0 -35 -5v-87zM1321 -62q35 0 55 19t20 55q0 34 -20 54.5t-55 20.5q-33 0 -54 -21t-21 -54q0 -34 21 -54t54 -20z" />
    <glyph glyph-name="Uacute" unicode="&#xda;" vert-adv-y="2063" 
d="M0 631q0 14 15 17q123 7 131 7q110 0 176 -60t66 -164q0 -103 -64 -166.5t-170 -63.5q-7 0 -139 6q-15 4 -15 18v406zM1338 427q0 102 63.5 165t165.5 63q101 0 163.5 -63t62.5 -165q0 -101 -62.5 -163.5t-163.5 -62.5q-102 0 -165.5 63.5t-63.5 162.5zM755 598
q0 -17 -16 -17h-211v-117h159q18 0 18 -18v-30q0 -16 -18 -16h-159v-127h223q15 0 15 -15v-33q0 -18 -15 -18h-273q-17 0 -17 18v406q0 15 17 15h261q16 0 16 -15v-33zM1181 635q5 11 19 11h19q14 0 17 -15q7 -71 44 -382q0 -3 1 -13t1 -11q0 -15 -15 -15h-16q-9 -3 -22 -3
t-16 15q0 5 -1 14t-1 13q-17 140 -30 266l-104 -172q-10 -10 -19 -10h-16q-12 0 -19 10l-103 174q-21 -185 -35 -295q0 -15 -16 -15h-22l-16 3q-15 0 -15 15q0 1 1 5t1 8q41 364 44 393q3 15 18 15h20q13 0 20 -11l129 -219zM66 271q42 -5 90 -5q74 0 117 44.5t43 120.5
q0 72 -44 115t-118 43q-7 0 -88 -6v-312zM1411 427q0 -73 42 -117t112 -44q72 0 115 44t43 117q0 74 -42.5 118t-113.5 44q-72 0 -114 -44t-42 -118zM741 -93q3 -5 3 -9q0 -9 -11 -9q-17 0 -26 -3q-11 0 -18 10l-26 57q-13 -5 -35 -5h-31v-46q0 -16 -13 -16h-25
q-12 0 -12 16v218q0 12 12 15q40 4 67 4q49 0 83.5 -24t34.5 -72q0 -45 -35 -71zM806 -54q3 9 10 9q5 0 7 -2q42 -23 81 -23q46 0 46 29q0 16 -15 23t-46 12q-90 16 -90 71q0 36 27.5 55t73.5 19q38 0 90 -21q6 -7 6 -12q0 -7 -2 -9l-9 -17q-3 -6 -10 -6q-5 0 -7 2
q-40 17 -70 17q-42 0 -42 -26q0 -22 50 -31q22 -4 35.5 -7.5t31 -12t26.5 -22.5t9 -33q0 -36 -28 -56.5t-74 -20.5q-55 0 -103 25q-6 3 -6 11v6zM1192 12q0 56 37 91.5t92 35.5q58 0 95 -35.5t37 -91.5t-37 -92t-95 -36q-55 0 -92 35.5t-37 92.5zM0 120v6q0 9 11 9
q5 0 14.5 1t13.5 1q13 3 18 -9l70 -169l71 169q3 12 17 9q4 0 13.5 -1t15.5 -1q11 0 11 -9q0 -4 -3 -6l-102 -222q-6 -12 -16 -12h-13q-12 0 -16 12zM480 104q0 -15 -13 -15h-114v-55h77q13 0 13 -16v-11q0 -13 -13 -13h-77v-62h114q13 0 13 -12v-18q0 -16 -13 -16h-154
q-12 0 -12 16v222q0 13 12 13h154q13 0 13 -13v-20zM1126 -98q0 -6 -4.5 -11t-11.5 -5h-24q-15 0 -15 16v222q0 13 15 13h24q6 0 11 -4t5 -9v-222zM1690 -26v150q0 13 13 13h27q13 0 13 -13v-222q0 -16 -13 -16h-16q-10 0 -17 10l-123 151v-145q0 -6 -4 -11t-9 -5h-27
q-6 0 -10.5 5t-4.5 11v222q0 5 4.5 9t10.5 4h15q13 0 18 -9zM597 -3q22 -5 35 -5q53 0 53 51q0 22 -15 34t-38 12q-22 0 -35 -5v-87zM1321 -62q35 0 55 19t20 55q0 34 -20 54.5t-55 20.5q-33 0 -54 -21t-21 -54q0 -34 21 -54t54 -20z" />
    <glyph glyph-name="Ucircumflex" unicode="&#xdb;" vert-adv-y="2063" 
d="M0 631q0 14 15 17q123 7 131 7q110 0 176 -60t66 -164q0 -103 -64 -166.5t-170 -63.5q-7 0 -139 6q-15 4 -15 18v406zM1338 427q0 102 63.5 165t165.5 63q101 0 163.5 -63t62.5 -165q0 -101 -62.5 -163.5t-163.5 -62.5q-102 0 -165.5 63.5t-63.5 162.5zM755 598
q0 -17 -16 -17h-211v-117h159q18 0 18 -18v-30q0 -16 -18 -16h-159v-127h223q15 0 15 -15v-33q0 -18 -15 -18h-273q-17 0 -17 18v406q0 15 17 15h261q16 0 16 -15v-33zM1181 635q5 11 19 11h19q14 0 17 -15q7 -71 44 -382q0 -3 1 -13t1 -11q0 -15 -15 -15h-16q-9 -3 -22 -3
t-16 15q0 5 -1 14t-1 13q-17 140 -30 266l-104 -172q-10 -10 -19 -10h-16q-12 0 -19 10l-103 174q-21 -185 -35 -295q0 -15 -16 -15h-22l-16 3q-15 0 -15 15q0 1 1 5t1 8q41 364 44 393q3 15 18 15h20q13 0 20 -11l129 -219zM66 271q42 -5 90 -5q74 0 117 44.5t43 120.5
q0 72 -44 115t-118 43q-7 0 -88 -6v-312zM1411 427q0 -73 42 -117t112 -44q72 0 115 44t43 117q0 74 -42.5 118t-113.5 44q-72 0 -114 -44t-42 -118zM741 -93q3 -5 3 -9q0 -9 -11 -9q-17 0 -26 -3q-11 0 -18 10l-26 57q-13 -5 -35 -5h-31v-46q0 -16 -13 -16h-25
q-12 0 -12 16v218q0 12 12 15q40 4 67 4q49 0 83.5 -24t34.5 -72q0 -45 -35 -71zM806 -54q3 9 10 9q5 0 7 -2q42 -23 81 -23q46 0 46 29q0 16 -15 23t-46 12q-90 16 -90 71q0 36 27.5 55t73.5 19q38 0 90 -21q6 -7 6 -12q0 -7 -2 -9l-9 -17q-3 -6 -10 -6q-5 0 -7 2
q-40 17 -70 17q-42 0 -42 -26q0 -22 50 -31q22 -4 35.5 -7.5t31 -12t26.5 -22.5t9 -33q0 -36 -28 -56.5t-74 -20.5q-55 0 -103 25q-6 3 -6 11v6zM1192 12q0 56 37 91.5t92 35.5q58 0 95 -35.5t37 -91.5t-37 -92t-95 -36q-55 0 -92 35.5t-37 92.5zM0 120v6q0 9 11 9
q5 0 14.5 1t13.5 1q13 3 18 -9l70 -169l71 169q3 12 17 9q4 0 13.5 -1t15.5 -1q11 0 11 -9q0 -4 -3 -6l-102 -222q-6 -12 -16 -12h-13q-12 0 -16 12zM480 104q0 -15 -13 -15h-114v-55h77q13 0 13 -16v-11q0 -13 -13 -13h-77v-62h114q13 0 13 -12v-18q0 -16 -13 -16h-154
q-12 0 -12 16v222q0 13 12 13h154q13 0 13 -13v-20zM1126 -98q0 -6 -4.5 -11t-11.5 -5h-24q-15 0 -15 16v222q0 13 15 13h24q6 0 11 -4t5 -9v-222zM1690 -26v150q0 13 13 13h27q13 0 13 -13v-222q0 -16 -13 -16h-16q-10 0 -17 10l-123 151v-145q0 -6 -4 -11t-9 -5h-27
q-6 0 -10.5 5t-4.5 11v222q0 5 4.5 9t10.5 4h15q13 0 18 -9zM597 -3q22 -5 35 -5q53 0 53 51q0 22 -15 34t-38 12q-22 0 -35 -5v-87zM1321 -62q35 0 55 19t20 55q0 34 -20 54.5t-55 20.5q-33 0 -54 -21t-21 -54q0 -34 21 -54t54 -20z" />
    <glyph glyph-name="Udieresis" unicode="&#xdc;" vert-adv-y="2063" 
d="M0 631q0 14 15 17q123 7 131 7q110 0 176 -60t66 -164q0 -103 -64 -166.5t-170 -63.5q-7 0 -139 6q-15 4 -15 18v406zM1338 427q0 102 63.5 165t165.5 63q101 0 163.5 -63t62.5 -165q0 -101 -62.5 -163.5t-163.5 -62.5q-102 0 -165.5 63.5t-63.5 162.5zM755 598
q0 -17 -16 -17h-211v-117h159q18 0 18 -18v-30q0 -16 -18 -16h-159v-127h223q15 0 15 -15v-33q0 -18 -15 -18h-273q-17 0 -17 18v406q0 15 17 15h261q16 0 16 -15v-33zM1181 635q5 11 19 11h19q14 0 17 -15q7 -71 44 -382q0 -3 1 -13t1 -11q0 -15 -15 -15h-16q-9 -3 -22 -3
t-16 15q0 5 -1 14t-1 13q-17 140 -30 266l-104 -172q-10 -10 -19 -10h-16q-12 0 -19 10l-103 174q-21 -185 -35 -295q0 -15 -16 -15h-22l-16 3q-15 0 -15 15q0 1 1 5t1 8q41 364 44 393q3 15 18 15h20q13 0 20 -11l129 -219zM66 271q42 -5 90 -5q74 0 117 44.5t43 120.5
q0 72 -44 115t-118 43q-7 0 -88 -6v-312zM1411 427q0 -73 42 -117t112 -44q72 0 115 44t43 117q0 74 -42.5 118t-113.5 44q-72 0 -114 -44t-42 -118zM741 -93q3 -5 3 -9q0 -9 -11 -9q-17 0 -26 -3q-11 0 -18 10l-26 57q-13 -5 -35 -5h-31v-46q0 -16 -13 -16h-25
q-12 0 -12 16v218q0 12 12 15q40 4 67 4q49 0 83.5 -24t34.5 -72q0 -45 -35 -71zM806 -54q3 9 10 9q5 0 7 -2q42 -23 81 -23q46 0 46 29q0 16 -15 23t-46 12q-90 16 -90 71q0 36 27.5 55t73.5 19q38 0 90 -21q6 -7 6 -12q0 -7 -2 -9l-9 -17q-3 -6 -10 -6q-5 0 -7 2
q-40 17 -70 17q-42 0 -42 -26q0 -22 50 -31q22 -4 35.5 -7.5t31 -12t26.5 -22.5t9 -33q0 -36 -28 -56.5t-74 -20.5q-55 0 -103 25q-6 3 -6 11v6zM1192 12q0 56 37 91.5t92 35.5q58 0 95 -35.5t37 -91.5t-37 -92t-95 -36q-55 0 -92 35.5t-37 92.5zM0 120v6q0 9 11 9
q5 0 14.5 1t13.5 1q13 3 18 -9l70 -169l71 169q3 12 17 9q4 0 13.5 -1t15.5 -1q11 0 11 -9q0 -4 -3 -6l-102 -222q-6 -12 -16 -12h-13q-12 0 -16 12zM480 104q0 -15 -13 -15h-114v-55h77q13 0 13 -16v-11q0 -13 -13 -13h-77v-62h114q13 0 13 -12v-18q0 -16 -13 -16h-154
q-12 0 -12 16v222q0 13 12 13h154q13 0 13 -13v-20zM1126 -98q0 -6 -4.5 -11t-11.5 -5h-24q-15 0 -15 16v222q0 13 15 13h24q6 0 11 -4t5 -9v-222zM1690 -26v150q0 13 13 13h27q13 0 13 -13v-222q0 -16 -13 -16h-16q-10 0 -17 10l-123 151v-145q0 -6 -4 -11t-9 -5h-27
q-6 0 -10.5 5t-4.5 11v222q0 5 4.5 9t10.5 4h15q13 0 18 -9zM597 -3q22 -5 35 -5q53 0 53 51q0 22 -15 34t-38 12q-22 0 -35 -5v-87zM1321 -62q35 0 55 19t20 55q0 34 -20 54.5t-55 20.5q-33 0 -54 -21t-21 -54q0 -34 21 -54t54 -20z" />
    <glyph glyph-name="agrave" unicode="&#xe0;" vert-adv-y="2063" 
d="M0 631q0 14 15 17q123 7 131 7q110 0 176 -60t66 -164q0 -103 -64 -166.5t-170 -63.5q-7 0 -139 6q-15 4 -15 18v406zM1338 427q0 102 63.5 165t165.5 63q101 0 163.5 -63t62.5 -165q0 -101 -62.5 -163.5t-163.5 -62.5q-102 0 -165.5 63.5t-63.5 162.5zM755 598
q0 -17 -16 -17h-211v-117h159q18 0 18 -18v-30q0 -16 -18 -16h-159v-127h223q15 0 15 -15v-33q0 -18 -15 -18h-273q-17 0 -17 18v406q0 15 17 15h261q16 0 16 -15v-33zM1181 635q5 11 19 11h19q14 0 17 -15q7 -71 44 -382q0 -3 1 -13t1 -11q0 -15 -15 -15h-16q-9 -3 -22 -3
t-16 15q0 5 -1 14t-1 13q-17 140 -30 266l-104 -172q-10 -10 -19 -10h-16q-12 0 -19 10l-103 174q-21 -185 -35 -295q0 -15 -16 -15h-22l-16 3q-15 0 -15 15q0 1 1 5t1 8q41 364 44 393q3 15 18 15h20q13 0 20 -11l129 -219zM66 271q42 -5 90 -5q74 0 117 44.5t43 120.5
q0 72 -44 115t-118 43q-7 0 -88 -6v-312zM1411 427q0 -73 42 -117t112 -44q72 0 115 44t43 117q0 74 -42.5 118t-113.5 44q-72 0 -114 -44t-42 -118zM741 -93q3 -5 3 -9q0 -9 -11 -9q-17 0 -26 -3q-11 0 -18 10l-26 57q-13 -5 -35 -5h-31v-46q0 -16 -13 -16h-25
q-12 0 -12 16v218q0 12 12 15q40 4 67 4q49 0 83.5 -24t34.5 -72q0 -45 -35 -71zM806 -54q3 9 10 9q5 0 7 -2q42 -23 81 -23q46 0 46 29q0 16 -15 23t-46 12q-90 16 -90 71q0 36 27.5 55t73.5 19q38 0 90 -21q6 -7 6 -12q0 -7 -2 -9l-9 -17q-3 -6 -10 -6q-5 0 -7 2
q-40 17 -70 17q-42 0 -42 -26q0 -22 50 -31q22 -4 35.5 -7.5t31 -12t26.5 -22.5t9 -33q0 -36 -28 -56.5t-74 -20.5q-55 0 -103 25q-6 3 -6 11v6zM1192 12q0 56 37 91.5t92 35.5q58 0 95 -35.5t37 -91.5t-37 -92t-95 -36q-55 0 -92 35.5t-37 92.5zM0 120v6q0 9 11 9
q5 0 14.5 1t13.5 1q13 3 18 -9l70 -169l71 169q3 12 17 9q4 0 13.5 -1t15.5 -1q11 0 11 -9q0 -4 -3 -6l-102 -222q-6 -12 -16 -12h-13q-12 0 -16 12zM480 104q0 -15 -13 -15h-114v-55h77q13 0 13 -16v-11q0 -13 -13 -13h-77v-62h114q13 0 13 -12v-18q0 -16 -13 -16h-154
q-12 0 -12 16v222q0 13 12 13h154q13 0 13 -13v-20zM1126 -98q0 -6 -4.5 -11t-11.5 -5h-24q-15 0 -15 16v222q0 13 15 13h24q6 0 11 -4t5 -9v-222zM1690 -26v150q0 13 13 13h27q13 0 13 -13v-222q0 -16 -13 -16h-16q-10 0 -17 10l-123 151v-145q0 -6 -4 -11t-9 -5h-27
q-6 0 -10.5 5t-4.5 11v222q0 5 4.5 9t10.5 4h15q13 0 18 -9zM597 -3q22 -5 35 -5q53 0 53 51q0 22 -15 34t-38 12q-22 0 -35 -5v-87zM1321 -62q35 0 55 19t20 55q0 34 -20 54.5t-55 20.5q-33 0 -54 -21t-21 -54q0 -34 21 -54t54 -20z" />
    <glyph glyph-name="aacute" unicode="&#xe1;" vert-adv-y="2063" 
d="M0 631q0 14 15 17q123 7 131 7q110 0 176 -60t66 -164q0 -103 -64 -166.5t-170 -63.5q-7 0 -139 6q-15 4 -15 18v406zM1338 427q0 102 63.5 165t165.5 63q101 0 163.5 -63t62.5 -165q0 -101 -62.5 -163.5t-163.5 -62.5q-102 0 -165.5 63.5t-63.5 162.5zM755 598
q0 -17 -16 -17h-211v-117h159q18 0 18 -18v-30q0 -16 -18 -16h-159v-127h223q15 0 15 -15v-33q0 -18 -15 -18h-273q-17 0 -17 18v406q0 15 17 15h261q16 0 16 -15v-33zM1181 635q5 11 19 11h19q14 0 17 -15q7 -71 44 -382q0 -3 1 -13t1 -11q0 -15 -15 -15h-16q-9 -3 -22 -3
t-16 15q0 5 -1 14t-1 13q-17 140 -30 266l-104 -172q-10 -10 -19 -10h-16q-12 0 -19 10l-103 174q-21 -185 -35 -295q0 -15 -16 -15h-22l-16 3q-15 0 -15 15q0 1 1 5t1 8q41 364 44 393q3 15 18 15h20q13 0 20 -11l129 -219zM66 271q42 -5 90 -5q74 0 117 44.5t43 120.5
q0 72 -44 115t-118 43q-7 0 -88 -6v-312zM1411 427q0 -73 42 -117t112 -44q72 0 115 44t43 117q0 74 -42.5 118t-113.5 44q-72 0 -114 -44t-42 -118zM741 -93q3 -5 3 -9q0 -9 -11 -9q-17 0 -26 -3q-11 0 -18 10l-26 57q-13 -5 -35 -5h-31v-46q0 -16 -13 -16h-25
q-12 0 -12 16v218q0 12 12 15q40 4 67 4q49 0 83.5 -24t34.5 -72q0 -45 -35 -71zM806 -54q3 9 10 9q5 0 7 -2q42 -23 81 -23q46 0 46 29q0 16 -15 23t-46 12q-90 16 -90 71q0 36 27.5 55t73.5 19q38 0 90 -21q6 -7 6 -12q0 -7 -2 -9l-9 -17q-3 -6 -10 -6q-5 0 -7 2
q-40 17 -70 17q-42 0 -42 -26q0 -22 50 -31q22 -4 35.5 -7.5t31 -12t26.5 -22.5t9 -33q0 -36 -28 -56.5t-74 -20.5q-55 0 -103 25q-6 3 -6 11v6zM1192 12q0 56 37 91.5t92 35.5q58 0 95 -35.5t37 -91.5t-37 -92t-95 -36q-55 0 -92 35.5t-37 92.5zM0 120v6q0 9 11 9
q5 0 14.5 1t13.5 1q13 3 18 -9l70 -169l71 169q3 12 17 9q4 0 13.5 -1t15.5 -1q11 0 11 -9q0 -4 -3 -6l-102 -222q-6 -12 -16 -12h-13q-12 0 -16 12zM480 104q0 -15 -13 -15h-114v-55h77q13 0 13 -16v-11q0 -13 -13 -13h-77v-62h114q13 0 13 -12v-18q0 -16 -13 -16h-154
q-12 0 -12 16v222q0 13 12 13h154q13 0 13 -13v-20zM1126 -98q0 -6 -4.5 -11t-11.5 -5h-24q-15 0 -15 16v222q0 13 15 13h24q6 0 11 -4t5 -9v-222zM1690 -26v150q0 13 13 13h27q13 0 13 -13v-222q0 -16 -13 -16h-16q-10 0 -17 10l-123 151v-145q0 -6 -4 -11t-9 -5h-27
q-6 0 -10.5 5t-4.5 11v222q0 5 4.5 9t10.5 4h15q13 0 18 -9zM597 -3q22 -5 35 -5q53 0 53 51q0 22 -15 34t-38 12q-22 0 -35 -5v-87zM1321 -62q35 0 55 19t20 55q0 34 -20 54.5t-55 20.5q-33 0 -54 -21t-21 -54q0 -34 21 -54t54 -20z" />
    <glyph glyph-name="acircumflex" unicode="&#xe2;" vert-adv-y="2063" 
d="M0 631q0 14 15 17q123 7 131 7q110 0 176 -60t66 -164q0 -103 -64 -166.5t-170 -63.5q-7 0 -139 6q-15 4 -15 18v406zM1338 427q0 102 63.5 165t165.5 63q101 0 163.5 -63t62.5 -165q0 -101 -62.5 -163.5t-163.5 -62.5q-102 0 -165.5 63.5t-63.5 162.5zM755 598
q0 -17 -16 -17h-211v-117h159q18 0 18 -18v-30q0 -16 -18 -16h-159v-127h223q15 0 15 -15v-33q0 -18 -15 -18h-273q-17 0 -17 18v406q0 15 17 15h261q16 0 16 -15v-33zM1181 635q5 11 19 11h19q14 0 17 -15q7 -71 44 -382q0 -3 1 -13t1 -11q0 -15 -15 -15h-16q-9 -3 -22 -3
t-16 15q0 5 -1 14t-1 13q-17 140 -30 266l-104 -172q-10 -10 -19 -10h-16q-12 0 -19 10l-103 174q-21 -185 -35 -295q0 -15 -16 -15h-22l-16 3q-15 0 -15 15q0 1 1 5t1 8q41 364 44 393q3 15 18 15h20q13 0 20 -11l129 -219zM66 271q42 -5 90 -5q74 0 117 44.5t43 120.5
q0 72 -44 115t-118 43q-7 0 -88 -6v-312zM1411 427q0 -73 42 -117t112 -44q72 0 115 44t43 117q0 74 -42.5 118t-113.5 44q-72 0 -114 -44t-42 -118zM741 -93q3 -5 3 -9q0 -9 -11 -9q-17 0 -26 -3q-11 0 -18 10l-26 57q-13 -5 -35 -5h-31v-46q0 -16 -13 -16h-25
q-12 0 -12 16v218q0 12 12 15q40 4 67 4q49 0 83.5 -24t34.5 -72q0 -45 -35 -71zM806 -54q3 9 10 9q5 0 7 -2q42 -23 81 -23q46 0 46 29q0 16 -15 23t-46 12q-90 16 -90 71q0 36 27.5 55t73.5 19q38 0 90 -21q6 -7 6 -12q0 -7 -2 -9l-9 -17q-3 -6 -10 -6q-5 0 -7 2
q-40 17 -70 17q-42 0 -42 -26q0 -22 50 -31q22 -4 35.5 -7.5t31 -12t26.5 -22.5t9 -33q0 -36 -28 -56.5t-74 -20.5q-55 0 -103 25q-6 3 -6 11v6zM1192 12q0 56 37 91.5t92 35.5q58 0 95 -35.5t37 -91.5t-37 -92t-95 -36q-55 0 -92 35.5t-37 92.5zM0 120v6q0 9 11 9
q5 0 14.5 1t13.5 1q13 3 18 -9l70 -169l71 169q3 12 17 9q4 0 13.5 -1t15.5 -1q11 0 11 -9q0 -4 -3 -6l-102 -222q-6 -12 -16 -12h-13q-12 0 -16 12zM480 104q0 -15 -13 -15h-114v-55h77q13 0 13 -16v-11q0 -13 -13 -13h-77v-62h114q13 0 13 -12v-18q0 -16 -13 -16h-154
q-12 0 -12 16v222q0 13 12 13h154q13 0 13 -13v-20zM1126 -98q0 -6 -4.5 -11t-11.5 -5h-24q-15 0 -15 16v222q0 13 15 13h24q6 0 11 -4t5 -9v-222zM1690 -26v150q0 13 13 13h27q13 0 13 -13v-222q0 -16 -13 -16h-16q-10 0 -17 10l-123 151v-145q0 -6 -4 -11t-9 -5h-27
q-6 0 -10.5 5t-4.5 11v222q0 5 4.5 9t10.5 4h15q13 0 18 -9zM597 -3q22 -5 35 -5q53 0 53 51q0 22 -15 34t-38 12q-22 0 -35 -5v-87zM1321 -62q35 0 55 19t20 55q0 34 -20 54.5t-55 20.5q-33 0 -54 -21t-21 -54q0 -34 21 -54t54 -20z" />
    <glyph glyph-name="atilde" unicode="&#xe3;" vert-adv-y="2063" 
d="M0 631q0 14 15 17q123 7 131 7q110 0 176 -60t66 -164q0 -103 -64 -166.5t-170 -63.5q-7 0 -139 6q-15 4 -15 18v406zM1338 427q0 102 63.5 165t165.5 63q101 0 163.5 -63t62.5 -165q0 -101 -62.5 -163.5t-163.5 -62.5q-102 0 -165.5 63.5t-63.5 162.5zM755 598
q0 -17 -16 -17h-211v-117h159q18 0 18 -18v-30q0 -16 -18 -16h-159v-127h223q15 0 15 -15v-33q0 -18 -15 -18h-273q-17 0 -17 18v406q0 15 17 15h261q16 0 16 -15v-33zM1181 635q5 11 19 11h19q14 0 17 -15q7 -71 44 -382q0 -3 1 -13t1 -11q0 -15 -15 -15h-16q-9 -3 -22 -3
t-16 15q0 5 -1 14t-1 13q-17 140 -30 266l-104 -172q-10 -10 -19 -10h-16q-12 0 -19 10l-103 174q-21 -185 -35 -295q0 -15 -16 -15h-22l-16 3q-15 0 -15 15q0 1 1 5t1 8q41 364 44 393q3 15 18 15h20q13 0 20 -11l129 -219zM66 271q42 -5 90 -5q74 0 117 44.5t43 120.5
q0 72 -44 115t-118 43q-7 0 -88 -6v-312zM1411 427q0 -73 42 -117t112 -44q72 0 115 44t43 117q0 74 -42.5 118t-113.5 44q-72 0 -114 -44t-42 -118zM741 -93q3 -5 3 -9q0 -9 -11 -9q-17 0 -26 -3q-11 0 -18 10l-26 57q-13 -5 -35 -5h-31v-46q0 -16 -13 -16h-25
q-12 0 -12 16v218q0 12 12 15q40 4 67 4q49 0 83.5 -24t34.5 -72q0 -45 -35 -71zM806 -54q3 9 10 9q5 0 7 -2q42 -23 81 -23q46 0 46 29q0 16 -15 23t-46 12q-90 16 -90 71q0 36 27.5 55t73.5 19q38 0 90 -21q6 -7 6 -12q0 -7 -2 -9l-9 -17q-3 -6 -10 -6q-5 0 -7 2
q-40 17 -70 17q-42 0 -42 -26q0 -22 50 -31q22 -4 35.5 -7.5t31 -12t26.5 -22.5t9 -33q0 -36 -28 -56.5t-74 -20.5q-55 0 -103 25q-6 3 -6 11v6zM1192 12q0 56 37 91.5t92 35.5q58 0 95 -35.5t37 -91.5t-37 -92t-95 -36q-55 0 -92 35.5t-37 92.5zM0 120v6q0 9 11 9
q5 0 14.5 1t13.5 1q13 3 18 -9l70 -169l71 169q3 12 17 9q4 0 13.5 -1t15.5 -1q11 0 11 -9q0 -4 -3 -6l-102 -222q-6 -12 -16 -12h-13q-12 0 -16 12zM480 104q0 -15 -13 -15h-114v-55h77q13 0 13 -16v-11q0 -13 -13 -13h-77v-62h114q13 0 13 -12v-18q0 -16 -13 -16h-154
q-12 0 -12 16v222q0 13 12 13h154q13 0 13 -13v-20zM1126 -98q0 -6 -4.5 -11t-11.5 -5h-24q-15 0 -15 16v222q0 13 15 13h24q6 0 11 -4t5 -9v-222zM1690 -26v150q0 13 13 13h27q13 0 13 -13v-222q0 -16 -13 -16h-16q-10 0 -17 10l-123 151v-145q0 -6 -4 -11t-9 -5h-27
q-6 0 -10.5 5t-4.5 11v222q0 5 4.5 9t10.5 4h15q13 0 18 -9zM597 -3q22 -5 35 -5q53 0 53 51q0 22 -15 34t-38 12q-22 0 -35 -5v-87zM1321 -62q35 0 55 19t20 55q0 34 -20 54.5t-55 20.5q-33 0 -54 -21t-21 -54q0 -34 21 -54t54 -20z" />
    <glyph glyph-name="adieresis" unicode="&#xe4;" vert-adv-y="2063" 
d="M0 631q0 14 15 17q123 7 131 7q110 0 176 -60t66 -164q0 -103 -64 -166.5t-170 -63.5q-7 0 -139 6q-15 4 -15 18v406zM1338 427q0 102 63.5 165t165.5 63q101 0 163.5 -63t62.5 -165q0 -101 -62.5 -163.5t-163.5 -62.5q-102 0 -165.5 63.5t-63.5 162.5zM755 598
q0 -17 -16 -17h-211v-117h159q18 0 18 -18v-30q0 -16 -18 -16h-159v-127h223q15 0 15 -15v-33q0 -18 -15 -18h-273q-17 0 -17 18v406q0 15 17 15h261q16 0 16 -15v-33zM1181 635q5 11 19 11h19q14 0 17 -15q7 -71 44 -382q0 -3 1 -13t1 -11q0 -15 -15 -15h-16q-9 -3 -22 -3
t-16 15q0 5 -1 14t-1 13q-17 140 -30 266l-104 -172q-10 -10 -19 -10h-16q-12 0 -19 10l-103 174q-21 -185 -35 -295q0 -15 -16 -15h-22l-16 3q-15 0 -15 15q0 1 1 5t1 8q41 364 44 393q3 15 18 15h20q13 0 20 -11l129 -219zM66 271q42 -5 90 -5q74 0 117 44.5t43 120.5
q0 72 -44 115t-118 43q-7 0 -88 -6v-312zM1411 427q0 -73 42 -117t112 -44q72 0 115 44t43 117q0 74 -42.5 118t-113.5 44q-72 0 -114 -44t-42 -118zM741 -93q3 -5 3 -9q0 -9 -11 -9q-17 0 -26 -3q-11 0 -18 10l-26 57q-13 -5 -35 -5h-31v-46q0 -16 -13 -16h-25
q-12 0 -12 16v218q0 12 12 15q40 4 67 4q49 0 83.5 -24t34.5 -72q0 -45 -35 -71zM806 -54q3 9 10 9q5 0 7 -2q42 -23 81 -23q46 0 46 29q0 16 -15 23t-46 12q-90 16 -90 71q0 36 27.5 55t73.5 19q38 0 90 -21q6 -7 6 -12q0 -7 -2 -9l-9 -17q-3 -6 -10 -6q-5 0 -7 2
q-40 17 -70 17q-42 0 -42 -26q0 -22 50 -31q22 -4 35.5 -7.5t31 -12t26.5 -22.5t9 -33q0 -36 -28 -56.5t-74 -20.5q-55 0 -103 25q-6 3 -6 11v6zM1192 12q0 56 37 91.5t92 35.5q58 0 95 -35.5t37 -91.5t-37 -92t-95 -36q-55 0 -92 35.5t-37 92.5zM0 120v6q0 9 11 9
q5 0 14.5 1t13.5 1q13 3 18 -9l70 -169l71 169q3 12 17 9q4 0 13.5 -1t15.5 -1q11 0 11 -9q0 -4 -3 -6l-102 -222q-6 -12 -16 -12h-13q-12 0 -16 12zM480 104q0 -15 -13 -15h-114v-55h77q13 0 13 -16v-11q0 -13 -13 -13h-77v-62h114q13 0 13 -12v-18q0 -16 -13 -16h-154
q-12 0 -12 16v222q0 13 12 13h154q13 0 13 -13v-20zM1126 -98q0 -6 -4.5 -11t-11.5 -5h-24q-15 0 -15 16v222q0 13 15 13h24q6 0 11 -4t5 -9v-222zM1690 -26v150q0 13 13 13h27q13 0 13 -13v-222q0 -16 -13 -16h-16q-10 0 -17 10l-123 151v-145q0 -6 -4 -11t-9 -5h-27
q-6 0 -10.5 5t-4.5 11v222q0 5 4.5 9t10.5 4h15q13 0 18 -9zM597 -3q22 -5 35 -5q53 0 53 51q0 22 -15 34t-38 12q-22 0 -35 -5v-87zM1321 -62q35 0 55 19t20 55q0 34 -20 54.5t-55 20.5q-33 0 -54 -21t-21 -54q0 -34 21 -54t54 -20z" />
    <glyph glyph-name="aring" unicode="&#xe5;" vert-adv-y="2063" 
d="M0 631q0 14 15 17q123 7 131 7q110 0 176 -60t66 -164q0 -103 -64 -166.5t-170 -63.5q-7 0 -139 6q-15 4 -15 18v406zM1338 427q0 102 63.5 165t165.5 63q101 0 163.5 -63t62.5 -165q0 -101 -62.5 -163.5t-163.5 -62.5q-102 0 -165.5 63.5t-63.5 162.5zM755 598
q0 -17 -16 -17h-211v-117h159q18 0 18 -18v-30q0 -16 -18 -16h-159v-127h223q15 0 15 -15v-33q0 -18 -15 -18h-273q-17 0 -17 18v406q0 15 17 15h261q16 0 16 -15v-33zM1181 635q5 11 19 11h19q14 0 17 -15q7 -71 44 -382q0 -3 1 -13t1 -11q0 -15 -15 -15h-16q-9 -3 -22 -3
t-16 15q0 5 -1 14t-1 13q-17 140 -30 266l-104 -172q-10 -10 -19 -10h-16q-12 0 -19 10l-103 174q-21 -185 -35 -295q0 -15 -16 -15h-22l-16 3q-15 0 -15 15q0 1 1 5t1 8q41 364 44 393q3 15 18 15h20q13 0 20 -11l129 -219zM66 271q42 -5 90 -5q74 0 117 44.5t43 120.5
q0 72 -44 115t-118 43q-7 0 -88 -6v-312zM1411 427q0 -73 42 -117t112 -44q72 0 115 44t43 117q0 74 -42.5 118t-113.5 44q-72 0 -114 -44t-42 -118zM741 -93q3 -5 3 -9q0 -9 -11 -9q-17 0 -26 -3q-11 0 -18 10l-26 57q-13 -5 -35 -5h-31v-46q0 -16 -13 -16h-25
q-12 0 -12 16v218q0 12 12 15q40 4 67 4q49 0 83.5 -24t34.5 -72q0 -45 -35 -71zM806 -54q3 9 10 9q5 0 7 -2q42 -23 81 -23q46 0 46 29q0 16 -15 23t-46 12q-90 16 -90 71q0 36 27.5 55t73.5 19q38 0 90 -21q6 -7 6 -12q0 -7 -2 -9l-9 -17q-3 -6 -10 -6q-5 0 -7 2
q-40 17 -70 17q-42 0 -42 -26q0 -22 50 -31q22 -4 35.5 -7.5t31 -12t26.5 -22.5t9 -33q0 -36 -28 -56.5t-74 -20.5q-55 0 -103 25q-6 3 -6 11v6zM1192 12q0 56 37 91.5t92 35.5q58 0 95 -35.5t37 -91.5t-37 -92t-95 -36q-55 0 -92 35.5t-37 92.5zM0 120v6q0 9 11 9
q5 0 14.5 1t13.5 1q13 3 18 -9l70 -169l71 169q3 12 17 9q4 0 13.5 -1t15.5 -1q11 0 11 -9q0 -4 -3 -6l-102 -222q-6 -12 -16 -12h-13q-12 0 -16 12zM480 104q0 -15 -13 -15h-114v-55h77q13 0 13 -16v-11q0 -13 -13 -13h-77v-62h114q13 0 13 -12v-18q0 -16 -13 -16h-154
q-12 0 -12 16v222q0 13 12 13h154q13 0 13 -13v-20zM1126 -98q0 -6 -4.5 -11t-11.5 -5h-24q-15 0 -15 16v222q0 13 15 13h24q6 0 11 -4t5 -9v-222zM1690 -26v150q0 13 13 13h27q13 0 13 -13v-222q0 -16 -13 -16h-16q-10 0 -17 10l-123 151v-145q0 -6 -4 -11t-9 -5h-27
q-6 0 -10.5 5t-4.5 11v222q0 5 4.5 9t10.5 4h15q13 0 18 -9zM597 -3q22 -5 35 -5q53 0 53 51q0 22 -15 34t-38 12q-22 0 -35 -5v-87zM1321 -62q35 0 55 19t20 55q0 34 -20 54.5t-55 20.5q-33 0 -54 -21t-21 -54q0 -34 21 -54t54 -20z" />
    <glyph glyph-name="ae" unicode="&#xe6;" vert-adv-y="2063" 
d="M0 631q0 14 15 17q123 7 131 7q110 0 176 -60t66 -164q0 -103 -64 -166.5t-170 -63.5q-7 0 -139 6q-15 4 -15 18v406zM1338 427q0 102 63.5 165t165.5 63q101 0 163.5 -63t62.5 -165q0 -101 -62.5 -163.5t-163.5 -62.5q-102 0 -165.5 63.5t-63.5 162.5zM755 598
q0 -17 -16 -17h-211v-117h159q18 0 18 -18v-30q0 -16 -18 -16h-159v-127h223q15 0 15 -15v-33q0 -18 -15 -18h-273q-17 0 -17 18v406q0 15 17 15h261q16 0 16 -15v-33zM1181 635q5 11 19 11h19q14 0 17 -15q7 -71 44 -382q0 -3 1 -13t1 -11q0 -15 -15 -15h-16q-9 -3 -22 -3
t-16 15q0 5 -1 14t-1 13q-17 140 -30 266l-104 -172q-10 -10 -19 -10h-16q-12 0 -19 10l-103 174q-21 -185 -35 -295q0 -15 -16 -15h-22l-16 3q-15 0 -15 15q0 1 1 5t1 8q41 364 44 393q3 15 18 15h20q13 0 20 -11l129 -219zM66 271q42 -5 90 -5q74 0 117 44.5t43 120.5
q0 72 -44 115t-118 43q-7 0 -88 -6v-312zM1411 427q0 -73 42 -117t112 -44q72 0 115 44t43 117q0 74 -42.5 118t-113.5 44q-72 0 -114 -44t-42 -118zM741 -93q3 -5 3 -9q0 -9 -11 -9q-17 0 -26 -3q-11 0 -18 10l-26 57q-13 -5 -35 -5h-31v-46q0 -16 -13 -16h-25
q-12 0 -12 16v218q0 12 12 15q40 4 67 4q49 0 83.5 -24t34.5 -72q0 -45 -35 -71zM806 -54q3 9 10 9q5 0 7 -2q42 -23 81 -23q46 0 46 29q0 16 -15 23t-46 12q-90 16 -90 71q0 36 27.5 55t73.5 19q38 0 90 -21q6 -7 6 -12q0 -7 -2 -9l-9 -17q-3 -6 -10 -6q-5 0 -7 2
q-40 17 -70 17q-42 0 -42 -26q0 -22 50 -31q22 -4 35.5 -7.5t31 -12t26.5 -22.5t9 -33q0 -36 -28 -56.5t-74 -20.5q-55 0 -103 25q-6 3 -6 11v6zM1192 12q0 56 37 91.5t92 35.5q58 0 95 -35.5t37 -91.5t-37 -92t-95 -36q-55 0 -92 35.5t-37 92.5zM0 120v6q0 9 11 9
q5 0 14.5 1t13.5 1q13 3 18 -9l70 -169l71 169q3 12 17 9q4 0 13.5 -1t15.5 -1q11 0 11 -9q0 -4 -3 -6l-102 -222q-6 -12 -16 -12h-13q-12 0 -16 12zM480 104q0 -15 -13 -15h-114v-55h77q13 0 13 -16v-11q0 -13 -13 -13h-77v-62h114q13 0 13 -12v-18q0 -16 -13 -16h-154
q-12 0 -12 16v222q0 13 12 13h154q13 0 13 -13v-20zM1126 -98q0 -6 -4.5 -11t-11.5 -5h-24q-15 0 -15 16v222q0 13 15 13h24q6 0 11 -4t5 -9v-222zM1690 -26v150q0 13 13 13h27q13 0 13 -13v-222q0 -16 -13 -16h-16q-10 0 -17 10l-123 151v-145q0 -6 -4 -11t-9 -5h-27
q-6 0 -10.5 5t-4.5 11v222q0 5 4.5 9t10.5 4h15q13 0 18 -9zM597 -3q22 -5 35 -5q53 0 53 51q0 22 -15 34t-38 12q-22 0 -35 -5v-87zM1321 -62q35 0 55 19t20 55q0 34 -20 54.5t-55 20.5q-33 0 -54 -21t-21 -54q0 -34 21 -54t54 -20z" />
    <glyph glyph-name="ccedilla" unicode="&#xe7;" vert-adv-y="2063" 
d="M0 631q0 14 15 17q123 7 131 7q110 0 176 -60t66 -164q0 -103 -64 -166.5t-170 -63.5q-7 0 -139 6q-15 4 -15 18v406zM1338 427q0 102 63.5 165t165.5 63q101 0 163.5 -63t62.5 -165q0 -101 -62.5 -163.5t-163.5 -62.5q-102 0 -165.5 63.5t-63.5 162.5zM755 598
q0 -17 -16 -17h-211v-117h159q18 0 18 -18v-30q0 -16 -18 -16h-159v-127h223q15 0 15 -15v-33q0 -18 -15 -18h-273q-17 0 -17 18v406q0 15 17 15h261q16 0 16 -15v-33zM1181 635q5 11 19 11h19q14 0 17 -15q7 -71 44 -382q0 -3 1 -13t1 -11q0 -15 -15 -15h-16q-9 -3 -22 -3
t-16 15q0 5 -1 14t-1 13q-17 140 -30 266l-104 -172q-10 -10 -19 -10h-16q-12 0 -19 10l-103 174q-21 -185 -35 -295q0 -15 -16 -15h-22l-16 3q-15 0 -15 15q0 1 1 5t1 8q41 364 44 393q3 15 18 15h20q13 0 20 -11l129 -219zM66 271q42 -5 90 -5q74 0 117 44.5t43 120.5
q0 72 -44 115t-118 43q-7 0 -88 -6v-312zM1411 427q0 -73 42 -117t112 -44q72 0 115 44t43 117q0 74 -42.5 118t-113.5 44q-72 0 -114 -44t-42 -118zM741 -93q3 -5 3 -9q0 -9 -11 -9q-17 0 -26 -3q-11 0 -18 10l-26 57q-13 -5 -35 -5h-31v-46q0 -16 -13 -16h-25
q-12 0 -12 16v218q0 12 12 15q40 4 67 4q49 0 83.5 -24t34.5 -72q0 -45 -35 -71zM806 -54q3 9 10 9q5 0 7 -2q42 -23 81 -23q46 0 46 29q0 16 -15 23t-46 12q-90 16 -90 71q0 36 27.5 55t73.5 19q38 0 90 -21q6 -7 6 -12q0 -7 -2 -9l-9 -17q-3 -6 -10 -6q-5 0 -7 2
q-40 17 -70 17q-42 0 -42 -26q0 -22 50 -31q22 -4 35.5 -7.5t31 -12t26.5 -22.5t9 -33q0 -36 -28 -56.5t-74 -20.5q-55 0 -103 25q-6 3 -6 11v6zM1192 12q0 56 37 91.5t92 35.5q58 0 95 -35.5t37 -91.5t-37 -92t-95 -36q-55 0 -92 35.5t-37 92.5zM0 120v6q0 9 11 9
q5 0 14.5 1t13.5 1q13 3 18 -9l70 -169l71 169q3 12 17 9q4 0 13.5 -1t15.5 -1q11 0 11 -9q0 -4 -3 -6l-102 -222q-6 -12 -16 -12h-13q-12 0 -16 12zM480 104q0 -15 -13 -15h-114v-55h77q13 0 13 -16v-11q0 -13 -13 -13h-77v-62h114q13 0 13 -12v-18q0 -16 -13 -16h-154
q-12 0 -12 16v222q0 13 12 13h154q13 0 13 -13v-20zM1126 -98q0 -6 -4.5 -11t-11.5 -5h-24q-15 0 -15 16v222q0 13 15 13h24q6 0 11 -4t5 -9v-222zM1690 -26v150q0 13 13 13h27q13 0 13 -13v-222q0 -16 -13 -16h-16q-10 0 -17 10l-123 151v-145q0 -6 -4 -11t-9 -5h-27
q-6 0 -10.5 5t-4.5 11v222q0 5 4.5 9t10.5 4h15q13 0 18 -9zM597 -3q22 -5 35 -5q53 0 53 51q0 22 -15 34t-38 12q-22 0 -35 -5v-87zM1321 -62q35 0 55 19t20 55q0 34 -20 54.5t-55 20.5q-33 0 -54 -21t-21 -54q0 -34 21 -54t54 -20z" />
    <glyph glyph-name="egrave" unicode="&#xe8;" vert-adv-y="2063" 
d="M0 631q0 14 15 17q123 7 131 7q110 0 176 -60t66 -164q0 -103 -64 -166.5t-170 -63.5q-7 0 -139 6q-15 4 -15 18v406zM1338 427q0 102 63.5 165t165.5 63q101 0 163.5 -63t62.5 -165q0 -101 -62.5 -163.5t-163.5 -62.5q-102 0 -165.5 63.5t-63.5 162.5zM755 598
q0 -17 -16 -17h-211v-117h159q18 0 18 -18v-30q0 -16 -18 -16h-159v-127h223q15 0 15 -15v-33q0 -18 -15 -18h-273q-17 0 -17 18v406q0 15 17 15h261q16 0 16 -15v-33zM1181 635q5 11 19 11h19q14 0 17 -15q7 -71 44 -382q0 -3 1 -13t1 -11q0 -15 -15 -15h-16q-9 -3 -22 -3
t-16 15q0 5 -1 14t-1 13q-17 140 -30 266l-104 -172q-10 -10 -19 -10h-16q-12 0 -19 10l-103 174q-21 -185 -35 -295q0 -15 -16 -15h-22l-16 3q-15 0 -15 15q0 1 1 5t1 8q41 364 44 393q3 15 18 15h20q13 0 20 -11l129 -219zM66 271q42 -5 90 -5q74 0 117 44.5t43 120.5
q0 72 -44 115t-118 43q-7 0 -88 -6v-312zM1411 427q0 -73 42 -117t112 -44q72 0 115 44t43 117q0 74 -42.5 118t-113.5 44q-72 0 -114 -44t-42 -118zM741 -93q3 -5 3 -9q0 -9 -11 -9q-17 0 -26 -3q-11 0 -18 10l-26 57q-13 -5 -35 -5h-31v-46q0 -16 -13 -16h-25
q-12 0 -12 16v218q0 12 12 15q40 4 67 4q49 0 83.5 -24t34.5 -72q0 -45 -35 -71zM806 -54q3 9 10 9q5 0 7 -2q42 -23 81 -23q46 0 46 29q0 16 -15 23t-46 12q-90 16 -90 71q0 36 27.5 55t73.5 19q38 0 90 -21q6 -7 6 -12q0 -7 -2 -9l-9 -17q-3 -6 -10 -6q-5 0 -7 2
q-40 17 -70 17q-42 0 -42 -26q0 -22 50 -31q22 -4 35.5 -7.5t31 -12t26.5 -22.5t9 -33q0 -36 -28 -56.5t-74 -20.5q-55 0 -103 25q-6 3 -6 11v6zM1192 12q0 56 37 91.5t92 35.5q58 0 95 -35.5t37 -91.5t-37 -92t-95 -36q-55 0 -92 35.5t-37 92.5zM0 120v6q0 9 11 9
q5 0 14.5 1t13.5 1q13 3 18 -9l70 -169l71 169q3 12 17 9q4 0 13.5 -1t15.5 -1q11 0 11 -9q0 -4 -3 -6l-102 -222q-6 -12 -16 -12h-13q-12 0 -16 12zM480 104q0 -15 -13 -15h-114v-55h77q13 0 13 -16v-11q0 -13 -13 -13h-77v-62h114q13 0 13 -12v-18q0 -16 -13 -16h-154
q-12 0 -12 16v222q0 13 12 13h154q13 0 13 -13v-20zM1126 -98q0 -6 -4.5 -11t-11.5 -5h-24q-15 0 -15 16v222q0 13 15 13h24q6 0 11 -4t5 -9v-222zM1690 -26v150q0 13 13 13h27q13 0 13 -13v-222q0 -16 -13 -16h-16q-10 0 -17 10l-123 151v-145q0 -6 -4 -11t-9 -5h-27
q-6 0 -10.5 5t-4.5 11v222q0 5 4.5 9t10.5 4h15q13 0 18 -9zM597 -3q22 -5 35 -5q53 0 53 51q0 22 -15 34t-38 12q-22 0 -35 -5v-87zM1321 -62q35 0 55 19t20 55q0 34 -20 54.5t-55 20.5q-33 0 -54 -21t-21 -54q0 -34 21 -54t54 -20z" />
    <glyph glyph-name="eacute" unicode="&#xe9;" vert-adv-y="2063" 
d="M0 631q0 14 15 17q123 7 131 7q110 0 176 -60t66 -164q0 -103 -64 -166.5t-170 -63.5q-7 0 -139 6q-15 4 -15 18v406zM1338 427q0 102 63.5 165t165.5 63q101 0 163.5 -63t62.5 -165q0 -101 -62.5 -163.5t-163.5 -62.5q-102 0 -165.5 63.5t-63.5 162.5zM755 598
q0 -17 -16 -17h-211v-117h159q18 0 18 -18v-30q0 -16 -18 -16h-159v-127h223q15 0 15 -15v-33q0 -18 -15 -18h-273q-17 0 -17 18v406q0 15 17 15h261q16 0 16 -15v-33zM1181 635q5 11 19 11h19q14 0 17 -15q7 -71 44 -382q0 -3 1 -13t1 -11q0 -15 -15 -15h-16q-9 -3 -22 -3
t-16 15q0 5 -1 14t-1 13q-17 140 -30 266l-104 -172q-10 -10 -19 -10h-16q-12 0 -19 10l-103 174q-21 -185 -35 -295q0 -15 -16 -15h-22l-16 3q-15 0 -15 15q0 1 1 5t1 8q41 364 44 393q3 15 18 15h20q13 0 20 -11l129 -219zM66 271q42 -5 90 -5q74 0 117 44.5t43 120.5
q0 72 -44 115t-118 43q-7 0 -88 -6v-312zM1411 427q0 -73 42 -117t112 -44q72 0 115 44t43 117q0 74 -42.5 118t-113.5 44q-72 0 -114 -44t-42 -118zM741 -93q3 -5 3 -9q0 -9 -11 -9q-17 0 -26 -3q-11 0 -18 10l-26 57q-13 -5 -35 -5h-31v-46q0 -16 -13 -16h-25
q-12 0 -12 16v218q0 12 12 15q40 4 67 4q49 0 83.5 -24t34.5 -72q0 -45 -35 -71zM806 -54q3 9 10 9q5 0 7 -2q42 -23 81 -23q46 0 46 29q0 16 -15 23t-46 12q-90 16 -90 71q0 36 27.5 55t73.5 19q38 0 90 -21q6 -7 6 -12q0 -7 -2 -9l-9 -17q-3 -6 -10 -6q-5 0 -7 2
q-40 17 -70 17q-42 0 -42 -26q0 -22 50 -31q22 -4 35.5 -7.5t31 -12t26.5 -22.5t9 -33q0 -36 -28 -56.5t-74 -20.5q-55 0 -103 25q-6 3 -6 11v6zM1192 12q0 56 37 91.5t92 35.5q58 0 95 -35.5t37 -91.5t-37 -92t-95 -36q-55 0 -92 35.5t-37 92.5zM0 120v6q0 9 11 9
q5 0 14.5 1t13.5 1q13 3 18 -9l70 -169l71 169q3 12 17 9q4 0 13.5 -1t15.5 -1q11 0 11 -9q0 -4 -3 -6l-102 -222q-6 -12 -16 -12h-13q-12 0 -16 12zM480 104q0 -15 -13 -15h-114v-55h77q13 0 13 -16v-11q0 -13 -13 -13h-77v-62h114q13 0 13 -12v-18q0 -16 -13 -16h-154
q-12 0 -12 16v222q0 13 12 13h154q13 0 13 -13v-20zM1126 -98q0 -6 -4.5 -11t-11.5 -5h-24q-15 0 -15 16v222q0 13 15 13h24q6 0 11 -4t5 -9v-222zM1690 -26v150q0 13 13 13h27q13 0 13 -13v-222q0 -16 -13 -16h-16q-10 0 -17 10l-123 151v-145q0 -6 -4 -11t-9 -5h-27
q-6 0 -10.5 5t-4.5 11v222q0 5 4.5 9t10.5 4h15q13 0 18 -9zM597 -3q22 -5 35 -5q53 0 53 51q0 22 -15 34t-38 12q-22 0 -35 -5v-87zM1321 -62q35 0 55 19t20 55q0 34 -20 54.5t-55 20.5q-33 0 -54 -21t-21 -54q0 -34 21 -54t54 -20z" />
    <glyph glyph-name="ecircumflex" unicode="&#xea;" vert-adv-y="2063" 
d="M0 631q0 14 15 17q123 7 131 7q110 0 176 -60t66 -164q0 -103 -64 -166.5t-170 -63.5q-7 0 -139 6q-15 4 -15 18v406zM1338 427q0 102 63.5 165t165.5 63q101 0 163.5 -63t62.5 -165q0 -101 -62.5 -163.5t-163.5 -62.5q-102 0 -165.5 63.5t-63.5 162.5zM755 598
q0 -17 -16 -17h-211v-117h159q18 0 18 -18v-30q0 -16 -18 -16h-159v-127h223q15 0 15 -15v-33q0 -18 -15 -18h-273q-17 0 -17 18v406q0 15 17 15h261q16 0 16 -15v-33zM1181 635q5 11 19 11h19q14 0 17 -15q7 -71 44 -382q0 -3 1 -13t1 -11q0 -15 -15 -15h-16q-9 -3 -22 -3
t-16 15q0 5 -1 14t-1 13q-17 140 -30 266l-104 -172q-10 -10 -19 -10h-16q-12 0 -19 10l-103 174q-21 -185 -35 -295q0 -15 -16 -15h-22l-16 3q-15 0 -15 15q0 1 1 5t1 8q41 364 44 393q3 15 18 15h20q13 0 20 -11l129 -219zM66 271q42 -5 90 -5q74 0 117 44.5t43 120.5
q0 72 -44 115t-118 43q-7 0 -88 -6v-312zM1411 427q0 -73 42 -117t112 -44q72 0 115 44t43 117q0 74 -42.5 118t-113.5 44q-72 0 -114 -44t-42 -118zM741 -93q3 -5 3 -9q0 -9 -11 -9q-17 0 -26 -3q-11 0 -18 10l-26 57q-13 -5 -35 -5h-31v-46q0 -16 -13 -16h-25
q-12 0 -12 16v218q0 12 12 15q40 4 67 4q49 0 83.5 -24t34.5 -72q0 -45 -35 -71zM806 -54q3 9 10 9q5 0 7 -2q42 -23 81 -23q46 0 46 29q0 16 -15 23t-46 12q-90 16 -90 71q0 36 27.5 55t73.5 19q38 0 90 -21q6 -7 6 -12q0 -7 -2 -9l-9 -17q-3 -6 -10 -6q-5 0 -7 2
q-40 17 -70 17q-42 0 -42 -26q0 -22 50 -31q22 -4 35.5 -7.5t31 -12t26.5 -22.5t9 -33q0 -36 -28 -56.5t-74 -20.5q-55 0 -103 25q-6 3 -6 11v6zM1192 12q0 56 37 91.5t92 35.5q58 0 95 -35.5t37 -91.5t-37 -92t-95 -36q-55 0 -92 35.5t-37 92.5zM0 120v6q0 9 11 9
q5 0 14.5 1t13.5 1q13 3 18 -9l70 -169l71 169q3 12 17 9q4 0 13.5 -1t15.5 -1q11 0 11 -9q0 -4 -3 -6l-102 -222q-6 -12 -16 -12h-13q-12 0 -16 12zM480 104q0 -15 -13 -15h-114v-55h77q13 0 13 -16v-11q0 -13 -13 -13h-77v-62h114q13 0 13 -12v-18q0 -16 -13 -16h-154
q-12 0 -12 16v222q0 13 12 13h154q13 0 13 -13v-20zM1126 -98q0 -6 -4.5 -11t-11.5 -5h-24q-15 0 -15 16v222q0 13 15 13h24q6 0 11 -4t5 -9v-222zM1690 -26v150q0 13 13 13h27q13 0 13 -13v-222q0 -16 -13 -16h-16q-10 0 -17 10l-123 151v-145q0 -6 -4 -11t-9 -5h-27
q-6 0 -10.5 5t-4.5 11v222q0 5 4.5 9t10.5 4h15q13 0 18 -9zM597 -3q22 -5 35 -5q53 0 53 51q0 22 -15 34t-38 12q-22 0 -35 -5v-87zM1321 -62q35 0 55 19t20 55q0 34 -20 54.5t-55 20.5q-33 0 -54 -21t-21 -54q0 -34 21 -54t54 -20z" />
    <glyph glyph-name="edieresis" unicode="&#xeb;" vert-adv-y="2063" 
d="M0 631q0 14 15 17q123 7 131 7q110 0 176 -60t66 -164q0 -103 -64 -166.5t-170 -63.5q-7 0 -139 6q-15 4 -15 18v406zM1338 427q0 102 63.5 165t165.5 63q101 0 163.5 -63t62.5 -165q0 -101 -62.5 -163.5t-163.5 -62.5q-102 0 -165.5 63.5t-63.5 162.5zM755 598
q0 -17 -16 -17h-211v-117h159q18 0 18 -18v-30q0 -16 -18 -16h-159v-127h223q15 0 15 -15v-33q0 -18 -15 -18h-273q-17 0 -17 18v406q0 15 17 15h261q16 0 16 -15v-33zM1181 635q5 11 19 11h19q14 0 17 -15q7 -71 44 -382q0 -3 1 -13t1 -11q0 -15 -15 -15h-16q-9 -3 -22 -3
t-16 15q0 5 -1 14t-1 13q-17 140 -30 266l-104 -172q-10 -10 -19 -10h-16q-12 0 -19 10l-103 174q-21 -185 -35 -295q0 -15 -16 -15h-22l-16 3q-15 0 -15 15q0 1 1 5t1 8q41 364 44 393q3 15 18 15h20q13 0 20 -11l129 -219zM66 271q42 -5 90 -5q74 0 117 44.5t43 120.5
q0 72 -44 115t-118 43q-7 0 -88 -6v-312zM1411 427q0 -73 42 -117t112 -44q72 0 115 44t43 117q0 74 -42.5 118t-113.5 44q-72 0 -114 -44t-42 -118zM741 -93q3 -5 3 -9q0 -9 -11 -9q-17 0 -26 -3q-11 0 -18 10l-26 57q-13 -5 -35 -5h-31v-46q0 -16 -13 -16h-25
q-12 0 -12 16v218q0 12 12 15q40 4 67 4q49 0 83.5 -24t34.5 -72q0 -45 -35 -71zM806 -54q3 9 10 9q5 0 7 -2q42 -23 81 -23q46 0 46 29q0 16 -15 23t-46 12q-90 16 -90 71q0 36 27.5 55t73.5 19q38 0 90 -21q6 -7 6 -12q0 -7 -2 -9l-9 -17q-3 -6 -10 -6q-5 0 -7 2
q-40 17 -70 17q-42 0 -42 -26q0 -22 50 -31q22 -4 35.5 -7.5t31 -12t26.5 -22.5t9 -33q0 -36 -28 -56.5t-74 -20.5q-55 0 -103 25q-6 3 -6 11v6zM1192 12q0 56 37 91.5t92 35.5q58 0 95 -35.5t37 -91.5t-37 -92t-95 -36q-55 0 -92 35.5t-37 92.5zM0 120v6q0 9 11 9
q5 0 14.5 1t13.5 1q13 3 18 -9l70 -169l71 169q3 12 17 9q4 0 13.5 -1t15.5 -1q11 0 11 -9q0 -4 -3 -6l-102 -222q-6 -12 -16 -12h-13q-12 0 -16 12zM480 104q0 -15 -13 -15h-114v-55h77q13 0 13 -16v-11q0 -13 -13 -13h-77v-62h114q13 0 13 -12v-18q0 -16 -13 -16h-154
q-12 0 -12 16v222q0 13 12 13h154q13 0 13 -13v-20zM1126 -98q0 -6 -4.5 -11t-11.5 -5h-24q-15 0 -15 16v222q0 13 15 13h24q6 0 11 -4t5 -9v-222zM1690 -26v150q0 13 13 13h27q13 0 13 -13v-222q0 -16 -13 -16h-16q-10 0 -17 10l-123 151v-145q0 -6 -4 -11t-9 -5h-27
q-6 0 -10.5 5t-4.5 11v222q0 5 4.5 9t10.5 4h15q13 0 18 -9zM597 -3q22 -5 35 -5q53 0 53 51q0 22 -15 34t-38 12q-22 0 -35 -5v-87zM1321 -62q35 0 55 19t20 55q0 34 -20 54.5t-55 20.5q-33 0 -54 -21t-21 -54q0 -34 21 -54t54 -20z" />
    <glyph glyph-name="igrave" unicode="&#xec;" vert-adv-y="2063" 
d="M0 631q0 14 15 17q123 7 131 7q110 0 176 -60t66 -164q0 -103 -64 -166.5t-170 -63.5q-7 0 -139 6q-15 4 -15 18v406zM1338 427q0 102 63.5 165t165.5 63q101 0 163.5 -63t62.5 -165q0 -101 -62.5 -163.5t-163.5 -62.5q-102 0 -165.5 63.5t-63.5 162.5zM755 598
q0 -17 -16 -17h-211v-117h159q18 0 18 -18v-30q0 -16 -18 -16h-159v-127h223q15 0 15 -15v-33q0 -18 -15 -18h-273q-17 0 -17 18v406q0 15 17 15h261q16 0 16 -15v-33zM1181 635q5 11 19 11h19q14 0 17 -15q7 -71 44 -382q0 -3 1 -13t1 -11q0 -15 -15 -15h-16q-9 -3 -22 -3
t-16 15q0 5 -1 14t-1 13q-17 140 -30 266l-104 -172q-10 -10 -19 -10h-16q-12 0 -19 10l-103 174q-21 -185 -35 -295q0 -15 -16 -15h-22l-16 3q-15 0 -15 15q0 1 1 5t1 8q41 364 44 393q3 15 18 15h20q13 0 20 -11l129 -219zM66 271q42 -5 90 -5q74 0 117 44.5t43 120.5
q0 72 -44 115t-118 43q-7 0 -88 -6v-312zM1411 427q0 -73 42 -117t112 -44q72 0 115 44t43 117q0 74 -42.5 118t-113.5 44q-72 0 -114 -44t-42 -118zM741 -93q3 -5 3 -9q0 -9 -11 -9q-17 0 -26 -3q-11 0 -18 10l-26 57q-13 -5 -35 -5h-31v-46q0 -16 -13 -16h-25
q-12 0 -12 16v218q0 12 12 15q40 4 67 4q49 0 83.5 -24t34.5 -72q0 -45 -35 -71zM806 -54q3 9 10 9q5 0 7 -2q42 -23 81 -23q46 0 46 29q0 16 -15 23t-46 12q-90 16 -90 71q0 36 27.5 55t73.5 19q38 0 90 -21q6 -7 6 -12q0 -7 -2 -9l-9 -17q-3 -6 -10 -6q-5 0 -7 2
q-40 17 -70 17q-42 0 -42 -26q0 -22 50 -31q22 -4 35.5 -7.5t31 -12t26.5 -22.5t9 -33q0 -36 -28 -56.5t-74 -20.5q-55 0 -103 25q-6 3 -6 11v6zM1192 12q0 56 37 91.5t92 35.5q58 0 95 -35.5t37 -91.5t-37 -92t-95 -36q-55 0 -92 35.5t-37 92.5zM0 120v6q0 9 11 9
q5 0 14.5 1t13.5 1q13 3 18 -9l70 -169l71 169q3 12 17 9q4 0 13.5 -1t15.5 -1q11 0 11 -9q0 -4 -3 -6l-102 -222q-6 -12 -16 -12h-13q-12 0 -16 12zM480 104q0 -15 -13 -15h-114v-55h77q13 0 13 -16v-11q0 -13 -13 -13h-77v-62h114q13 0 13 -12v-18q0 -16 -13 -16h-154
q-12 0 -12 16v222q0 13 12 13h154q13 0 13 -13v-20zM1126 -98q0 -6 -4.5 -11t-11.5 -5h-24q-15 0 -15 16v222q0 13 15 13h24q6 0 11 -4t5 -9v-222zM1690 -26v150q0 13 13 13h27q13 0 13 -13v-222q0 -16 -13 -16h-16q-10 0 -17 10l-123 151v-145q0 -6 -4 -11t-9 -5h-27
q-6 0 -10.5 5t-4.5 11v222q0 5 4.5 9t10.5 4h15q13 0 18 -9zM597 -3q22 -5 35 -5q53 0 53 51q0 22 -15 34t-38 12q-22 0 -35 -5v-87zM1321 -62q35 0 55 19t20 55q0 34 -20 54.5t-55 20.5q-33 0 -54 -21t-21 -54q0 -34 21 -54t54 -20z" />
    <glyph glyph-name="iacute" unicode="&#xed;" vert-adv-y="2063" 
d="M0 631q0 14 15 17q123 7 131 7q110 0 176 -60t66 -164q0 -103 -64 -166.5t-170 -63.5q-7 0 -139 6q-15 4 -15 18v406zM1338 427q0 102 63.5 165t165.5 63q101 0 163.5 -63t62.5 -165q0 -101 -62.5 -163.5t-163.5 -62.5q-102 0 -165.5 63.5t-63.5 162.5zM755 598
q0 -17 -16 -17h-211v-117h159q18 0 18 -18v-30q0 -16 -18 -16h-159v-127h223q15 0 15 -15v-33q0 -18 -15 -18h-273q-17 0 -17 18v406q0 15 17 15h261q16 0 16 -15v-33zM1181 635q5 11 19 11h19q14 0 17 -15q7 -71 44 -382q0 -3 1 -13t1 -11q0 -15 -15 -15h-16q-9 -3 -22 -3
t-16 15q0 5 -1 14t-1 13q-17 140 -30 266l-104 -172q-10 -10 -19 -10h-16q-12 0 -19 10l-103 174q-21 -185 -35 -295q0 -15 -16 -15h-22l-16 3q-15 0 -15 15q0 1 1 5t1 8q41 364 44 393q3 15 18 15h20q13 0 20 -11l129 -219zM66 271q42 -5 90 -5q74 0 117 44.5t43 120.5
q0 72 -44 115t-118 43q-7 0 -88 -6v-312zM1411 427q0 -73 42 -117t112 -44q72 0 115 44t43 117q0 74 -42.5 118t-113.5 44q-72 0 -114 -44t-42 -118zM741 -93q3 -5 3 -9q0 -9 -11 -9q-17 0 -26 -3q-11 0 -18 10l-26 57q-13 -5 -35 -5h-31v-46q0 -16 -13 -16h-25
q-12 0 -12 16v218q0 12 12 15q40 4 67 4q49 0 83.5 -24t34.5 -72q0 -45 -35 -71zM806 -54q3 9 10 9q5 0 7 -2q42 -23 81 -23q46 0 46 29q0 16 -15 23t-46 12q-90 16 -90 71q0 36 27.5 55t73.5 19q38 0 90 -21q6 -7 6 -12q0 -7 -2 -9l-9 -17q-3 -6 -10 -6q-5 0 -7 2
q-40 17 -70 17q-42 0 -42 -26q0 -22 50 -31q22 -4 35.5 -7.5t31 -12t26.5 -22.5t9 -33q0 -36 -28 -56.5t-74 -20.5q-55 0 -103 25q-6 3 -6 11v6zM1192 12q0 56 37 91.5t92 35.5q58 0 95 -35.5t37 -91.5t-37 -92t-95 -36q-55 0 -92 35.5t-37 92.5zM0 120v6q0 9 11 9
q5 0 14.5 1t13.5 1q13 3 18 -9l70 -169l71 169q3 12 17 9q4 0 13.5 -1t15.5 -1q11 0 11 -9q0 -4 -3 -6l-102 -222q-6 -12 -16 -12h-13q-12 0 -16 12zM480 104q0 -15 -13 -15h-114v-55h77q13 0 13 -16v-11q0 -13 -13 -13h-77v-62h114q13 0 13 -12v-18q0 -16 -13 -16h-154
q-12 0 -12 16v222q0 13 12 13h154q13 0 13 -13v-20zM1126 -98q0 -6 -4.5 -11t-11.5 -5h-24q-15 0 -15 16v222q0 13 15 13h24q6 0 11 -4t5 -9v-222zM1690 -26v150q0 13 13 13h27q13 0 13 -13v-222q0 -16 -13 -16h-16q-10 0 -17 10l-123 151v-145q0 -6 -4 -11t-9 -5h-27
q-6 0 -10.5 5t-4.5 11v222q0 5 4.5 9t10.5 4h15q13 0 18 -9zM597 -3q22 -5 35 -5q53 0 53 51q0 22 -15 34t-38 12q-22 0 -35 -5v-87zM1321 -62q35 0 55 19t20 55q0 34 -20 54.5t-55 20.5q-33 0 -54 -21t-21 -54q0 -34 21 -54t54 -20z" />
    <glyph glyph-name="icircumflex" unicode="&#xee;" vert-adv-y="2063" 
d="M0 631q0 14 15 17q123 7 131 7q110 0 176 -60t66 -164q0 -103 -64 -166.5t-170 -63.5q-7 0 -139 6q-15 4 -15 18v406zM1338 427q0 102 63.5 165t165.5 63q101 0 163.5 -63t62.5 -165q0 -101 -62.5 -163.5t-163.5 -62.5q-102 0 -165.5 63.5t-63.5 162.5zM755 598
q0 -17 -16 -17h-211v-117h159q18 0 18 -18v-30q0 -16 -18 -16h-159v-127h223q15 0 15 -15v-33q0 -18 -15 -18h-273q-17 0 -17 18v406q0 15 17 15h261q16 0 16 -15v-33zM1181 635q5 11 19 11h19q14 0 17 -15q7 -71 44 -382q0 -3 1 -13t1 -11q0 -15 -15 -15h-16q-9 -3 -22 -3
t-16 15q0 5 -1 14t-1 13q-17 140 -30 266l-104 -172q-10 -10 -19 -10h-16q-12 0 -19 10l-103 174q-21 -185 -35 -295q0 -15 -16 -15h-22l-16 3q-15 0 -15 15q0 1 1 5t1 8q41 364 44 393q3 15 18 15h20q13 0 20 -11l129 -219zM66 271q42 -5 90 -5q74 0 117 44.5t43 120.5
q0 72 -44 115t-118 43q-7 0 -88 -6v-312zM1411 427q0 -73 42 -117t112 -44q72 0 115 44t43 117q0 74 -42.5 118t-113.5 44q-72 0 -114 -44t-42 -118zM741 -93q3 -5 3 -9q0 -9 -11 -9q-17 0 -26 -3q-11 0 -18 10l-26 57q-13 -5 -35 -5h-31v-46q0 -16 -13 -16h-25
q-12 0 -12 16v218q0 12 12 15q40 4 67 4q49 0 83.5 -24t34.5 -72q0 -45 -35 -71zM806 -54q3 9 10 9q5 0 7 -2q42 -23 81 -23q46 0 46 29q0 16 -15 23t-46 12q-90 16 -90 71q0 36 27.5 55t73.5 19q38 0 90 -21q6 -7 6 -12q0 -7 -2 -9l-9 -17q-3 -6 -10 -6q-5 0 -7 2
q-40 17 -70 17q-42 0 -42 -26q0 -22 50 -31q22 -4 35.5 -7.5t31 -12t26.5 -22.5t9 -33q0 -36 -28 -56.5t-74 -20.5q-55 0 -103 25q-6 3 -6 11v6zM1192 12q0 56 37 91.5t92 35.5q58 0 95 -35.5t37 -91.5t-37 -92t-95 -36q-55 0 -92 35.5t-37 92.5zM0 120v6q0 9 11 9
q5 0 14.5 1t13.5 1q13 3 18 -9l70 -169l71 169q3 12 17 9q4 0 13.5 -1t15.5 -1q11 0 11 -9q0 -4 -3 -6l-102 -222q-6 -12 -16 -12h-13q-12 0 -16 12zM480 104q0 -15 -13 -15h-114v-55h77q13 0 13 -16v-11q0 -13 -13 -13h-77v-62h114q13 0 13 -12v-18q0 -16 -13 -16h-154
q-12 0 -12 16v222q0 13 12 13h154q13 0 13 -13v-20zM1126 -98q0 -6 -4.5 -11t-11.5 -5h-24q-15 0 -15 16v222q0 13 15 13h24q6 0 11 -4t5 -9v-222zM1690 -26v150q0 13 13 13h27q13 0 13 -13v-222q0 -16 -13 -16h-16q-10 0 -17 10l-123 151v-145q0 -6 -4 -11t-9 -5h-27
q-6 0 -10.5 5t-4.5 11v222q0 5 4.5 9t10.5 4h15q13 0 18 -9zM597 -3q22 -5 35 -5q53 0 53 51q0 22 -15 34t-38 12q-22 0 -35 -5v-87zM1321 -62q35 0 55 19t20 55q0 34 -20 54.5t-55 20.5q-33 0 -54 -21t-21 -54q0 -34 21 -54t54 -20z" />
    <glyph glyph-name="idieresis" unicode="&#xef;" vert-adv-y="2063" 
d="M0 631q0 14 15 17q123 7 131 7q110 0 176 -60t66 -164q0 -103 -64 -166.5t-170 -63.5q-7 0 -139 6q-15 4 -15 18v406zM1338 427q0 102 63.5 165t165.5 63q101 0 163.5 -63t62.5 -165q0 -101 -62.5 -163.5t-163.5 -62.5q-102 0 -165.5 63.5t-63.5 162.5zM755 598
q0 -17 -16 -17h-211v-117h159q18 0 18 -18v-30q0 -16 -18 -16h-159v-127h223q15 0 15 -15v-33q0 -18 -15 -18h-273q-17 0 -17 18v406q0 15 17 15h261q16 0 16 -15v-33zM1181 635q5 11 19 11h19q14 0 17 -15q7 -71 44 -382q0 -3 1 -13t1 -11q0 -15 -15 -15h-16q-9 -3 -22 -3
t-16 15q0 5 -1 14t-1 13q-17 140 -30 266l-104 -172q-10 -10 -19 -10h-16q-12 0 -19 10l-103 174q-21 -185 -35 -295q0 -15 -16 -15h-22l-16 3q-15 0 -15 15q0 1 1 5t1 8q41 364 44 393q3 15 18 15h20q13 0 20 -11l129 -219zM66 271q42 -5 90 -5q74 0 117 44.5t43 120.5
q0 72 -44 115t-118 43q-7 0 -88 -6v-312zM1411 427q0 -73 42 -117t112 -44q72 0 115 44t43 117q0 74 -42.5 118t-113.5 44q-72 0 -114 -44t-42 -118zM741 -93q3 -5 3 -9q0 -9 -11 -9q-17 0 -26 -3q-11 0 -18 10l-26 57q-13 -5 -35 -5h-31v-46q0 -16 -13 -16h-25
q-12 0 -12 16v218q0 12 12 15q40 4 67 4q49 0 83.5 -24t34.5 -72q0 -45 -35 -71zM806 -54q3 9 10 9q5 0 7 -2q42 -23 81 -23q46 0 46 29q0 16 -15 23t-46 12q-90 16 -90 71q0 36 27.5 55t73.5 19q38 0 90 -21q6 -7 6 -12q0 -7 -2 -9l-9 -17q-3 -6 -10 -6q-5 0 -7 2
q-40 17 -70 17q-42 0 -42 -26q0 -22 50 -31q22 -4 35.5 -7.5t31 -12t26.5 -22.5t9 -33q0 -36 -28 -56.5t-74 -20.5q-55 0 -103 25q-6 3 -6 11v6zM1192 12q0 56 37 91.5t92 35.5q58 0 95 -35.5t37 -91.5t-37 -92t-95 -36q-55 0 -92 35.5t-37 92.5zM0 120v6q0 9 11 9
q5 0 14.5 1t13.5 1q13 3 18 -9l70 -169l71 169q3 12 17 9q4 0 13.5 -1t15.5 -1q11 0 11 -9q0 -4 -3 -6l-102 -222q-6 -12 -16 -12h-13q-12 0 -16 12zM480 104q0 -15 -13 -15h-114v-55h77q13 0 13 -16v-11q0 -13 -13 -13h-77v-62h114q13 0 13 -12v-18q0 -16 -13 -16h-154
q-12 0 -12 16v222q0 13 12 13h154q13 0 13 -13v-20zM1126 -98q0 -6 -4.5 -11t-11.5 -5h-24q-15 0 -15 16v222q0 13 15 13h24q6 0 11 -4t5 -9v-222zM1690 -26v150q0 13 13 13h27q13 0 13 -13v-222q0 -16 -13 -16h-16q-10 0 -17 10l-123 151v-145q0 -6 -4 -11t-9 -5h-27
q-6 0 -10.5 5t-4.5 11v222q0 5 4.5 9t10.5 4h15q13 0 18 -9zM597 -3q22 -5 35 -5q53 0 53 51q0 22 -15 34t-38 12q-22 0 -35 -5v-87zM1321 -62q35 0 55 19t20 55q0 34 -20 54.5t-55 20.5q-33 0 -54 -21t-21 -54q0 -34 21 -54t54 -20z" />
    <glyph glyph-name="ograve" unicode="&#xf2;" vert-adv-y="2063" 
d="M0 631q0 14 15 17q123 7 131 7q110 0 176 -60t66 -164q0 -103 -64 -166.5t-170 -63.5q-7 0 -139 6q-15 4 -15 18v406zM1338 427q0 102 63.5 165t165.5 63q101 0 163.5 -63t62.5 -165q0 -101 -62.5 -163.5t-163.5 -62.5q-102 0 -165.5 63.5t-63.5 162.5zM755 598
q0 -17 -16 -17h-211v-117h159q18 0 18 -18v-30q0 -16 -18 -16h-159v-127h223q15 0 15 -15v-33q0 -18 -15 -18h-273q-17 0 -17 18v406q0 15 17 15h261q16 0 16 -15v-33zM1181 635q5 11 19 11h19q14 0 17 -15q7 -71 44 -382q0 -3 1 -13t1 -11q0 -15 -15 -15h-16q-9 -3 -22 -3
t-16 15q0 5 -1 14t-1 13q-17 140 -30 266l-104 -172q-10 -10 -19 -10h-16q-12 0 -19 10l-103 174q-21 -185 -35 -295q0 -15 -16 -15h-22l-16 3q-15 0 -15 15q0 1 1 5t1 8q41 364 44 393q3 15 18 15h20q13 0 20 -11l129 -219zM66 271q42 -5 90 -5q74 0 117 44.5t43 120.5
q0 72 -44 115t-118 43q-7 0 -88 -6v-312zM1411 427q0 -73 42 -117t112 -44q72 0 115 44t43 117q0 74 -42.5 118t-113.5 44q-72 0 -114 -44t-42 -118zM741 -93q3 -5 3 -9q0 -9 -11 -9q-17 0 -26 -3q-11 0 -18 10l-26 57q-13 -5 -35 -5h-31v-46q0 -16 -13 -16h-25
q-12 0 -12 16v218q0 12 12 15q40 4 67 4q49 0 83.5 -24t34.5 -72q0 -45 -35 -71zM806 -54q3 9 10 9q5 0 7 -2q42 -23 81 -23q46 0 46 29q0 16 -15 23t-46 12q-90 16 -90 71q0 36 27.5 55t73.5 19q38 0 90 -21q6 -7 6 -12q0 -7 -2 -9l-9 -17q-3 -6 -10 -6q-5 0 -7 2
q-40 17 -70 17q-42 0 -42 -26q0 -22 50 -31q22 -4 35.5 -7.5t31 -12t26.5 -22.5t9 -33q0 -36 -28 -56.5t-74 -20.5q-55 0 -103 25q-6 3 -6 11v6zM1192 12q0 56 37 91.5t92 35.5q58 0 95 -35.5t37 -91.5t-37 -92t-95 -36q-55 0 -92 35.5t-37 92.5zM0 120v6q0 9 11 9
q5 0 14.5 1t13.5 1q13 3 18 -9l70 -169l71 169q3 12 17 9q4 0 13.5 -1t15.5 -1q11 0 11 -9q0 -4 -3 -6l-102 -222q-6 -12 -16 -12h-13q-12 0 -16 12zM480 104q0 -15 -13 -15h-114v-55h77q13 0 13 -16v-11q0 -13 -13 -13h-77v-62h114q13 0 13 -12v-18q0 -16 -13 -16h-154
q-12 0 -12 16v222q0 13 12 13h154q13 0 13 -13v-20zM1126 -98q0 -6 -4.5 -11t-11.5 -5h-24q-15 0 -15 16v222q0 13 15 13h24q6 0 11 -4t5 -9v-222zM1690 -26v150q0 13 13 13h27q13 0 13 -13v-222q0 -16 -13 -16h-16q-10 0 -17 10l-123 151v-145q0 -6 -4 -11t-9 -5h-27
q-6 0 -10.5 5t-4.5 11v222q0 5 4.5 9t10.5 4h15q13 0 18 -9zM597 -3q22 -5 35 -5q53 0 53 51q0 22 -15 34t-38 12q-22 0 -35 -5v-87zM1321 -62q35 0 55 19t20 55q0 34 -20 54.5t-55 20.5q-33 0 -54 -21t-21 -54q0 -34 21 -54t54 -20z" />
    <glyph glyph-name="oacute" unicode="&#xf3;" vert-adv-y="2063" 
d="M0 631q0 14 15 17q123 7 131 7q110 0 176 -60t66 -164q0 -103 -64 -166.5t-170 -63.5q-7 0 -139 6q-15 4 -15 18v406zM1338 427q0 102 63.5 165t165.5 63q101 0 163.5 -63t62.5 -165q0 -101 -62.5 -163.5t-163.5 -62.5q-102 0 -165.5 63.5t-63.5 162.5zM755 598
q0 -17 -16 -17h-211v-117h159q18 0 18 -18v-30q0 -16 -18 -16h-159v-127h223q15 0 15 -15v-33q0 -18 -15 -18h-273q-17 0 -17 18v406q0 15 17 15h261q16 0 16 -15v-33zM1181 635q5 11 19 11h19q14 0 17 -15q7 -71 44 -382q0 -3 1 -13t1 -11q0 -15 -15 -15h-16q-9 -3 -22 -3
t-16 15q0 5 -1 14t-1 13q-17 140 -30 266l-104 -172q-10 -10 -19 -10h-16q-12 0 -19 10l-103 174q-21 -185 -35 -295q0 -15 -16 -15h-22l-16 3q-15 0 -15 15q0 1 1 5t1 8q41 364 44 393q3 15 18 15h20q13 0 20 -11l129 -219zM66 271q42 -5 90 -5q74 0 117 44.5t43 120.5
q0 72 -44 115t-118 43q-7 0 -88 -6v-312zM1411 427q0 -73 42 -117t112 -44q72 0 115 44t43 117q0 74 -42.5 118t-113.5 44q-72 0 -114 -44t-42 -118zM741 -93q3 -5 3 -9q0 -9 -11 -9q-17 0 -26 -3q-11 0 -18 10l-26 57q-13 -5 -35 -5h-31v-46q0 -16 -13 -16h-25
q-12 0 -12 16v218q0 12 12 15q40 4 67 4q49 0 83.5 -24t34.5 -72q0 -45 -35 -71zM806 -54q3 9 10 9q5 0 7 -2q42 -23 81 -23q46 0 46 29q0 16 -15 23t-46 12q-90 16 -90 71q0 36 27.5 55t73.5 19q38 0 90 -21q6 -7 6 -12q0 -7 -2 -9l-9 -17q-3 -6 -10 -6q-5 0 -7 2
q-40 17 -70 17q-42 0 -42 -26q0 -22 50 -31q22 -4 35.5 -7.5t31 -12t26.5 -22.5t9 -33q0 -36 -28 -56.5t-74 -20.5q-55 0 -103 25q-6 3 -6 11v6zM1192 12q0 56 37 91.5t92 35.5q58 0 95 -35.5t37 -91.5t-37 -92t-95 -36q-55 0 -92 35.5t-37 92.5zM0 120v6q0 9 11 9
q5 0 14.5 1t13.5 1q13 3 18 -9l70 -169l71 169q3 12 17 9q4 0 13.5 -1t15.5 -1q11 0 11 -9q0 -4 -3 -6l-102 -222q-6 -12 -16 -12h-13q-12 0 -16 12zM480 104q0 -15 -13 -15h-114v-55h77q13 0 13 -16v-11q0 -13 -13 -13h-77v-62h114q13 0 13 -12v-18q0 -16 -13 -16h-154
q-12 0 -12 16v222q0 13 12 13h154q13 0 13 -13v-20zM1126 -98q0 -6 -4.5 -11t-11.5 -5h-24q-15 0 -15 16v222q0 13 15 13h24q6 0 11 -4t5 -9v-222zM1690 -26v150q0 13 13 13h27q13 0 13 -13v-222q0 -16 -13 -16h-16q-10 0 -17 10l-123 151v-145q0 -6 -4 -11t-9 -5h-27
q-6 0 -10.5 5t-4.5 11v222q0 5 4.5 9t10.5 4h15q13 0 18 -9zM597 -3q22 -5 35 -5q53 0 53 51q0 22 -15 34t-38 12q-22 0 -35 -5v-87zM1321 -62q35 0 55 19t20 55q0 34 -20 54.5t-55 20.5q-33 0 -54 -21t-21 -54q0 -34 21 -54t54 -20z" />
    <glyph glyph-name="ocircumflex" unicode="&#xf4;" vert-adv-y="2063" 
d="M0 631q0 14 15 17q123 7 131 7q110 0 176 -60t66 -164q0 -103 -64 -166.5t-170 -63.5q-7 0 -139 6q-15 4 -15 18v406zM1338 427q0 102 63.5 165t165.5 63q101 0 163.5 -63t62.5 -165q0 -101 -62.5 -163.5t-163.5 -62.5q-102 0 -165.5 63.5t-63.5 162.5zM755 598
q0 -17 -16 -17h-211v-117h159q18 0 18 -18v-30q0 -16 -18 -16h-159v-127h223q15 0 15 -15v-33q0 -18 -15 -18h-273q-17 0 -17 18v406q0 15 17 15h261q16 0 16 -15v-33zM1181 635q5 11 19 11h19q14 0 17 -15q7 -71 44 -382q0 -3 1 -13t1 -11q0 -15 -15 -15h-16q-9 -3 -22 -3
t-16 15q0 5 -1 14t-1 13q-17 140 -30 266l-104 -172q-10 -10 -19 -10h-16q-12 0 -19 10l-103 174q-21 -185 -35 -295q0 -15 -16 -15h-22l-16 3q-15 0 -15 15q0 1 1 5t1 8q41 364 44 393q3 15 18 15h20q13 0 20 -11l129 -219zM66 271q42 -5 90 -5q74 0 117 44.5t43 120.5
q0 72 -44 115t-118 43q-7 0 -88 -6v-312zM1411 427q0 -73 42 -117t112 -44q72 0 115 44t43 117q0 74 -42.5 118t-113.5 44q-72 0 -114 -44t-42 -118zM741 -93q3 -5 3 -9q0 -9 -11 -9q-17 0 -26 -3q-11 0 -18 10l-26 57q-13 -5 -35 -5h-31v-46q0 -16 -13 -16h-25
q-12 0 -12 16v218q0 12 12 15q40 4 67 4q49 0 83.5 -24t34.5 -72q0 -45 -35 -71zM806 -54q3 9 10 9q5 0 7 -2q42 -23 81 -23q46 0 46 29q0 16 -15 23t-46 12q-90 16 -90 71q0 36 27.5 55t73.5 19q38 0 90 -21q6 -7 6 -12q0 -7 -2 -9l-9 -17q-3 -6 -10 -6q-5 0 -7 2
q-40 17 -70 17q-42 0 -42 -26q0 -22 50 -31q22 -4 35.5 -7.5t31 -12t26.5 -22.5t9 -33q0 -36 -28 -56.5t-74 -20.5q-55 0 -103 25q-6 3 -6 11v6zM1192 12q0 56 37 91.5t92 35.5q58 0 95 -35.5t37 -91.5t-37 -92t-95 -36q-55 0 -92 35.5t-37 92.5zM0 120v6q0 9 11 9
q5 0 14.5 1t13.5 1q13 3 18 -9l70 -169l71 169q3 12 17 9q4 0 13.5 -1t15.5 -1q11 0 11 -9q0 -4 -3 -6l-102 -222q-6 -12 -16 -12h-13q-12 0 -16 12zM480 104q0 -15 -13 -15h-114v-55h77q13 0 13 -16v-11q0 -13 -13 -13h-77v-62h114q13 0 13 -12v-18q0 -16 -13 -16h-154
q-12 0 -12 16v222q0 13 12 13h154q13 0 13 -13v-20zM1126 -98q0 -6 -4.5 -11t-11.5 -5h-24q-15 0 -15 16v222q0 13 15 13h24q6 0 11 -4t5 -9v-222zM1690 -26v150q0 13 13 13h27q13 0 13 -13v-222q0 -16 -13 -16h-16q-10 0 -17 10l-123 151v-145q0 -6 -4 -11t-9 -5h-27
q-6 0 -10.5 5t-4.5 11v222q0 5 4.5 9t10.5 4h15q13 0 18 -9zM597 -3q22 -5 35 -5q53 0 53 51q0 22 -15 34t-38 12q-22 0 -35 -5v-87zM1321 -62q35 0 55 19t20 55q0 34 -20 54.5t-55 20.5q-33 0 -54 -21t-21 -54q0 -34 21 -54t54 -20z" />
    <glyph glyph-name="otilde" unicode="&#xf5;" vert-adv-y="2063" 
d="M0 631q0 14 15 17q123 7 131 7q110 0 176 -60t66 -164q0 -103 -64 -166.5t-170 -63.5q-7 0 -139 6q-15 4 -15 18v406zM1338 427q0 102 63.5 165t165.5 63q101 0 163.5 -63t62.5 -165q0 -101 -62.5 -163.5t-163.5 -62.5q-102 0 -165.5 63.5t-63.5 162.5zM755 598
q0 -17 -16 -17h-211v-117h159q18 0 18 -18v-30q0 -16 -18 -16h-159v-127h223q15 0 15 -15v-33q0 -18 -15 -18h-273q-17 0 -17 18v406q0 15 17 15h261q16 0 16 -15v-33zM1181 635q5 11 19 11h19q14 0 17 -15q7 -71 44 -382q0 -3 1 -13t1 -11q0 -15 -15 -15h-16q-9 -3 -22 -3
t-16 15q0 5 -1 14t-1 13q-17 140 -30 266l-104 -172q-10 -10 -19 -10h-16q-12 0 -19 10l-103 174q-21 -185 -35 -295q0 -15 -16 -15h-22l-16 3q-15 0 -15 15q0 1 1 5t1 8q41 364 44 393q3 15 18 15h20q13 0 20 -11l129 -219zM66 271q42 -5 90 -5q74 0 117 44.5t43 120.5
q0 72 -44 115t-118 43q-7 0 -88 -6v-312zM1411 427q0 -73 42 -117t112 -44q72 0 115 44t43 117q0 74 -42.5 118t-113.5 44q-72 0 -114 -44t-42 -118zM741 -93q3 -5 3 -9q0 -9 -11 -9q-17 0 -26 -3q-11 0 -18 10l-26 57q-13 -5 -35 -5h-31v-46q0 -16 -13 -16h-25
q-12 0 -12 16v218q0 12 12 15q40 4 67 4q49 0 83.5 -24t34.5 -72q0 -45 -35 -71zM806 -54q3 9 10 9q5 0 7 -2q42 -23 81 -23q46 0 46 29q0 16 -15 23t-46 12q-90 16 -90 71q0 36 27.5 55t73.5 19q38 0 90 -21q6 -7 6 -12q0 -7 -2 -9l-9 -17q-3 -6 -10 -6q-5 0 -7 2
q-40 17 -70 17q-42 0 -42 -26q0 -22 50 -31q22 -4 35.5 -7.5t31 -12t26.5 -22.5t9 -33q0 -36 -28 -56.5t-74 -20.5q-55 0 -103 25q-6 3 -6 11v6zM1192 12q0 56 37 91.5t92 35.5q58 0 95 -35.5t37 -91.5t-37 -92t-95 -36q-55 0 -92 35.5t-37 92.5zM0 120v6q0 9 11 9
q5 0 14.5 1t13.5 1q13 3 18 -9l70 -169l71 169q3 12 17 9q4 0 13.5 -1t15.5 -1q11 0 11 -9q0 -4 -3 -6l-102 -222q-6 -12 -16 -12h-13q-12 0 -16 12zM480 104q0 -15 -13 -15h-114v-55h77q13 0 13 -16v-11q0 -13 -13 -13h-77v-62h114q13 0 13 -12v-18q0 -16 -13 -16h-154
q-12 0 -12 16v222q0 13 12 13h154q13 0 13 -13v-20zM1126 -98q0 -6 -4.5 -11t-11.5 -5h-24q-15 0 -15 16v222q0 13 15 13h24q6 0 11 -4t5 -9v-222zM1690 -26v150q0 13 13 13h27q13 0 13 -13v-222q0 -16 -13 -16h-16q-10 0 -17 10l-123 151v-145q0 -6 -4 -11t-9 -5h-27
q-6 0 -10.5 5t-4.5 11v222q0 5 4.5 9t10.5 4h15q13 0 18 -9zM597 -3q22 -5 35 -5q53 0 53 51q0 22 -15 34t-38 12q-22 0 -35 -5v-87zM1321 -62q35 0 55 19t20 55q0 34 -20 54.5t-55 20.5q-33 0 -54 -21t-21 -54q0 -34 21 -54t54 -20z" />
    <glyph glyph-name="odieresis" unicode="&#xf6;" vert-adv-y="2063" 
d="M0 631q0 14 15 17q123 7 131 7q110 0 176 -60t66 -164q0 -103 -64 -166.5t-170 -63.5q-7 0 -139 6q-15 4 -15 18v406zM1338 427q0 102 63.5 165t165.5 63q101 0 163.5 -63t62.5 -165q0 -101 -62.5 -163.5t-163.5 -62.5q-102 0 -165.5 63.5t-63.5 162.5zM755 598
q0 -17 -16 -17h-211v-117h159q18 0 18 -18v-30q0 -16 -18 -16h-159v-127h223q15 0 15 -15v-33q0 -18 -15 -18h-273q-17 0 -17 18v406q0 15 17 15h261q16 0 16 -15v-33zM1181 635q5 11 19 11h19q14 0 17 -15q7 -71 44 -382q0 -3 1 -13t1 -11q0 -15 -15 -15h-16q-9 -3 -22 -3
t-16 15q0 5 -1 14t-1 13q-17 140 -30 266l-104 -172q-10 -10 -19 -10h-16q-12 0 -19 10l-103 174q-21 -185 -35 -295q0 -15 -16 -15h-22l-16 3q-15 0 -15 15q0 1 1 5t1 8q41 364 44 393q3 15 18 15h20q13 0 20 -11l129 -219zM66 271q42 -5 90 -5q74 0 117 44.5t43 120.5
q0 72 -44 115t-118 43q-7 0 -88 -6v-312zM1411 427q0 -73 42 -117t112 -44q72 0 115 44t43 117q0 74 -42.5 118t-113.5 44q-72 0 -114 -44t-42 -118zM741 -93q3 -5 3 -9q0 -9 -11 -9q-17 0 -26 -3q-11 0 -18 10l-26 57q-13 -5 -35 -5h-31v-46q0 -16 -13 -16h-25
q-12 0 -12 16v218q0 12 12 15q40 4 67 4q49 0 83.5 -24t34.5 -72q0 -45 -35 -71zM806 -54q3 9 10 9q5 0 7 -2q42 -23 81 -23q46 0 46 29q0 16 -15 23t-46 12q-90 16 -90 71q0 36 27.5 55t73.5 19q38 0 90 -21q6 -7 6 -12q0 -7 -2 -9l-9 -17q-3 -6 -10 -6q-5 0 -7 2
q-40 17 -70 17q-42 0 -42 -26q0 -22 50 -31q22 -4 35.5 -7.5t31 -12t26.5 -22.5t9 -33q0 -36 -28 -56.5t-74 -20.5q-55 0 -103 25q-6 3 -6 11v6zM1192 12q0 56 37 91.5t92 35.5q58 0 95 -35.5t37 -91.5t-37 -92t-95 -36q-55 0 -92 35.5t-37 92.5zM0 120v6q0 9 11 9
q5 0 14.5 1t13.5 1q13 3 18 -9l70 -169l71 169q3 12 17 9q4 0 13.5 -1t15.5 -1q11 0 11 -9q0 -4 -3 -6l-102 -222q-6 -12 -16 -12h-13q-12 0 -16 12zM480 104q0 -15 -13 -15h-114v-55h77q13 0 13 -16v-11q0 -13 -13 -13h-77v-62h114q13 0 13 -12v-18q0 -16 -13 -16h-154
q-12 0 -12 16v222q0 13 12 13h154q13 0 13 -13v-20zM1126 -98q0 -6 -4.5 -11t-11.5 -5h-24q-15 0 -15 16v222q0 13 15 13h24q6 0 11 -4t5 -9v-222zM1690 -26v150q0 13 13 13h27q13 0 13 -13v-222q0 -16 -13 -16h-16q-10 0 -17 10l-123 151v-145q0 -6 -4 -11t-9 -5h-27
q-6 0 -10.5 5t-4.5 11v222q0 5 4.5 9t10.5 4h15q13 0 18 -9zM597 -3q22 -5 35 -5q53 0 53 51q0 22 -15 34t-38 12q-22 0 -35 -5v-87zM1321 -62q35 0 55 19t20 55q0 34 -20 54.5t-55 20.5q-33 0 -54 -21t-21 -54q0 -34 21 -54t54 -20z" />
    <glyph glyph-name="oslash" unicode="&#xf8;" vert-adv-y="2063" 
d="M0 631q0 14 15 17q123 7 131 7q110 0 176 -60t66 -164q0 -103 -64 -166.5t-170 -63.5q-7 0 -139 6q-15 4 -15 18v406zM1338 427q0 102 63.5 165t165.5 63q101 0 163.5 -63t62.5 -165q0 -101 -62.5 -163.5t-163.5 -62.5q-102 0 -165.5 63.5t-63.5 162.5zM755 598
q0 -17 -16 -17h-211v-117h159q18 0 18 -18v-30q0 -16 -18 -16h-159v-127h223q15 0 15 -15v-33q0 -18 -15 -18h-273q-17 0 -17 18v406q0 15 17 15h261q16 0 16 -15v-33zM1181 635q5 11 19 11h19q14 0 17 -15q7 -71 44 -382q0 -3 1 -13t1 -11q0 -15 -15 -15h-16q-9 -3 -22 -3
t-16 15q0 5 -1 14t-1 13q-17 140 -30 266l-104 -172q-10 -10 -19 -10h-16q-12 0 -19 10l-103 174q-21 -185 -35 -295q0 -15 -16 -15h-22l-16 3q-15 0 -15 15q0 1 1 5t1 8q41 364 44 393q3 15 18 15h20q13 0 20 -11l129 -219zM66 271q42 -5 90 -5q74 0 117 44.5t43 120.5
q0 72 -44 115t-118 43q-7 0 -88 -6v-312zM1411 427q0 -73 42 -117t112 -44q72 0 115 44t43 117q0 74 -42.5 118t-113.5 44q-72 0 -114 -44t-42 -118zM741 -93q3 -5 3 -9q0 -9 -11 -9q-17 0 -26 -3q-11 0 -18 10l-26 57q-13 -5 -35 -5h-31v-46q0 -16 -13 -16h-25
q-12 0 -12 16v218q0 12 12 15q40 4 67 4q49 0 83.5 -24t34.5 -72q0 -45 -35 -71zM806 -54q3 9 10 9q5 0 7 -2q42 -23 81 -23q46 0 46 29q0 16 -15 23t-46 12q-90 16 -90 71q0 36 27.5 55t73.5 19q38 0 90 -21q6 -7 6 -12q0 -7 -2 -9l-9 -17q-3 -6 -10 -6q-5 0 -7 2
q-40 17 -70 17q-42 0 -42 -26q0 -22 50 -31q22 -4 35.5 -7.5t31 -12t26.5 -22.5t9 -33q0 -36 -28 -56.5t-74 -20.5q-55 0 -103 25q-6 3 -6 11v6zM1192 12q0 56 37 91.5t92 35.5q58 0 95 -35.5t37 -91.5t-37 -92t-95 -36q-55 0 -92 35.5t-37 92.5zM0 120v6q0 9 11 9
q5 0 14.5 1t13.5 1q13 3 18 -9l70 -169l71 169q3 12 17 9q4 0 13.5 -1t15.5 -1q11 0 11 -9q0 -4 -3 -6l-102 -222q-6 -12 -16 -12h-13q-12 0 -16 12zM480 104q0 -15 -13 -15h-114v-55h77q13 0 13 -16v-11q0 -13 -13 -13h-77v-62h114q13 0 13 -12v-18q0 -16 -13 -16h-154
q-12 0 -12 16v222q0 13 12 13h154q13 0 13 -13v-20zM1126 -98q0 -6 -4.5 -11t-11.5 -5h-24q-15 0 -15 16v222q0 13 15 13h24q6 0 11 -4t5 -9v-222zM1690 -26v150q0 13 13 13h27q13 0 13 -13v-222q0 -16 -13 -16h-16q-10 0 -17 10l-123 151v-145q0 -6 -4 -11t-9 -5h-27
q-6 0 -10.5 5t-4.5 11v222q0 5 4.5 9t10.5 4h15q13 0 18 -9zM597 -3q22 -5 35 -5q53 0 53 51q0 22 -15 34t-38 12q-22 0 -35 -5v-87zM1321 -62q35 0 55 19t20 55q0 34 -20 54.5t-55 20.5q-33 0 -54 -21t-21 -54q0 -34 21 -54t54 -20z" />
    </font>
</defs>
</svg>
